<?xml version="1.0" encoding="UTF-8"?>
<svg id="Calque_2" data-name="Calque 2" xmlns="http://www.w3.org/2000/svg" viewBox="0 0 178.17 178.17">
  <defs>
    <style>
      .cls-1 {
        fill: #fff;
      }

      .cls-2 {
        fill: #3858e9;
      }
    </style>
  </defs>
  <g id="Calque_1-2" data-name="Calque 1">
    <g>
      <circle class="cls-2" cx="89.08" cy="89.08" r="89.08"/>
      <g>
        <polygon class="cls-1" points="43.38 118.57 40.08 118.57 59.97 59.72 63 59.74 43.38 118.57"/>
        <polygon class="cls-1" points="57.11 118.57 51.54 118.57 71.54 59.72 77.29 59.74 57.11 118.57"/>
        <polygon class="cls-1" points="73.88 118.57 65.51 118.57 85.51 59.72 94.05 59.74 73.88 118.57"/>
        <path class="cls-1" d="m137.16,62.27c-.1-.15-.21-.3-.33-.44-1.73-2.12-4.28-2.23-4.67-2.24h-24.16c-.96.24-2.69.81-4.39,2.24-1.99,1.66-2.87,3.6-3.23,4.55l-17.14,50.47c-.26.77.31,1.57,1.13,1.57h10.93c.49,0,.94-.3,1.11-.76l6.73-17.52c.18-.46.62-.76,1.11-.76h12.89c.73,0,1.29.65,1.18,1.37l-2.48,16.47c-.11.72.45,1.37,1.18,1.37h11.47c.58,0,1.08-.42,1.18-1l8.34-51c.24-1.49,0-3.06-.84-4.31Zm-14.43,11.44l-2.32,13.14c-.14.78-.82,1.35-1.61,1.35h-9.35c-1.13,0-1.92-1.13-1.54-2.19l4.76-13.14c.23-.65.85-1.08,1.54-1.08h6.91c1.02,0,1.79.92,1.61,1.92Z"/>
      </g>
    </g>
  </g>
</svg>