<?xml version="1.0" encoding="UTF-8"?>
<svg id="Calque_2" data-name="Calque 2" xmlns="http://www.w3.org/2000/svg" viewBox="0 0 178.17 178.17">
  <defs>
    <style>
      .cls-1, .cls-2 {
        fill: none;
        stroke: #fff;
        stroke-miterlimit: 10;
      }

      .cls-2 {
        stroke-width: 4px;
      }

      .cls-3 {
        fill: #3858e9;
      }
    </style>
  </defs>
  <g id="Calque_1-2" data-name="Calque 1">
    <g>
      <circle class="cls-3" cx="89.08" cy="89.08" r="89.08"/>
      <g>
        <path class="cls-2" d="m134.61,62.92l4.82-6.12c3.29-4.18,4.32-8.86,2.27-10.4l-20.77-15.7c-2.04-1.54-6.41.61-9.7,4.79l-4.82,6.12,28.19,21.31Z"/>
        <polygon class="cls-1" points="130.4 72.65 96.78 47.59 100.96 42.24 134.59 67.3 130.4 72.65"/>
        <g>
          <path class="cls-2" d="m75.33,98.03c1.2-6.26-1.65-9.74-6.65-9-1.13.17-1.87-1.16-1.17-2.06l30.05-38.13c.43-.55,1.22-.65,1.78-.23l29.11,22.01c.57.43.68,1.25.23,1.82l-30.13,38.12c-.7.89-2.15.5-2.27-.63-.52-4.95-4.7-6.79-10.58-4.06"/>
          <line class="cls-2" x1="74.01" y1="99.43" x2="108.24" y2="56.3"/>
          <line class="cls-2" x1="84.3" y1="107.35" x2="118.56" y2="64.21"/>
          <polyline class="cls-2" points="67.31 87.32 56.52 116.81 48.58 142.61 72.1 128.47 98.18 110.88"/>
          <line class="cls-2" x1="56.6" y1="116.76" x2="72.02" y2="128.41"/>
          <path class="cls-2" d="m74.89,98.66c7.21-3.34,11.84.16,10.37,7.84"/>
          <path class="cls-2" d="m66.16,90.47c7.21-3.34,10.17.49,8.7,8.17"/>
          <path class="cls-2" d="m85.27,106.51c7.21-3.34,11.99-1.43,10.51,6.24"/>
        </g>
      </g>
    </g>
  </g>
</svg>