<svg width="1403" height="700" viewBox="0 0 1403 700" fill="none" xmlns="http://www.w3.org/2000/svg">
<path d="M856.285 415H815.887V284.091H858.075C870.774 284.091 881.64 286.712 890.674 291.953C899.708 297.152 906.633 304.631 911.449 314.389C916.264 324.105 918.672 335.739 918.672 349.29C918.672 362.926 916.243 374.666 911.385 384.51C906.527 394.311 899.453 401.854 890.163 407.138C880.873 412.379 869.581 415 856.285 415ZM831.74 400.938H855.262C866.086 400.938 875.056 398.849 882.173 394.673C889.289 390.497 894.595 384.553 898.089 376.839C901.583 369.126 903.331 359.943 903.331 349.29C903.331 338.722 901.605 329.624 898.153 321.996C894.701 314.325 889.545 308.445 882.684 304.354C875.824 300.22 867.279 298.153 857.052 298.153H831.74V400.938ZM983.103 417.045C974.24 417.045 966.463 414.936 959.772 410.717C953.125 406.499 947.926 400.597 944.176 393.011C940.468 385.426 938.615 376.562 938.615 366.42C938.615 356.193 940.468 347.266 944.176 339.638C947.926 332.01 953.125 326.087 959.772 321.868C966.463 317.649 974.24 315.54 983.103 315.54C991.967 315.54 999.723 317.649 1006.37 321.868C1013.06 326.087 1018.26 332.01 1021.97 339.638C1025.72 347.266 1027.59 356.193 1027.59 366.42C1027.59 376.562 1025.72 385.426 1021.97 393.011C1018.26 400.597 1013.06 406.499 1006.37 410.717C999.723 414.936 991.967 417.045 983.103 417.045ZM983.103 403.494C989.836 403.494 995.376 401.768 999.723 398.317C1004.07 394.865 1007.29 390.327 1009.37 384.702C1011.46 379.077 1012.51 372.983 1012.51 366.42C1012.51 359.858 1011.46 353.743 1009.37 348.075C1007.29 342.408 1004.07 337.827 999.723 334.332C995.376 330.838 989.836 329.091 983.103 329.091C976.37 329.091 970.831 330.838 966.484 334.332C962.137 337.827 958.92 342.408 956.832 348.075C954.744 353.743 953.7 359.858 953.7 366.42C953.7 372.983 954.744 379.077 956.832 384.702C958.92 390.327 962.137 394.865 966.484 398.317C970.831 401.768 976.37 403.494 983.103 403.494ZM1090.51 417.045C1081.3 417.045 1073.38 414.872 1066.73 410.526C1060.08 406.179 1054.97 400.192 1051.39 392.564C1047.81 384.936 1046.02 376.222 1046.02 366.42C1046.02 356.449 1047.85 347.649 1051.51 340.021C1055.22 332.351 1060.38 326.364 1066.98 322.06C1073.63 317.713 1081.39 315.54 1090.25 315.54C1097.15 315.54 1103.38 316.818 1108.91 319.375C1114.45 321.932 1118.99 325.511 1122.53 330.114C1126.07 334.716 1128.26 340.085 1129.11 346.222H1114.03C1112.88 341.747 1110.32 337.784 1106.36 334.332C1102.44 330.838 1097.15 329.091 1090.51 329.091C1084.63 329.091 1079.47 330.625 1075.04 333.693C1070.65 336.719 1067.22 341.001 1064.75 346.541C1062.32 352.038 1061.1 358.494 1061.1 365.909C1061.1 373.494 1062.3 380.099 1064.68 385.724C1067.11 391.349 1070.52 395.717 1074.91 398.828C1079.34 401.939 1084.54 403.494 1090.51 403.494C1094.43 403.494 1097.98 402.812 1101.18 401.449C1104.38 400.085 1107.08 398.125 1109.3 395.568C1111.51 393.011 1113.09 389.943 1114.03 386.364H1129.11C1128.26 392.159 1126.15 397.379 1122.79 402.024C1119.46 406.626 1115.05 410.291 1109.55 413.018C1104.1 415.703 1097.75 417.045 1090.51 417.045ZM1165.23 379.205L1164.97 360.54H1168.04L1211 316.818H1229.66L1183.89 363.097H1182.62L1165.23 379.205ZM1151.17 415V284.091H1166.25V415H1151.17ZM1213.55 415L1175.2 366.42L1185.94 355.938L1232.73 415H1213.55ZM1286.2 417.045C1276.74 417.045 1268.58 414.957 1261.72 410.781C1254.9 406.562 1249.64 400.682 1245.93 393.139C1242.26 385.554 1240.43 376.733 1240.43 366.676C1240.43 356.619 1242.26 347.756 1245.93 340.085C1249.64 332.372 1254.79 326.364 1261.4 322.06C1268.04 317.713 1275.8 315.54 1284.66 315.54C1289.78 315.54 1294.83 316.392 1299.81 318.097C1304.8 319.801 1309.34 322.571 1313.43 326.406C1317.52 330.199 1320.78 335.227 1323.21 341.491C1325.64 347.756 1326.85 355.469 1326.85 364.631V371.023H1251.17V357.983H1311.51C1311.51 352.443 1310.4 347.5 1308.19 343.153C1306.01 338.807 1302.9 335.376 1298.85 332.862C1294.85 330.348 1290.12 329.091 1284.66 329.091C1278.66 329.091 1273.46 330.582 1269.07 333.565C1264.72 336.506 1261.38 340.341 1259.03 345.071C1256.69 349.801 1255.52 354.872 1255.52 360.284V368.977C1255.52 376.392 1256.79 382.678 1259.35 387.834C1261.95 392.947 1265.55 396.847 1270.15 399.531C1274.76 402.173 1280.1 403.494 1286.2 403.494C1290.16 403.494 1293.74 402.94 1296.94 401.832C1300.18 400.682 1302.97 398.977 1305.31 396.719C1307.65 394.418 1309.47 391.562 1310.74 388.153L1325.32 392.244C1323.78 397.188 1321.21 401.534 1317.58 405.284C1313.96 408.991 1309.49 411.889 1304.16 413.977C1298.83 416.023 1292.85 417.045 1286.2 417.045ZM1349.8 415V316.818H1364.37V331.648H1365.4C1367.19 326.79 1370.42 322.848 1375.11 319.822C1379.8 316.797 1385.08 315.284 1390.96 315.284C1392.07 315.284 1393.46 315.305 1395.12 315.348C1396.78 315.391 1398.04 315.455 1398.89 315.54V330.881C1398.38 330.753 1397.21 330.561 1395.37 330.305C1393.58 330.007 1391.69 329.858 1389.69 329.858C1384.91 329.858 1380.65 330.859 1376.9 332.862C1373.19 334.822 1370.25 337.55 1368.08 341.044C1365.95 344.496 1364.88 348.437 1364.88 352.869V415H1349.8Z" fill="#6B7077"/>
<path d="M350 700C543.3 700 700 543.3 700 350C700 156.7 543.3 0 350 0C156.7 0 0 156.7 0 350C0 543.3 156.7 700 350 700Z" fill="#6B7077"/>
<path d="M400 125H350V175H400V125Z" fill="#F6F7F7"/>
<path d="M200 200H250V250H200V200Z" fill="#F6F7F7"/>
<path d="M100.039 373.535C104.311 446.068 147.507 550 300 550C470 550 545.832 425 562.5 362.5C583.332 362.5 630 350 650 300C637.5 287.5 587.5 287.5 562.5 300C562.5 280 550 237.5 525 225C508.332 241.668 482.5 285 512.5 325C500 350 466.667 350 450 350H123.572C110.335 350 99.2602 360.32 100.039 373.535Z" fill="#F6F7F7"/>
<path d="M175 275H125V325H175V275Z" fill="#F6F7F7"/>
<path d="M200 275H250V325H200V275Z" fill="#F6F7F7"/>
<path d="M325 275H275V325H325V275Z" fill="#F6F7F7"/>
<path d="M350 275H400V325H350V275Z" fill="#F6F7F7"/>
<path d="M475 275H425V325H475V275Z" fill="#F6F7F7"/>
<path d="M325 200H275V250H325V200Z" fill="#F6F7F7"/>
<path d="M350 200H400V250H350V200Z" fill="#F6F7F7"/>
</svg>
