<svg width="1136" height="751" viewBox="0 0 1136 751" fill="none" xmlns="http://www.w3.org/2000/svg">
<path d="M635.893 440V309.091H714.388V323.153H651.746V367.386H708.507V381.449H651.746V440H635.893ZM739.492 440V341.818H754.578V440H739.492ZM747.163 325.455C744.222 325.455 741.687 324.453 739.556 322.45C737.468 320.447 736.424 318.04 736.424 315.227C736.424 312.415 737.468 310.007 739.556 308.004C741.687 306.001 744.222 305 747.163 305C750.103 305 752.617 306.001 754.705 308.004C756.836 310.007 757.901 312.415 757.901 315.227C757.901 318.04 756.836 320.447 754.705 322.45C752.617 324.453 750.103 325.455 747.163 325.455ZM821.838 478.864C814.551 478.864 808.287 477.926 803.045 476.051C797.804 474.219 793.436 471.79 789.942 468.764C786.49 465.781 783.741 462.585 781.696 459.176L793.713 450.739C795.077 452.528 796.802 454.574 798.89 456.875C800.979 459.219 803.834 461.243 807.456 462.947C811.121 464.695 815.915 465.568 821.838 465.568C829.764 465.568 836.305 463.651 841.461 459.815C846.618 455.98 849.196 449.972 849.196 441.79V421.847H847.917C846.809 423.636 845.233 425.852 843.187 428.494C841.184 431.094 838.287 433.416 834.494 435.462C830.744 437.464 825.673 438.466 819.281 438.466C811.355 438.466 804.238 436.591 797.932 432.841C791.667 429.091 786.703 423.636 783.038 416.477C779.416 409.318 777.605 400.625 777.605 390.398C777.605 380.341 779.373 371.584 782.91 364.126C786.447 356.626 791.369 350.831 797.676 346.74C803.983 342.607 811.27 340.54 819.537 340.54C825.929 340.54 831 341.605 834.75 343.736C838.542 345.824 841.44 348.21 843.443 350.895C845.488 353.537 847.065 355.71 848.173 357.415H849.707V341.818H864.281V442.812C864.281 451.25 862.363 458.111 858.528 463.395C854.736 468.722 849.622 472.621 843.187 475.092C836.795 477.607 829.679 478.864 821.838 478.864ZM821.327 424.915C827.378 424.915 832.491 423.53 836.667 420.76C840.844 417.99 844.018 414.006 846.192 408.807C848.365 403.608 849.452 397.386 849.452 390.142C849.452 383.068 848.386 376.825 846.256 371.413C844.125 366.001 840.971 361.761 836.795 358.693C832.619 355.625 827.463 354.091 821.327 354.091C814.934 354.091 809.608 355.71 805.346 358.949C801.128 362.187 797.953 366.534 795.822 371.989C793.734 377.443 792.69 383.494 792.69 390.142C792.69 396.96 793.756 402.99 795.886 408.232C798.059 413.43 801.256 417.521 805.474 420.504C809.736 423.445 815.02 424.915 821.327 424.915ZM891.895 440V341.818H906.469V357.159H907.747C909.792 351.918 913.095 347.848 917.655 344.95C922.214 342.01 927.69 340.54 934.082 340.54C940.559 340.54 945.95 342.01 950.254 344.95C954.601 347.848 957.988 351.918 960.417 357.159H961.44C963.954 352.088 967.726 348.061 972.754 345.078C977.782 342.053 983.812 340.54 990.844 340.54C999.622 340.54 1006.8 343.288 1012.38 348.786C1017.97 354.24 1020.76 362.741 1020.76 374.29V440H1005.67V374.29C1005.67 367.045 1003.69 361.868 999.729 358.757C995.765 355.646 991.099 354.091 985.73 354.091C978.827 354.091 973.479 356.179 969.686 360.355C965.893 364.489 963.997 369.73 963.997 376.08V440H948.656V372.756C948.656 367.173 946.845 362.678 943.223 359.268C939.601 355.817 934.934 354.091 929.224 354.091C925.304 354.091 921.639 355.135 918.23 357.223C914.863 359.311 912.136 362.209 910.048 365.916C908.003 369.581 906.98 373.821 906.98 378.636V440H891.895ZM1077.23 442.301C1071.01 442.301 1065.36 441.129 1060.29 438.786C1055.22 436.399 1051.2 432.969 1048.21 428.494C1045.23 423.977 1043.74 418.523 1043.74 412.131C1043.74 406.506 1044.85 401.946 1047.06 398.452C1049.28 394.915 1052.24 392.145 1055.95 390.142C1059.65 388.139 1063.74 386.648 1068.22 385.668C1072.74 384.645 1077.27 383.835 1081.83 383.239C1087.8 382.472 1092.64 381.896 1096.34 381.513C1100.09 381.087 1102.82 380.384 1104.53 379.403C1106.27 378.423 1107.15 376.719 1107.15 374.29V373.778C1107.15 367.472 1105.42 362.571 1101.97 359.077C1098.56 355.582 1093.38 353.835 1086.44 353.835C1079.23 353.835 1073.59 355.412 1069.5 358.565C1065.41 361.719 1062.53 365.085 1060.87 368.665L1046.55 363.551C1049.11 357.585 1052.52 352.94 1056.78 349.616C1061.08 346.25 1065.77 343.906 1070.84 342.585C1075.95 341.222 1080.98 340.54 1085.93 340.54C1089.08 340.54 1092.7 340.923 1096.79 341.69C1100.93 342.415 1104.91 343.928 1108.74 346.229C1112.62 348.53 1115.84 352.003 1118.4 356.648C1120.95 361.293 1122.23 367.514 1122.23 375.312V440H1107.15V426.705H1106.38C1105.36 428.835 1103.65 431.115 1101.27 433.544C1098.88 435.973 1095.71 438.04 1091.74 439.744C1087.78 441.449 1082.94 442.301 1077.23 442.301ZM1079.53 428.75C1085.5 428.75 1090.53 427.578 1094.62 425.234C1098.75 422.891 1101.86 419.865 1103.95 416.158C1106.08 412.45 1107.15 408.551 1107.15 404.46V390.653C1106.51 391.42 1105.1 392.124 1102.93 392.763C1100.8 393.359 1098.33 393.892 1095.51 394.361C1092.74 394.787 1090.04 395.17 1087.4 395.511C1084.8 395.81 1082.69 396.065 1081.07 396.278C1077.15 396.79 1073.48 397.621 1070.07 398.771C1066.71 399.879 1063.98 401.562 1061.89 403.821C1059.85 406.037 1058.82 409.062 1058.82 412.898C1058.82 418.139 1060.76 422.102 1064.64 424.787C1068.56 427.429 1073.52 428.75 1079.53 428.75Z" fill="#6B7077"/>
<path d="M377.103 280.741C325.168 280.741 283.077 322.975 283.077 375.088C283.077 427.2 325.168 469.435 377.103 469.435H380.144C432.079 469.435 474.17 427.2 474.17 375.088C474.17 322.975 432.079 280.741 380.144 280.741H377.103ZM380.144 515.395H377.103C299.873 515.395 237.272 452.581 237.272 375.088C237.272 297.594 299.873 234.78 377.103 234.78H380.144C457.374 234.78 519.975 297.594 519.975 375.088C519.975 452.581 457.374 515.395 380.144 515.395ZM140.205 515.395C88.2699 515.395 46.1536 557.63 46.1536 609.742C46.1536 661.854 88.245 704.089 140.18 704.089C140.454 704.089 140.753 704.089 141.027 704.089H140.978C141.052 704.089 141.152 704.089 141.252 704.089C194.109 704.089 237.023 661.229 237.297 608.242V515.395H140.205ZM140.953 750.075C140.629 750.075 140.23 750.075 139.831 750.075C62.6014 750.075 0 687.26 0 609.767C0 532.274 62.6014 469.46 139.831 469.46C139.956 469.46 140.08 469.46 140.205 469.46H283.077V608.242C282.778 686.635 219.354 750.075 141.202 750.075C141.127 750.075 141.052 750.075 140.978 750.075H140.953ZM140.205 280.741C88.2699 280.741 46.1785 322.975 46.1785 375.088C46.1785 427.2 88.2699 469.46 140.205 469.46L237.272 469.435V280.766L140.205 280.741ZM283.052 515.395H140.205C62.9752 515.395 0.373811 452.581 0.373811 375.088C0.373811 297.594 62.9752 234.78 140.205 234.78H283.077V515.395H283.052ZM140.205 46.0857C88.2699 46.0857 46.1785 88.3206 46.1785 140.433C46.1785 192.545 88.2699 234.78 140.205 234.78H237.272V46.0607L140.205 46.0857ZM283.052 280.741H140.205C62.9752 280.741 0.348891 217.926 0.348891 140.408C0.348891 62.8897 62.9502 0.0750122 140.205 0.0750122H283.077V280.715L283.052 280.741ZM283.052 234.78H380.144C431.979 234.655 473.921 192.47 473.921 140.433C473.921 88.3956 431.954 46.2108 380.119 46.0857H283.052V234.78ZM380.144 280.741L237.272 280.766V0.100016H380.144C457.374 0.100016 520 62.9147 520 140.433C520 217.951 457.399 280.741 380.144 280.741Z" fill="#6B7077"/>
</svg>
