<svg width="2132" height="700" viewBox="0 0 2132 700" fill="none" xmlns="http://www.w3.org/2000/svg">
<path d="M905.833 325C904.427 320.696 902.573 316.839 900.272 313.43C898.013 309.979 895.308 307.038 892.154 304.609C889.043 302.18 885.506 300.327 881.543 299.048C877.58 297.77 873.234 297.131 868.504 297.131C860.748 297.131 853.695 299.134 847.346 303.139C840.996 307.145 835.947 313.047 832.197 320.845C828.447 328.643 826.572 338.21 826.572 349.545C826.572 360.881 828.468 370.447 832.261 378.246C836.053 386.044 841.188 391.946 847.665 395.952C854.143 399.957 861.43 401.96 869.526 401.96C877.026 401.96 883.631 400.362 889.342 397.166C895.094 393.928 899.569 389.368 902.765 383.487C906.004 377.564 907.623 370.597 907.623 362.585L912.481 363.608H873.106V349.545H922.964V363.608C922.964 374.389 920.663 383.764 916.06 391.733C911.501 399.702 905.194 405.881 897.14 410.27C889.129 414.616 879.924 416.79 869.526 416.79C857.935 416.79 847.751 414.062 838.972 408.608C830.237 403.153 823.418 395.398 818.518 385.341C813.66 375.284 811.231 363.352 811.231 349.545C811.231 339.19 812.616 329.879 815.386 321.612C818.198 313.303 822.161 306.229 827.275 300.391C832.388 294.553 838.44 290.078 845.428 286.967C852.417 283.857 860.109 282.301 868.504 282.301C875.407 282.301 881.842 283.345 887.808 285.433C893.816 287.479 899.164 290.398 903.852 294.19C908.582 297.94 912.523 302.436 915.677 307.678C918.83 312.876 921.004 318.651 922.197 325H905.833ZM954.221 415V316.818H969.306V415H954.221ZM961.891 300.455C958.951 300.455 956.415 299.453 954.285 297.45C952.197 295.447 951.153 293.04 951.153 290.227C951.153 287.415 952.197 285.007 954.285 283.004C956.415 281.001 958.951 280 961.891 280C964.832 280 967.346 281.001 969.434 283.004C971.565 285.007 972.63 287.415 972.63 290.227C972.63 293.04 971.565 295.447 969.434 297.45C967.346 299.453 964.832 300.455 961.891 300.455ZM1039.63 316.818V329.602H988.754V316.818H1039.63ZM1003.58 293.295H1018.67V386.875C1018.67 391.136 1019.29 394.332 1020.52 396.463C1021.8 398.551 1023.42 399.957 1025.38 400.682C1027.38 401.364 1029.49 401.705 1031.71 401.705C1033.37 401.705 1034.73 401.619 1035.8 401.449C1036.86 401.236 1037.72 401.065 1038.36 400.938L1041.42 414.489C1040.4 414.872 1038.97 415.256 1037.14 415.639C1035.31 416.065 1032.99 416.278 1030.17 416.278C1025.91 416.278 1021.74 415.362 1017.65 413.53C1013.6 411.697 1010.23 408.906 1007.55 405.156C1004.9 401.406 1003.58 396.676 1003.58 390.966V293.295ZM1079.52 355.938V415H1064.44V284.091H1079.52V332.159H1080.8C1083.1 327.088 1086.55 323.061 1091.15 320.078C1095.8 317.053 1101.98 315.54 1109.69 315.54C1116.38 315.54 1122.24 316.882 1127.27 319.567C1132.3 322.209 1136.2 326.278 1138.97 331.776C1141.78 337.23 1143.19 344.176 1143.19 352.614V415H1128.1V353.636C1128.1 345.838 1126.08 339.808 1122.03 335.547C1118.02 331.243 1112.46 329.091 1105.34 329.091C1100.4 329.091 1095.97 330.135 1092.05 332.223C1088.17 334.311 1085.1 337.358 1082.84 341.364C1080.63 345.369 1079.52 350.227 1079.52 355.938ZM1232.66 374.858V316.818H1247.74V415H1232.66V398.381H1231.64C1229.33 403.366 1225.75 407.607 1220.9 411.101C1216.04 414.553 1209.9 416.278 1202.49 416.278C1196.35 416.278 1190.9 414.936 1186.12 412.251C1181.35 409.524 1177.6 405.433 1174.87 399.979C1172.15 394.482 1170.78 387.557 1170.78 379.205V316.818H1185.87V378.182C1185.87 385.341 1187.87 391.051 1191.88 395.312C1195.93 399.574 1201.08 401.705 1207.35 401.705C1211.1 401.705 1214.91 400.746 1218.79 398.828C1222.71 396.911 1225.99 393.97 1228.63 390.007C1231.32 386.044 1232.66 380.994 1232.66 374.858ZM1277.42 415V284.091H1292.5V332.415H1293.78C1294.89 330.71 1296.42 328.537 1298.38 325.895C1300.39 323.21 1303.24 320.824 1306.95 318.736C1310.7 316.605 1315.77 315.54 1322.16 315.54C1330.43 315.54 1337.72 317.607 1344.02 321.74C1350.33 325.874 1355.25 331.733 1358.79 339.318C1362.33 346.903 1364.09 355.852 1364.09 366.165C1364.09 376.562 1362.33 385.575 1358.79 393.203C1355.25 400.788 1350.35 406.669 1344.09 410.845C1337.82 414.979 1330.6 417.045 1322.42 417.045C1316.11 417.045 1311.06 416.001 1307.27 413.913C1303.48 411.783 1300.56 409.375 1298.51 406.69C1296.47 403.963 1294.89 401.705 1293.78 399.915H1291.99V415H1277.42ZM1292.25 365.909C1292.25 373.324 1293.33 379.865 1295.51 385.533C1297.68 391.158 1300.86 395.568 1305.03 398.764C1309.21 401.918 1314.32 403.494 1320.37 403.494C1326.68 403.494 1331.94 401.832 1336.16 398.509C1340.42 395.142 1343.62 390.625 1345.75 384.957C1347.92 379.247 1349.01 372.898 1349.01 365.909C1349.01 359.006 1347.94 352.784 1345.81 347.244C1343.73 341.662 1340.55 337.251 1336.29 334.013C1332.07 330.732 1326.77 329.091 1320.37 329.091C1314.24 329.091 1309.08 330.646 1304.9 333.757C1300.73 336.825 1297.57 341.129 1295.44 346.669C1293.31 352.166 1292.25 358.58 1292.25 365.909ZM1480.24 415H1439.84V284.091H1482.03C1494.73 284.091 1505.59 286.712 1514.63 291.953C1523.66 297.152 1530.59 304.631 1535.4 314.389C1540.22 324.105 1542.62 335.739 1542.62 349.29C1542.62 362.926 1540.2 374.666 1535.34 384.51C1530.48 394.311 1523.41 401.854 1514.12 407.138C1504.83 412.379 1493.53 415 1480.24 415ZM1455.69 400.938H1479.22C1490.04 400.938 1499.01 398.849 1506.13 394.673C1513.24 390.497 1518.55 384.553 1522.04 376.839C1525.54 369.126 1527.28 359.943 1527.28 349.29C1527.28 338.722 1525.56 329.624 1522.11 321.996C1518.65 314.325 1513.5 308.445 1506.64 304.354C1499.78 300.22 1491.23 298.153 1481.01 298.153H1455.69V400.938ZM1608.33 417.045C1598.87 417.045 1590.71 414.957 1583.85 410.781C1577.04 406.562 1571.77 400.682 1568.06 393.139C1564.4 385.554 1562.57 376.733 1562.57 366.676C1562.57 356.619 1564.4 347.756 1568.06 340.085C1571.77 332.372 1576.93 326.364 1583.53 322.06C1590.18 317.713 1597.94 315.54 1606.8 315.54C1611.91 315.54 1616.96 316.392 1621.95 318.097C1626.94 319.801 1631.47 322.571 1635.56 326.406C1639.66 330.199 1642.92 335.227 1645.34 341.491C1647.77 347.756 1648.99 355.469 1648.99 364.631V371.023H1573.31V357.983H1633.65C1633.65 352.443 1632.54 347.5 1630.32 343.153C1628.15 338.807 1625.04 335.376 1620.99 332.862C1616.99 330.348 1612.26 329.091 1606.8 329.091C1600.79 329.091 1595.59 330.582 1591.2 333.565C1586.86 336.506 1583.51 340.341 1581.17 345.071C1578.82 349.801 1577.65 354.872 1577.65 360.284V368.977C1577.65 376.392 1578.93 382.678 1581.49 387.834C1584.09 392.947 1587.69 396.847 1592.29 399.531C1596.89 402.173 1602.24 403.494 1608.33 403.494C1612.3 403.494 1615.88 402.94 1619.07 401.832C1622.31 400.682 1625.1 398.977 1627.45 396.719C1629.79 394.418 1631.6 391.562 1632.88 388.153L1647.45 392.244C1645.92 397.188 1643.34 401.534 1639.72 405.284C1636.1 408.991 1631.62 411.889 1626.3 413.977C1620.97 416.023 1614.98 417.045 1608.33 417.045ZM1741.48 338.807L1727.93 342.642C1727.08 340.384 1725.82 338.189 1724.16 336.058C1722.54 333.885 1720.32 332.095 1717.51 330.689C1714.7 329.283 1711.1 328.58 1706.71 328.58C1700.7 328.58 1695.69 329.964 1691.69 332.734C1687.72 335.462 1685.74 338.935 1685.74 343.153C1685.74 346.903 1687.11 349.865 1689.83 352.038C1692.56 354.212 1696.82 356.023 1702.62 357.472L1717.19 361.051C1725.97 363.182 1732.51 366.442 1736.81 370.831C1741.12 375.178 1743.27 380.781 1743.27 387.642C1743.27 393.267 1741.65 398.295 1738.41 402.727C1735.22 407.159 1730.74 410.653 1724.99 413.21C1719.24 415.767 1712.55 417.045 1704.92 417.045C1694.9 417.045 1686.62 414.872 1680.05 410.526C1673.49 406.179 1669.34 399.83 1667.59 391.477L1681.91 387.898C1683.27 393.182 1685.85 397.145 1689.64 399.787C1693.48 402.429 1698.48 403.75 1704.66 403.75C1711.69 403.75 1717.28 402.259 1721.41 399.276C1725.59 396.25 1727.67 392.628 1727.67 388.409C1727.67 385 1726.48 382.145 1724.09 379.844C1721.71 377.5 1718.04 375.753 1713.1 374.602L1696.74 370.767C1687.75 368.636 1681.14 365.334 1676.92 360.859C1672.75 356.342 1670.66 350.696 1670.66 343.92C1670.66 338.381 1672.21 333.48 1675.32 329.219C1678.48 324.957 1682.76 321.612 1688.17 319.183C1693.63 316.754 1699.81 315.54 1706.71 315.54C1716.42 315.54 1724.05 317.67 1729.59 321.932C1735.17 326.193 1739.14 331.818 1741.48 338.807ZM1780.04 379.205L1779.79 360.54H1782.85L1825.81 316.818H1844.47L1798.71 363.097H1797.43L1780.04 379.205ZM1765.98 415V284.091H1781.06V415H1765.98ZM1828.37 415L1790.01 366.42L1800.75 355.938L1847.54 415H1828.37ZM1906.59 316.818V329.602H1855.71V316.818H1906.59ZM1870.54 293.295H1885.62V386.875C1885.62 391.136 1886.24 394.332 1887.48 396.463C1888.75 398.551 1890.37 399.957 1892.33 400.682C1894.34 401.364 1896.45 401.705 1898.66 401.705C1900.32 401.705 1901.69 401.619 1902.75 401.449C1903.82 401.236 1904.67 401.065 1905.31 400.938L1908.38 414.489C1907.35 414.872 1905.93 415.256 1904.09 415.639C1902.26 416.065 1899.94 416.278 1897.13 416.278C1892.87 416.278 1888.69 415.362 1884.6 413.53C1880.55 411.697 1877.18 408.906 1874.5 405.156C1871.86 401.406 1870.54 396.676 1870.54 390.966V293.295ZM1968.11 417.045C1959.25 417.045 1951.47 414.936 1944.78 410.717C1938.13 406.499 1932.93 400.597 1929.18 393.011C1925.48 385.426 1923.62 376.562 1923.62 366.42C1923.62 356.193 1925.48 347.266 1929.18 339.638C1932.93 332.01 1938.13 326.087 1944.78 321.868C1951.47 317.649 1959.25 315.54 1968.11 315.54C1976.97 315.54 1984.73 317.649 1991.38 321.868C1998.07 326.087 2003.27 332.01 2006.97 339.638C2010.72 347.266 2012.6 356.193 2012.6 366.42C2012.6 376.562 2010.72 385.426 2006.97 393.011C2003.27 400.597 1998.07 406.499 1991.38 410.717C1984.73 414.936 1976.97 417.045 1968.11 417.045ZM1968.11 403.494C1974.84 403.494 1980.38 401.768 1984.73 398.317C1989.08 394.865 1992.29 390.327 1994.38 384.702C1996.47 379.077 1997.51 372.983 1997.51 366.42C1997.51 359.858 1996.47 353.743 1994.38 348.075C1992.29 342.408 1989.08 337.827 1984.73 334.332C1980.38 330.838 1974.84 329.091 1968.11 329.091C1961.38 329.091 1955.84 330.838 1951.49 334.332C1947.15 337.827 1943.93 342.408 1941.84 348.075C1939.75 353.743 1938.71 359.858 1938.71 366.42C1938.71 372.983 1939.75 379.077 1941.84 384.702C1943.93 390.327 1947.15 394.865 1951.49 398.317C1955.84 401.768 1961.38 403.494 1968.11 403.494ZM2035.63 451.818V316.818H2050.2V332.415H2051.99C2053.1 330.71 2054.63 328.537 2056.59 325.895C2058.6 323.21 2061.45 320.824 2065.16 318.736C2068.91 316.605 2073.98 315.54 2080.37 315.54C2088.64 315.54 2095.93 317.607 2102.23 321.74C2108.54 325.874 2113.46 331.733 2117 339.318C2120.53 346.903 2122.3 355.852 2122.3 366.165C2122.3 376.562 2120.53 385.575 2117 393.203C2113.46 400.788 2108.56 406.669 2102.3 410.845C2096.03 414.979 2088.81 417.045 2080.63 417.045C2074.32 417.045 2069.27 416.001 2065.48 413.913C2061.69 411.783 2058.77 409.375 2056.72 406.69C2054.68 403.963 2053.1 401.705 2051.99 399.915H2050.71V451.818H2035.63ZM2050.46 365.909C2050.46 373.324 2051.54 379.865 2053.72 385.533C2055.89 391.158 2059.06 395.568 2063.24 398.764C2067.42 401.918 2072.53 403.494 2078.58 403.494C2084.89 403.494 2090.15 401.832 2094.37 398.509C2098.63 395.142 2101.83 390.625 2103.96 384.957C2106.13 379.247 2107.22 372.898 2107.22 365.909C2107.22 359.006 2106.15 352.784 2104.02 347.244C2101.93 341.662 2098.76 337.251 2094.5 334.013C2090.28 330.732 2084.97 329.091 2078.58 329.091C2072.45 329.091 2067.29 330.646 2063.11 333.757C2058.94 336.825 2055.78 341.129 2053.65 346.669C2051.52 352.166 2050.46 358.58 2050.46 365.909Z" fill="#6B7077"/>
<path fill-rule="evenodd" clip-rule="evenodd" d="M350 0C543.304 0 699.999 160.647 699.999 358.852C699.999 517.367 599.829 651.838 460.844 699.333C443.099 702.868 436.8 691.661 436.8 682.106C436.8 670.276 437.219 631.637 437.219 583.617C437.219 550.158 426.02 528.319 413.455 517.189C491.4 508.299 573.299 477.952 573.299 340.122C573.299 300.922 559.719 268.933 537.249 243.803C540.889 234.738 552.894 198.238 533.819 148.818C533.819 148.818 504.489 139.203 437.674 185.613C409.709 177.668 379.75 173.67 350 173.53C320.25 173.67 290.325 177.668 262.395 185.613C195.51 139.203 166.11 148.818 166.11 148.818C147.105 198.238 159.11 234.738 162.715 243.803C140.35 268.933 126.665 300.922 126.665 340.122C126.665 477.602 208.39 508.415 286.125 517.48C276.115 526.44 267.05 542.246 263.9 565.451C243.95 574.621 193.27 590.491 162.05 535.646C162.05 535.646 143.535 501.167 108.395 498.647C108.395 498.647 74.2699 498.194 106.015 520.453C106.015 520.453 128.94 531.478 144.865 572.953C144.865 572.953 165.41 637.002 262.78 615.302C262.955 645.297 263.27 673.566 263.27 682.106C263.27 691.591 256.83 702.692 239.365 699.367C100.275 651.942 0 517.402 0 358.852C0 160.647 156.73 0 350 0Z" fill="#6B7077"/>
</svg>
