<svg width="1605" height="700" viewBox="0 0 1605 700" fill="none" xmlns="http://www.w3.org/2000/svg">
<path d="M0 253.332C0 164.658 0 120.321 17.2572 86.4515C32.4373 56.6592 56.6592 32.4373 86.4515 17.2572C120.321 0 164.658 0 253.332 0H446.667C535.342 0 579.68 0 613.548 17.2572C643.34 32.4373 667.562 56.6592 682.743 86.4515C700 120.321 700 164.658 700 253.332V446.667C700 535.342 700 579.68 682.743 613.548C667.562 643.34 643.34 667.562 613.548 682.743C579.68 700 535.342 700 446.667 700H253.332C164.658 700 120.321 700 86.4515 682.743C56.6592 667.562 32.4373 643.34 17.2572 613.548C0 579.68 0 535.342 0 446.667V253.332Z" fill="#6B7077"/>
<path d="M339.215 439.907H230.742L208.672 510.225C208.06 512.837 205.655 514.687 203.037 514.557H148.096C144.963 514.557 143.867 512.792 144.809 509.26L238.725 231.845C239.665 228.955 240.605 225.665 241.542 221.972C242.772 215.545 243.4 209.015 243.422 202.467C243.152 200.532 244.852 198.823 246.707 199.094H321.372C323.56 199.094 324.81 199.897 325.127 201.502L431.725 509.742C432.662 512.955 431.725 514.56 428.907 514.557H367.86C365.72 514.802 363.675 513.335 363.165 511.187L339.215 439.907ZM247.647 379.222H321.842C309.652 337.567 295.895 296.46 284.745 254.482C272.715 296.532 259.59 338.412 247.647 379.222Z" fill="#F6F7F7"/>
<path d="M495.112 250.145C490.322 250.343 485.547 249.5 481.095 247.675C476.645 245.85 472.62 243.08 469.285 239.55C465.96 235.865 463.375 231.545 461.682 226.833C459.99 222.123 459.222 217.115 459.422 212.098C459.252 207.13 460.105 202.183 461.925 197.576C463.747 192.97 466.495 188.81 469.99 185.367C473.45 181.96 477.535 179.29 482.01 177.513C486.482 175.736 491.255 174.886 496.05 175.012C507.322 175.012 516.165 178.464 522.582 185.367C525.822 188.955 528.34 193.162 529.992 197.749C531.642 202.335 532.397 207.213 532.207 212.098C532.405 217.133 531.612 222.16 529.877 226.875C528.145 231.59 525.502 235.9 522.112 239.55C518.57 243.133 514.34 245.923 509.695 247.748C505.047 249.57 500.082 250.388 495.112 250.145ZM462.71 509.74V279.525C462.71 276.635 463.957 275.19 466.467 275.19H524.227C526.727 275.19 527.98 276.635 527.982 279.525V509.74C527.982 512.955 526.73 514.56 524.227 514.558H466.937C464.12 514.558 462.71 512.953 462.71 509.74Z" fill="#F6F7F7"/>
<path d="M945.02 306H928.401L976.469 175.091H992.833L1040.9 306H1024.28L985.162 195.801H984.14L945.02 306ZM951.157 254.864H1018.15V268.926H951.157V254.864ZM1096.32 308.045C1088.14 308.045 1080.92 305.979 1074.65 301.845C1068.39 297.669 1063.49 291.788 1059.95 284.203C1056.41 276.575 1054.64 267.562 1054.64 257.165C1054.64 246.852 1056.41 237.903 1059.95 230.318C1063.49 222.733 1068.41 216.874 1074.72 212.74C1081.02 208.607 1088.31 206.54 1096.58 206.54C1102.97 206.54 1108.02 207.605 1111.72 209.736C1115.47 211.824 1118.33 214.21 1120.29 216.895C1122.29 219.537 1123.85 221.71 1124.96 223.415H1126.23V175.091H1141.32V306H1126.75V290.915H1124.96C1123.85 292.705 1122.27 294.963 1120.23 297.69C1118.18 300.375 1115.26 302.783 1111.47 304.913C1107.68 307.001 1102.63 308.045 1096.32 308.045ZM1098.37 294.494C1104.42 294.494 1109.53 292.918 1113.71 289.764C1117.88 286.568 1121.06 282.158 1123.23 276.533C1125.4 270.865 1126.49 264.324 1126.49 256.909C1126.49 249.58 1125.43 243.166 1123.29 237.669C1121.16 232.129 1118.01 227.825 1113.83 224.757C1109.66 221.646 1104.5 220.091 1098.37 220.091C1091.97 220.091 1086.65 221.732 1082.39 225.013C1078.17 228.251 1074.99 232.662 1072.86 238.244C1070.77 243.784 1069.73 250.006 1069.73 256.909C1069.73 263.898 1070.79 270.247 1072.93 275.957C1075.1 281.625 1078.29 286.142 1082.51 289.509C1086.77 292.832 1092.06 294.494 1098.37 294.494ZM1210.93 308.045C1202.07 308.045 1194.29 305.936 1187.6 301.717C1180.95 297.499 1175.75 291.597 1172 284.011C1168.29 276.426 1166.44 267.562 1166.44 257.42C1166.44 247.193 1168.29 238.266 1172 230.638C1175.75 223.01 1180.95 217.087 1187.6 212.868C1194.29 208.649 1202.07 206.54 1210.93 206.54C1219.79 206.54 1227.55 208.649 1234.2 212.868C1240.89 217.087 1246.09 223.01 1249.79 230.638C1253.54 238.266 1255.42 247.193 1255.42 257.42C1255.42 267.562 1253.54 276.426 1249.79 284.011C1246.09 291.597 1240.89 297.499 1234.2 301.717C1227.55 305.936 1219.79 308.045 1210.93 308.045ZM1210.93 294.494C1217.66 294.494 1223.2 292.768 1227.55 289.317C1231.9 285.865 1235.11 281.327 1237.2 275.702C1239.29 270.077 1240.33 263.983 1240.33 257.42C1240.33 250.858 1239.29 244.743 1237.2 239.075C1235.11 233.408 1231.9 228.827 1227.55 225.332C1223.2 221.838 1217.66 220.091 1210.93 220.091C1204.2 220.091 1198.66 221.838 1194.31 225.332C1189.96 228.827 1186.75 233.408 1184.66 239.075C1182.57 244.743 1181.53 250.858 1181.53 257.42C1181.53 263.983 1182.57 270.077 1184.66 275.702C1186.75 281.327 1189.96 285.865 1194.31 289.317C1198.66 292.768 1204.2 294.494 1210.93 294.494ZM1280.49 306V175.091H1295.58V223.415H1296.85C1297.96 221.71 1299.5 219.537 1301.46 216.895C1303.46 214.21 1306.31 211.824 1310.02 209.736C1313.77 207.605 1318.84 206.54 1325.24 206.54C1333.5 206.54 1340.79 208.607 1347.1 212.74C1353.4 216.874 1358.32 222.733 1361.86 230.318C1365.4 237.903 1367.17 246.852 1367.17 257.165C1367.17 267.562 1365.4 276.575 1361.86 284.203C1358.32 291.788 1353.42 297.669 1347.16 301.845C1340.9 305.979 1333.67 308.045 1325.49 308.045C1319.18 308.045 1314.13 307.001 1310.34 304.913C1306.55 302.783 1303.63 300.375 1301.58 297.69C1299.54 294.963 1297.96 292.705 1296.85 290.915H1295.06V306H1280.49ZM1295.32 256.909C1295.32 264.324 1296.41 270.865 1298.58 276.533C1300.75 282.158 1303.93 286.568 1308.1 289.764C1312.28 292.918 1317.39 294.494 1323.45 294.494C1329.75 294.494 1335.02 292.832 1339.23 289.509C1343.5 286.142 1346.69 281.625 1348.82 275.957C1351 270.247 1352.08 263.898 1352.08 256.909C1352.08 250.006 1351.02 243.784 1348.89 238.244C1346.8 232.662 1343.62 228.251 1339.36 225.013C1335.14 221.732 1329.84 220.091 1323.45 220.091C1317.31 220.091 1312.15 221.646 1307.98 224.757C1303.8 227.825 1300.65 232.129 1298.52 237.669C1296.39 243.166 1295.32 249.58 1295.32 256.909ZM1431.41 308.045C1421.95 308.045 1413.79 305.957 1406.93 301.781C1400.11 297.562 1394.84 291.682 1391.14 284.139C1387.47 276.554 1385.64 267.733 1385.64 257.676C1385.64 247.619 1387.47 238.756 1391.14 231.085C1394.84 223.372 1400 217.364 1406.61 213.06C1413.25 208.713 1421.01 206.54 1429.87 206.54C1434.99 206.54 1440.04 207.392 1445.02 209.097C1450.01 210.801 1454.55 213.571 1458.64 217.406C1462.73 221.199 1465.99 226.227 1468.42 232.491C1470.85 238.756 1472.06 246.469 1472.06 255.631V262.023H1396.38V248.983H1456.72C1456.72 243.443 1455.61 238.5 1453.4 234.153C1451.22 229.807 1448.11 226.376 1444.06 223.862C1440.06 221.348 1435.33 220.091 1429.87 220.091C1423.86 220.091 1418.67 221.582 1414.28 224.565C1409.93 227.506 1406.58 231.341 1404.24 236.071C1401.9 240.801 1400.73 245.872 1400.73 251.284V259.977C1400.73 267.392 1402 273.678 1404.56 278.834C1407.16 283.947 1410.76 287.847 1415.36 290.531C1419.97 293.173 1425.31 294.494 1431.41 294.494C1435.37 294.494 1438.95 293.94 1442.15 292.832C1445.38 291.682 1448.18 289.977 1450.52 287.719C1452.86 285.418 1454.67 282.562 1455.95 279.153L1470.53 283.244C1468.99 288.188 1466.41 292.534 1462.79 296.284C1459.17 299.991 1454.7 302.889 1449.37 304.977C1444.04 307.023 1438.05 308.045 1431.41 308.045ZM832.105 393.091V524H816.253V393.091H832.105ZM876.929 393.091V524H861.844V393.091H876.929ZM919.644 393.091V524H904.559V393.091H919.644ZM1009.15 483.858V425.818H1024.23V524H1009.15V507.381H1008.13C1005.82 512.366 1002.25 516.607 997.387 520.101C992.529 523.553 986.393 525.278 978.978 525.278C972.842 525.278 967.387 523.936 962.615 521.251C957.842 518.524 954.092 514.433 951.365 508.979C948.637 503.482 947.274 496.557 947.274 488.205V425.818H962.359V487.182C962.359 494.341 964.362 500.051 968.367 504.312C972.416 508.574 977.572 510.705 983.836 510.705C987.586 510.705 991.4 509.746 995.278 507.828C999.198 505.911 1002.48 502.97 1005.12 499.007C1007.81 495.044 1009.15 489.994 1009.15 483.858ZM1121.41 447.807L1107.86 451.642C1107.01 449.384 1105.75 447.189 1104.09 445.058C1102.47 442.885 1100.25 441.095 1097.44 439.689C1094.63 438.283 1091.03 437.58 1086.64 437.58C1080.63 437.58 1075.62 438.964 1071.61 441.734C1067.65 444.462 1065.67 447.935 1065.67 452.153C1065.67 455.903 1067.03 458.865 1069.76 461.038C1072.49 463.212 1076.75 465.023 1082.55 466.472L1097.12 470.051C1105.9 472.182 1112.44 475.442 1116.74 479.831C1121.05 484.178 1123.2 489.781 1123.2 496.642C1123.2 502.267 1121.58 507.295 1118.34 511.727C1115.14 516.159 1110.67 519.653 1104.92 522.21C1099.16 524.767 1092.47 526.045 1084.85 526.045C1074.83 526.045 1066.54 523.872 1059.98 519.526C1053.42 515.179 1049.26 508.83 1047.52 500.477L1061.84 496.898C1063.2 502.182 1065.78 506.145 1069.57 508.787C1073.4 511.429 1078.41 512.75 1084.59 512.75C1091.62 512.75 1097.2 511.259 1101.34 508.276C1105.51 505.25 1107.6 501.628 1107.6 497.409C1107.6 494 1106.41 491.145 1104.02 488.844C1101.64 486.5 1097.97 484.753 1093.03 483.602L1076.66 479.767C1067.67 477.636 1061.07 474.334 1056.85 469.859C1052.67 465.342 1050.59 459.696 1050.59 452.92C1050.59 447.381 1052.14 442.48 1055.25 438.219C1058.4 433.957 1062.69 430.612 1068.1 428.183C1073.55 425.754 1079.73 424.54 1086.64 424.54C1096.35 424.54 1103.98 426.67 1109.52 430.932C1115.1 435.193 1119.07 440.818 1121.41 447.807ZM1188.61 425.818V438.602H1137.72V425.818H1188.61ZM1152.55 402.295H1167.64V495.875C1167.64 500.136 1168.26 503.332 1169.49 505.463C1170.77 507.551 1172.39 508.957 1174.35 509.682C1176.35 510.364 1178.46 510.705 1180.68 510.705C1182.34 510.705 1183.7 510.619 1184.77 510.449C1185.84 510.236 1186.69 510.065 1187.33 509.938L1190.4 523.489C1189.37 523.872 1187.94 524.256 1186.11 524.639C1184.28 525.065 1181.96 525.278 1179.15 525.278C1174.88 525.278 1170.71 524.362 1166.62 522.53C1162.57 520.697 1159.2 517.906 1156.52 514.156C1153.88 510.406 1152.55 505.676 1152.55 499.966V402.295ZM1211.3 524V425.818H1225.87V440.648H1226.89C1228.68 435.79 1231.92 431.848 1236.61 428.822C1241.3 425.797 1246.58 424.284 1252.46 424.284C1253.57 424.284 1254.95 424.305 1256.62 424.348C1258.28 424.391 1259.54 424.455 1260.39 424.54V439.881C1259.88 439.753 1258.7 439.561 1256.87 439.305C1255.08 439.007 1253.19 438.858 1251.18 438.858C1246.41 438.858 1242.15 439.859 1238.4 441.862C1234.69 443.822 1231.75 446.55 1229.58 450.044C1227.45 453.496 1226.38 457.437 1226.38 461.869V524H1211.3ZM1307.16 526.301C1300.94 526.301 1295.29 525.129 1290.22 522.786C1285.15 520.399 1281.12 516.969 1278.14 512.494C1275.16 507.977 1273.67 502.523 1273.67 496.131C1273.67 490.506 1274.78 485.946 1276.99 482.452C1279.21 478.915 1282.17 476.145 1285.88 474.142C1289.58 472.139 1293.67 470.648 1298.15 469.668C1302.67 468.645 1307.2 467.835 1311.76 467.239C1317.73 466.472 1322.57 465.896 1326.27 465.513C1330.02 465.087 1332.75 464.384 1334.46 463.403C1336.2 462.423 1337.08 460.719 1337.08 458.29V457.778C1337.08 451.472 1335.35 446.571 1331.9 443.077C1328.49 439.582 1323.31 437.835 1316.37 437.835C1309.16 437.835 1303.52 439.412 1299.43 442.565C1295.34 445.719 1292.46 449.085 1290.8 452.665L1276.48 447.551C1279.04 441.585 1282.45 436.94 1286.71 433.616C1291.01 430.25 1295.7 427.906 1300.77 426.585C1305.88 425.222 1310.91 424.54 1315.85 424.54C1319.01 424.54 1322.63 424.923 1326.72 425.69C1330.85 426.415 1334.84 427.928 1338.67 430.229C1342.55 432.53 1345.77 436.003 1348.33 440.648C1350.88 445.293 1352.16 451.514 1352.16 459.312V524H1337.08V510.705H1336.31C1335.29 512.835 1333.58 515.115 1331.2 517.544C1328.81 519.973 1325.63 522.04 1321.67 523.744C1317.71 525.449 1312.87 526.301 1307.16 526.301ZM1309.46 512.75C1315.43 512.75 1320.46 511.578 1324.55 509.234C1328.68 506.891 1331.79 503.865 1333.88 500.158C1336.01 496.45 1337.08 492.551 1337.08 488.46V474.653C1336.44 475.42 1335.03 476.124 1332.86 476.763C1330.73 477.359 1328.26 477.892 1325.44 478.361C1322.67 478.787 1319.97 479.17 1317.33 479.511C1314.73 479.81 1312.62 480.065 1311 480.278C1307.08 480.79 1303.41 481.621 1300 482.771C1296.64 483.879 1293.91 485.562 1291.82 487.821C1289.78 490.037 1288.75 493.062 1288.75 496.898C1288.75 502.139 1290.69 506.102 1294.57 508.787C1298.49 511.429 1303.45 512.75 1309.46 512.75ZM1422.39 425.818V438.602H1371.51V425.818H1422.39ZM1386.34 402.295H1401.43V495.875C1401.43 500.136 1402.05 503.332 1403.28 505.463C1404.56 507.551 1406.18 508.957 1408.14 509.682C1410.14 510.364 1412.25 510.705 1414.47 510.705C1416.13 510.705 1417.49 510.619 1418.56 510.449C1419.62 510.236 1420.48 510.065 1421.12 509.938L1424.18 523.489C1423.16 523.872 1421.73 524.256 1419.9 524.639C1418.07 525.065 1415.75 525.278 1412.93 525.278C1408.67 525.278 1404.5 524.362 1400.41 522.53C1396.36 520.697 1392.99 517.906 1390.31 514.156C1387.66 510.406 1386.34 505.676 1386.34 499.966V402.295ZM1483.92 526.045C1475.05 526.045 1467.28 523.936 1460.59 519.717C1453.94 515.499 1448.74 509.597 1444.99 502.011C1441.28 494.426 1439.43 485.562 1439.43 475.42C1439.43 465.193 1441.28 456.266 1444.99 448.638C1448.74 441.01 1453.94 435.087 1460.59 430.868C1467.28 426.649 1475.05 424.54 1483.92 424.54C1492.78 424.54 1500.54 426.649 1507.18 430.868C1513.88 435.087 1519.07 441.01 1522.78 448.638C1526.53 456.266 1528.41 465.193 1528.41 475.42C1528.41 485.562 1526.53 494.426 1522.78 502.011C1519.07 509.597 1513.88 515.499 1507.18 519.717C1500.54 523.936 1492.78 526.045 1483.92 526.045ZM1483.92 512.494C1490.65 512.494 1496.19 510.768 1500.54 507.317C1504.88 503.865 1508.1 499.327 1510.19 493.702C1512.28 488.077 1513.32 481.983 1513.32 475.42C1513.32 468.858 1512.28 462.743 1510.19 457.075C1508.1 451.408 1504.88 446.827 1500.54 443.332C1496.19 439.838 1490.65 438.091 1483.92 438.091C1477.18 438.091 1471.65 439.838 1467.3 443.332C1462.95 446.827 1459.73 451.408 1457.65 457.075C1455.56 462.743 1454.51 468.858 1454.51 475.42C1454.51 481.983 1455.56 488.077 1457.65 493.702C1459.73 499.327 1462.95 503.865 1467.3 507.317C1471.65 510.768 1477.18 512.494 1483.92 512.494ZM1551.43 524V425.818H1566.01V440.648H1567.03C1568.82 435.79 1572.06 431.848 1576.75 428.822C1581.43 425.797 1586.72 424.284 1592.6 424.284C1593.71 424.284 1595.09 424.305 1596.75 424.348C1598.42 424.391 1599.67 424.455 1600.52 424.54V439.881C1600.01 439.753 1598.84 439.561 1597.01 439.305C1595.22 439.007 1593.32 438.858 1591.32 438.858C1586.55 438.858 1582.29 439.859 1578.54 441.862C1574.83 443.822 1571.89 446.55 1569.72 450.044C1567.58 453.496 1566.52 457.437 1566.52 461.869V524H1551.43Z" fill="#6B7077"/>
</svg>
