<svg width="49" height="49" viewBox="0 0 49 49" fill="none" xmlns="http://www.w3.org/2000/svg">
<path d="M30.3709 15.2917H30.3829M21.3749 30.9167H27.6249C32.8333 30.9167 34.9166 28.8334 34.9166 23.625V17.375C34.9166 12.1667 32.8333 10.0834 27.6249 10.0834H21.3749C16.1666 10.0834 14.0833 12.1667 14.0833 17.375V23.625C14.0833 28.8334 16.1666 30.9167 21.3749 30.9167ZM28.1458 20.5C28.1458 22.5136 26.5135 24.1459 24.4999 24.1459C22.4864 24.1459 20.8541 22.5136 20.8541 20.5C20.8541 18.4865 22.4864 16.8542 24.4999 16.8542C26.5135 16.8542 28.1458 18.4865 28.1458 20.5Z" stroke="white" stroke-width="1.5" stroke-linecap="round" stroke-linejoin="round"/>
<g filter="url(#filter0_dd_67_58)">
<circle cx="24.5" cy="20.5" r="20" stroke="white" shape-rendering="crispEdges"/>
</g>
<defs>
<filter id="filter0_dd_67_58" x="0" y="0" width="49" height="49" filterUnits="userSpaceOnUse" color-interpolation-filters="sRGB">
<feFlood flood-opacity="0" result="BackgroundImageFix"/>
<feColorMatrix in="SourceAlpha" type="matrix" values="0 0 0 0 0 0 0 0 0 0 0 0 0 0 0 0 0 0 127 0" result="hardAlpha"/>
<feOffset dy="4"/>
<feGaussianBlur stdDeviation="2"/>
<feComposite in2="hardAlpha" operator="out"/>
<feColorMatrix type="matrix" values="0 0 0 0 0 0 0 0 0 0 0 0 0 0 0 0 0 0 0.25 0"/>
<feBlend mode="normal" in2="BackgroundImageFix" result="effect1_dropShadow_67_58"/>
<feColorMatrix in="SourceAlpha" type="matrix" values="0 0 0 0 0 0 0 0 0 0 0 0 0 0 0 0 0 0 127 0" result="hardAlpha"/>
<feOffset dy="4"/>
<feGaussianBlur stdDeviation="2"/>
<feComposite in2="hardAlpha" operator="out"/>
<feColorMatrix type="matrix" values="0 0 0 0 0 0 0 0 0 0 0 0 0 0 0 0 0 0 0.25 0"/>
<feBlend mode="normal" in2="effect1_dropShadow_67_58" result="effect2_dropShadow_67_58"/>
<feBlend mode="normal" in="SourceGraphic" in2="effect2_dropShadow_67_58" result="shape"/>
</filter>
</defs>
</svg>
