<?xml version="1.0" encoding="UTF-8"?>
<svg id="Calque_2" data-name="Calque 2" xmlns="http://www.w3.org/2000/svg" viewBox="0 0 178.17 178.17">
  <defs>
    <style>
      .cls-1 {
        fill: #fff;
        font-family: Centaur, Centaur;
        font-size: 5.26px;
      }

      .cls-2, .cls-3 {
        fill: none;
        stroke: #fff;
        stroke-miterlimit: 10;
      }

      .cls-3 {
        stroke-width: .25px;
      }

      .cls-4 {
        fill: #3858e9;
      }
    </style>
  </defs>
  <g id="Calque_1-2" data-name="Calque 1">
    <g>
      <circle class="cls-4" cx="89.08" cy="89.08" r="89.08"/>
      <g>
        <g>
          <g>
            <path class="cls-2" d="m93.21,94.17s-2.35,2.53-2.61,2.79"/>
            <path class="cls-2" d="m100.88,87.7c-.1-1.25-.9-1.42-.9-1.42,0,0-.23-.56-.64-.66s-.93-.4-.93-.4c-.4-1.36-1.46-2.07-1.69-2.29s-.94-.51-1.78-.63-2.81-1.38-3.6-1.67-1.09.24-1.19.08-.28-.1-.28-.1c-3.69,1.34-5.99,4.51-6.79,6.28,0,0-.42,1.26-.5,2.08s.55,1.13-.02,2.22-2.01,3.96-2.01,3.96"/>
            <path class="cls-2" d="m67.72,109.12c1.27-1.65,1.33-3.45,1.33-3.45,0,0,.01-1.12,5.55-3.73,0,0,2.86-1.24,3.53-2.16,0,0,2.18-3.36,2.46-4.23"/>
            <path class="cls-2" d="m63.56,115c-.35.55-1.42.84-1.76.9-.07.01-.11.07-.1.14.68,3.91.25,7.65.25,7.65.42,2.9,1.79,4.27,1.79,4.27,1.64-.35,1.37-.52,1.5-1.15s-.12-.84-.25-1.21-.04-2.99-.01-3.23.92-1.92,1.27-2.74,1.62-2.4,1.71-2.91-.21-.73-.23-.85.08-.96.08-.96c1.36-2.79,8.87-8.7,8.89-8.72s.71-.58,1.05-.69,2.82-1.13,3.77-1.68,2.39-2,2.39-2"/>
            <path class="cls-2" d="m63.93,110.15c-.03-.07-3.36-2.54-.17-1,0,0,.02,0,.01-.01-.53-.38-3.62-2.66.24-.8,0,0,.02,0,.01-.01-.49-.45-5.53-5.07,0-1.2,0,0,.02,0,.01,0-.53-.57-5.16-5.59-.19-1.37,0,0,.02,0,.01,0-.53-.62-3.97-4.64.04-.81,0,0,.02,0,.01,0-.44-.63-3.87-5.54.37-.68,4.53,5.18,3.44,5.58,3.44,5.58,0,0-1.06.79-1.16,1.33s-.43,1.31.1,2.43c.49,1.03.86,1.44.93,1.44.15.01-.1.02-.1.03-.13.04-1.65.5-3.23.58,0,0-.71-.11.24-.69,0,0,0-.02,0-.01-.3.06-2.07.38-.35-.69,0,0,0-.01,0-.01-.21-.01-1.81-.15-.15-.95,0,0,0-.01,0-.01-.19-.08-2.32-1.03-.37-.87,0,0,.01,0,0-.01-.25-.18-2.39-1.74.08-.8,0,0,.02,0,.01-.01-.18-.19-1.36-1.4-1.41-1.45,0,0,0,0,0,0,0-.06.14-.92,1.05-.03,0,0,.73.44.56.08Z"/>
            <path class="cls-2" d="m65.63,115.02s-1.21-.39-.5-.54c.02,0,.03-.03.01-.04-.14-.14-.65-.68-.16-.67.02,0,.03-.02.02-.03-.23-.22-1.38-1.37-.09-1.16.02,0,.03-.01.02-.03-.16-.18-.86-1.04-.02-.85.02,0,.03-.02.02-.03-.18-.2-.89-1,.14-.66.02,0,.04-.02.02-.03-.24-.27-1.24-1.44-.18-1.11.01,0,.03-.01.02-.02-.21-.22-1.22-1.29-.35-1,.02,0,.03,0,.02-.02-.1-.21-.54-1.25.21-.74,0,0,.02,0,.02-.01-.14-.27-.98-1.97.03-1.2.02.02.05,0,.04-.03-.16-.38-.7-1.77.82.24"/>
            <path class="cls-2" d="m66.91,115.27s-.06.25.84.69"/>
            <path class="cls-2" d="m62.82,115.61s.3,1.04.34,1.93-.05,2.12-.07,2.34-.26,2.37-.28,2.85-.04,1.28.11,1.81.29,1.4,1.21,2.57l.47.56"/>
            <path class="cls-2" d="m63.33,125.73s1.06-.01,1.11-.01.53-.2.54-.31"/>
            <path class="cls-2" d="m63.15,125.35h1.12s.61-.38.64-.44"/>
            <path class="cls-2" d="m62.86,123.59s1.4.15,1.57.07.49-.49.49-.49"/>
            <path class="cls-2" d="m62.8,122.78s.08.21,1.51.35c0,0,.46-.12.58-.18"/>
            <path class="cls-2" d="m62.97,121.13s.34.47.82.57,1.15.02,1.55-.18"/>
            <path class="cls-2" d="m63.06,120.36s.78.38,1.01.39,1.52.06,1.65.02"/>
            <path class="cls-2" d="m63.16,119.08s2.01.08,2.94.84"/>
            <path class="cls-2" d="m63.2,118.19s1.59-.12,3.23,1.07"/>
            <path class="cls-2" d="m63.14,117.44l3.33.12s.04,0,.05.02c.1.06.5.33.58.62"/>
            <path class="cls-2" d="m63.15,117.04s3.1-.18,3.59.05.79.38.79.38"/>
            <path class="cls-2" d="m62.9,115.78s.69.22,1.12.3.6.01,1.16,0,1.2-.1,1.75.15.92.69.92.69"/>
            <path class="cls-2" d="m89.92,99.13s0,0,0,0c.06-.02,1.59-.42,3.34-1.44,0,0,0,0,0,0,.04-.04,1.93-1.85,3.86-2.29.02,0,.02-.03,0-.03-.5-.09-3.2-.6-3.56-.99s-1.31-.66-1.54-.72c-.01,0-.02-.02,0-.03.12-.09.54-.58,1.71-3.35,1.5-3.53,6.23-2.76,7.12-2.6s4.94,3.58,5.64,4.49,2.12,1.98,2.16,2.01c0,0,0,0,0,0,.03.04.96,1.41.43,2.98s-1.71,1.99-1.76,2.01c0,0,0,0,0,0-.05,0-1.8.02-4.33,1.12s-5.67,1.13-5.7,1.13c0,0,0,0,0,0-.06,0-5.96,1.07-6.56,2.12,0,0,0,0,0,0v.77s0,.02-.02.02h-.74s-.02,0-.02-.01c0-.06-.05-.26-.36-.06-.35.23-3.06,1.84-3.86,2.58s-2.14,3.88-2.17,3.95c0,0,0,0,0,0-.03.03-.77.86-.99-.49,0,0,0,0,0,0l.41-5.37s0,0,0,0c0-.02.2-.98,1.48-2.42,0,0,0-.02,0-.02l-.54-.71s0,0,0-.01l.02-2.37s-.23-.8,1.77-.83"/>
            <path class="cls-2" d="m79.34,96.48s.19-.99.46-1.11,1.31-.41,1.65-.53,1.6-.64,1.6-.64"/>
            <path class="cls-2" d="m79.72,97.1s-.55-.4-.37-.64.66-.76.78-.8.28-.23,1.21-.12.37.31,1.59.26c0,0,1.69-.1,1.78-.1"/>
            <path class="cls-2" d="m86.42,89.29c-3.05,2.3-4.41,4.46-4.6,4.78,0,0,0,.02.01,0l2.77-2.34"/>
            <path class="cls-2" d="m91.27,81.19s-.97-.27-1.22,1.19.67,2.23.67,2.23"/>
            <path class="cls-2" d="m91.24,82.85s-.42.67,2.55,1.91"/>
            <path class="cls-2" d="m93.64,82.85s4.06,2.27,4.8,2.39"/>
            <path class="cls-2" d="m90.37,85.42s2.7.25,3.84.55,2.49.12,2.49.12h3.14"/>
            <path class="cls-2" d="m88.74,86.21s1.01-.06,1.27.03.76.22,1.06.28,1.92.33,2.07.48.91.13,1.21.13.74-.24.74-.24"/>
            <path class="cls-2" d="m92.55,88.49s3.11-.97,3.74-1.16,1.52-.57,1.92-.57.88-.24,1.41.18c0,0,.57.19.53.54"/>
            <path class="cls-2" d="m83.5,94s2.5-3,4.44-3.09"/>
            <path class="cls-2" d="m89.44,90.54s.33.79,2.28.8"/>
            <path class="cls-2" d="m84.28,88.88s3.68-1.4,6.24-1.51c.03,0,.04.04.01.05-.39.2-1.65.85-1.88.91"/>
            <path class="cls-2" d="m86.92,101.89c1.43-.69,2.97-2.78,2.97-2.78,0,0,.58-.76.71-1.12s0-.63-.24-3.52-.36.25-.36.25l-.23-2.63c-1.33-6.5-.79-.95-.66.29,0,.04-.05.05-.06.01-1.69-4.4-1.09-1.11-.78.36.01.06-.08.09-.1.03-1.51-3.72-.94-.42-.66,1,.01.06-.08.09-.1.03-1.61-3.96-.82.08-.62,1.01.01.05-.05.09-.09.05-2.34-2.47-.93.29-.57.96.02.04-.02.09-.07.07-2.64-1.28-.85.36-.38.77.04.03.01.09-.03.09-1.2.01-.25.66.04.84.03.02.03.07,0,.09-.68.38-.15.62.1.71.04.01.05.07.01.09-.82.55-.28.61-.02.61.04,0,.07.05.04.09-.63.78-.17.86.06.86.04,0,.07.05.04.09-.57.7-.31.8-.13.8.04,0,.07.05.04.09,0,0-.72.68.09.44,0,0,.01,0,0,0-.07.13-.56,1.16,1.01.41Z"/>
            <path class="cls-2" d="m92.02,93.65s-.41.21-1.64.3"/>
            <path class="cls-2" d="m85.3,98.66s-.02,2.48-.22,3.09-.86,2.01-1.01,2.46-.51,1.46-.71,3.29-.17,3.53-.17,3.53"/>
            <path class="cls-2" d="m83.3,108.28s.77,1.08.78,1.37"/>
            <path class="cls-2" d="m83.36,107.67s.87,1.14.7,1.86"/>
            <path class="cls-2" d="m83.53,106.26s1.07.4,1.23,2.04"/>
            <path class="cls-2" d="m83.63,105.75s1.23.72,1.44,2"/>
            <path class="cls-2" d="m84.1,104.12s1.39.3,1.51,2.86"/>
            <path class="cls-2" d="m85.76,106.82s.66-2.42-1.49-3.13"/>
            <path class="cls-2" d="m84.76,102.55s2.24,1.04,2.04,3.49"/>
            <path class="cls-2" d="m85.99,102.16s1.73,1.41,1.43,3.46"/>
            <path class="cls-2" d="m87.15,101.77s1.41,1.33,1.08,3.33"/>
            <path class="cls-2" d="m87.74,101.37s1.52.46,1.21,3.29"/>
            <path class="cls-2" d="m89.81,104.18c-.09-.74-.82-3.98-.82-3.98l-.25-.39s1.31-1.3,1.4-1.89-.01-2.32-.01-2.32"/>
            <path class="cls-2" d="m90.73,103.54s.11.31-.8-4.41"/>
            <path class="cls-2" d="m87.48,100.89s-1.61.58-.35-1.12"/>
            <path class="cls-2" d="m87.1,99.78s-.69.17-.01-.52c.01-.01,0-.03,0-.04-.16-.06-.85-.36.15-.8.02,0,.02-.03,0-.04-.18-.12-1.03-.71.08-.75.02,0,.03-.03.01-.04-.21-.15-.94-.73.31-.61.02,0,.03-.02.02-.03-.14-.23-.9-1.46.13-.54.02.02.04,0,.04-.02-.12-.29-.42-1.16.44-.65.02.01.04,0,.03-.03-.16-.3-.71-1.37.34-.76.01,0,.03,0,.03-.02v-1.35s.45-.15.97.95"/>
            <path class="cls-2" d="m99.15,85.56s9.64-7.21,10.41-9.21c0,0,2.39-2.14,2.79-3.95s-.87-2.99,1.68-.78c0,0,1.07-.54-.63-1.52s-4.71-2.26-4.82-2.52c0,0-1.45,1.32-2.26,1.63,0,0-1.38-.08-4.01,1.08s-6.73-2.34-6.21-4.69c0,0-1.3-.55-3.83.73,0,0-.94.52-1.16.98s-1.55,1.53-1.55,1.53c0,0-.57,1.31-.45,2.14l1.01-1.84s.39,1.62.67,1.99.73,1.43.73,1.43c0,0,.66,2.16.5,3.06s-.9,2.56-.9,2.56c0,0-1.44,1.53-1.24,2.4"/>
            <line class="cls-2" x1="91.24" y1="78.64" x2="91.38" y2="77.6"/>
            <path class="cls-2" d="m95.65,72.19s-2.62,2.11-3.89,4.39"/>
            <path class="cls-2" d="m92.29,68.3s-.51-.06-.73,3.19"/>
            <path class="cls-2" d="m92.18,72.63s.48-3.8,2.03-4.72"/>
            <path class="cls-2" d="m98.24,76.22s1.37-.48,2.64-2.37c0,0,.63-1.35.85-1.38"/>
            <path class="cls-2" d="m96.17,75.52s-4.45,2.2-5.05,2.68"/>
            <path class="cls-2" d="m90.89,79.75s.04-.83,6.98-4.09"/>
            <path class="cls-2" d="m94.38,78.77s2.61-.39,8.94-4.69"/>
            <path class="cls-2" d="m104.18,74.52s-5.17,4.48-9.07,6.64c0,0-.77,1.09,6.97-3.37"/>
            <path class="cls-2" d="m92.83,80.24s3.21-.57,6.03-2.68"/>
            <path class="cls-2" d="m97.78,83.61s.41.3.8.25,3.24-1.53,3.36-1.65"/>
            <path class="cls-2" d="m101.03,81.82s-2.79,1.53-3.55,1.06,3.92-2.56,3.92-2.56c0,0,2.27-1.46,2.47-2.09"/>
            <path class="cls-2" d="m110.25,71.26s0,2.97-.12,3.41"/>
            <path class="cls-2" d="m96.1,65.6s.4-.68.98-.61c0,0,.57-.7,1.15.27,0,0-.27.04-.43.25s-.12.71.15,1.01,1.13,1.25,2.23,1.49,1.43.61,5.61-1.35c0,0,.82-.19.98.15,0,0,1.71.07,1.8.77"/>
            <path class="cls-2" d="m97.08,64.99s-.52,1.83,1.07,3.31,4.04.76,4.04.76c0,0,1.89-.85,2.5-.91s1.97-.58,2.08-1.34"/>
            <path class="cls-2" d="m76.64,101.53s.7.42,2.14-.77"/>
            <path class="cls-2" d="m97.13,95.4s4.62-.52,6.54,1.53"/>
            <path class="cls-2" d="m109.56,76.35s1.68-.09,2.2.57,3.1,1.73,3.1,1.73c0,0,2.92.67,5.6.48,0,0,1.71.1,1.67-.48,0,0,1.15-1.83,1.07-2.71s-.27-2.25-1.27-4.17c0,0,.39-1.67.28-2.37s-.71-1.35-.97-1.35-1.36.72-1.34.9.07.62.64.48.89-.35.89-.35"/>
            <path class="cls-2" d="m120.95,68.08s-.16-.69-.98-.57-1.42.36-1.39.54-.11.47.71.56.97-.02.97-.02"/>
            <path class="cls-2" d="m119.97,67.5s-.67-.12-.86-.28-.88-.73-1.15-.74-1.24.01-1.7.19-.09.38-.09.38c0,0,.36.1.94.1s2,.08,2,.08"/>
            <path class="cls-2" d="m118.58,68.04s-.53,0-.71-.09-.57-.54-.54-.81"/>
            <path class="cls-2" d="m117.87,67.95s.04,1.03-.05,1.12-.83.15-.96.08-.74-.6-1.06-.54c0,0-.41-.11-.86.16s-.21.43-.21.43c0,0,1.44.71,1.67.77s.66.32.8.48.8.71,1.06.89.5.23.5.23c0,0-.79,2.54-.76,2.71s-1.69-1.12-1.69-1.12c0,0-1.21-.66-1.76-.58l-.52-.97"/>
            <path class="cls-2" d="m117.82,69.07s.69.13.71.46"/>
            <path class="cls-2" d="m119.69,71.85s-.74-.27-.93-.27"/>
            <path class="cls-2" d="m120.7,71.85s-.71-.14.34-1.76"/>
            <path class="cls-2" d="m118.76,77.01s-.82-.42-.76-2.71"/>
            <path class="cls-2" d="m89.11,70.99s-.45,1.45-.37,1.77c0,0-2.72,2.08-3.16,3.23,0,0-1.52-.18-2.76.73s-4.38,3.93-6.41,4.42c0,0-.4-.71-.71-.78-.28-.06-1.05.54-1.05.54,0,0-1.54.48-1.79.9s-.25.89-.07.93,2.16-.88,2.13-1.28-.28-.55-.28-.55"/>
            <line class="cls-2" x1="89.02" y1="72.75" x2="88.74" y2="72.77"/>
            <line class="cls-2" x1="85.58" y1="75.99" x2="85.81" y2="76.17"/>
            <path class="cls-2" d="m73.06,82.65s-.17.86-.02,1.05.3.26.47.23,2.22-1.21,2.25-1.44.11-.48-.09-.64-1.02-.05-1.02-.05"/>
            <path class="cls-2" d="m73.51,83.94s-.26.55-.04.78.35.36.58.34,2.04-1.1,2.17-1.36.26-.53.09-.75-.44-.36-.63-.34"/>
            <path class="cls-2" d="m74.22,85s-.17.74,0,.92c.16.17.73.04.9-.07s1.97-1.35,1.98-1.38.12-.52-.06-.64-.58-.24-.82-.14"/>
            <path class="cls-2" d="m76.41,81.14s.49,1.33.36,1.66-.96-.59-.96-.59"/>
            <path class="cls-2" d="m77.11,84.47s1.72-1.09,2.79-1.34,3.59-1.25,3.59-1.25c0,0,2.14-1.18,2.31-1.3s.33-.15,1.73-1.59c0,0,4.05-2,4.5-3.35"/>
            <path class="cls-2" d="m85.65,76.93s.25.85.73.97"/>
            <path class="cls-2" d="m99.88,65.83s.36.68.45.85.68.76,1.15.91"/>
            <path class="cls-2" d="m102.66,62.28s.09,1.85-.18,2.71-.63,2.64-.63,2.64"/>
            <path class="cls-2" d="m103.13,66.99s.33-1.76.95-2.31"/>
            <path class="cls-2" d="m105.79,66.66s.85-.5,1.05-1.32c0,0,1.97-.17,2.31-.59,0,0,.14,0,.23-1.39,0,0,.43-.22.78-1.88,0,0,1.21.06,1.03-.68s-.83-1.47-.83-1.47l.11-1.18"/>
            <path class="cls-2" d="m110.02,60.68s-1.17.42.15.8"/>
            <path class="cls-2" d="m109.96,62.29c-.49-.17-1.1-.15-1.34-.13-.04,0-.05.05-.02.07l1.05.83"/>
            <line class="cls-2" x1="108.67" y1="62.22" x2="109.84" y2="62.52"/>
            <path class="cls-2" d="m98.23,65.26s.99.06,1.57-.84"/>
            <path class="cls-2" d="m104.71,61.73s.13.96.16,1.25,2.45,1.69,2.88,1.72c0,0,.84.22,1.41.05"/>
            <path class="cls-2" d="m107.54,58.37s.46-.77,1.23-.36,1.04.49,1.04.49c0,0,.04.26-.25.22s-.75-.37-.86-.37-1.16.02-1.16.02Z"/>
            <path class="cls-2" d="m109.48,59.04s-.92-.46-1.42-.1c-.04.03-.04.09,0,.12.23.14.95.49,1.17.56"/>
            <ellipse class="cls-2" cx="109" cy="59.2" rx=".26" ry=".15" transform="translate(17.4 142.84) rotate(-70.9)"/>
            <path class="cls-2" d="m98.55,63.08s-.19,1.76.69.33"/>
            <path class="cls-2" d="m98.91,63.86s-.07.98.84.58c.72-.32.78-.44.97-1.01,0-.02.02-.03.04-.03.1,0,.41-.03.75-.5,0,0,.19-.16.5-.84l.12-.57s0-.02.02-.03c.1-.06.61-.37.93-1.03"/>
            <path class="cls-2" d="m98.69,63.47c.11.01.22,0,.32-.04s.18-.12.22-.22c0-.02.01-.04.02-.07.01-.04.04-.08.06-.12"/>
            <path class="cls-2" d="m99.38,63.95c.17-.09.31-.23.41-.39.03-.05.06-.1.07-.15.04-.16-.03-.34.06-.48"/>
            <path class="cls-2" d="m99.95,64c.15-.07.27-.18.35-.32.07-.13.11-.28.14-.42l.04-.15c.02-.07.03-.13.04-.2,0-.08.01-.15.01-.23,0-.06,0-.11,0-.17"/>
            <path class="cls-2" d="m101.31,62.94c0-.05-.01-.1-.02-.15,0-.06-.01-.12,0-.18.02-.28.23-.49.35-.74.08-.17.11-.36.11-.54"/>
            <path class="cls-2" d="m102.03,61.26c.15-.06.29-.16.39-.29.06-.08.11-.18.15-.27.04-.11.08-.23.05-.34"/>
            <path class="cls-2" d="m100.58,62.98c.07-.03.14-.06.21-.1.01,0,.03-.02.04-.03s.01-.03.01-.05c0-.06,0-.13,0-.19,0-.04,0-.08,0-.12,0-.03.03-.06.04-.08.09-.13.17-.27.24-.41s.11-.3.1-.46"/>
            <path class="cls-2" d="m103.78,59.01s-.78-.35-1.09.77c0,.03,0,.06.01.09.11.18.58.89.83,1.14,0,0,0,0,0,0,.09.07.38.55.65.55.31,0,.69-.04.73-.33s-.2-.57-.2-.57"/>
            <path class="cls-2" d="m103.69,59.83s-.51.09-.25.32.51.45.68.46.32-.28.31-.42"/>
            <path class="cls-2" d="m103.84,58.54s-.21,1.1-.08,1.33.31.46.92.25.97-.92,1.06-1.41.29-.67.29-.67c0,0,.82-.16.98-.51s.28-.59.28-.59"/>
            <path class="cls-2" d="m104.28,59.63s.74-.25.5-1.13"/>
            <path class="cls-2" d="m104.48,59.83s.8-.33,1.11-1.41c0,0,.2-.32.45-.39"/>
            <path class="cls-2" d="m107.98,56.69s.49.84.83.43-.11-.33-.11-.33"/>
            <path class="cls-2" d="m109.28,56.92s-.79.09-.13.59c0,0,.25-.05.39.06s.42.42.44.54c0,0,.38.39.77-.12,0,0,.92.04.6-.39"/>
            <path class="cls-2" d="m110.03,56.28c.13,0,.31.14.37.19s.12.45.12.45h.25c.09.02.18.05.24.12.12.11.24.23.32.12,0,0,.47-.83.28.12-.05.25-.46.36-.46.36"/>
            <path class="cls-2" d="m109.31,57.12s.26.31,1.09.1"/>
            <path class="cls-2" d="m109.83,57.48s.75,0,.82-.04"/>
            <path class="cls-2" d="m109.87,57.89s.85-.11.93-.24"/>
            <path class="cls-2" d="m98.28,62.32s-.48,1.59.41.61,3.14-3.45,5.74-4.71,3.4-1.65,5.75-1.97.71-.78.71-.78c0,0-.9-.12-1.89.12s-5.26,2.08-5.26,2.08c0,0-3.67,2.33-5.46,4.65Z"/>
            <path class="cls-2" d="m98.74,57.9s-.66,1.1-.46,4.43"/>
            <path class="cls-2" d="m103.48,53.96s4.33-.57,6.95,1.49"/>
            <path class="cls-2" d="m102.85,51.25s2.88-.27,4.52.66.17,1.55.17,1.55c0,0-.17.44-.04.68"/>
            <path class="cls-2" d="m106.58,51.93s.65.25.65.54-.25.38-.25.67.01.51.01.51"/>
            <path class="cls-2" d="m101.81,49.72l.48.5s-.82,2.67,1.42,5.13"/>
            <path class="cls-2" d="m93.76,50.12s-3.27-.96-3.51-.91-.12.49.69.97,3.76,1.5,6.09,1.59"/>
            <path class="cls-2" d="m96.61,51.74s-1.1.37-3.16,0c-1.28-.24-1.74-.4-1.91-.5-.08-.05-.18.04-.15.13.08.18.42.48,1.52.95,2.03.87,3.84.74,3.84.74"/>
            <path class="cls-2" d="m96.2,53.05s-2.59.26-2.99.2-1.35.01.02.49,2.98.17,2.98.17"/>
            <path class="cls-2" d="m95.98,53.94s-3.57.48-1.91.87,2.32-.01,2.32-.01"/>
            <path class="cls-2" d="m95.95,54.94s-1.98.7-.93.98l2.5-.49s.02.01,0,.02c-.42.3-4.01,2.9.52.84"/>
            <path class="cls-2" d="m102.19,56.83s-1.08,1.39,1.17-.29"/>
            <path class="cls-2" d="m103.06,56.83s.21.85.88-.82c0,0,.93.39.86-.55,0,0-2.45-1.16-1.93-5.38,0,0,.38-.9-3.07-.69,0,0-1.7.11-3.33-.82,0,0-.84-.26,1.24,1.21,0,0,.5.14.66.16s-4.29-.59-4.29-.59c0,0-1.34-.16-2.98-1.27,0,0-1.27,0,.59,1.17s5.61,1.55,5.61,1.55"/>
            <path class="cls-2" d="m98.76,51.21s-3.73-.43-.38.96c.02,0,.02.03,0,.03-.29.05-1.58.28-1.51.38s1.04.31,1.34.38c.02,0,.02.03,0,.03-.32.06-1.45.26-1.57.33-.15.08-.06.3.52.59s1.33.33,1.35.4-.11.28-.57.45c0,0-1.14.73,1.18.13.16-.04-1.33.76-.88,1.09.39.29,1.5-.17,1.8-.3.02,0,.03.01.02.03l-.78.88s0,.11.06.1c.56-.1,2.33-.43,2.52-.71,0,0-.74.78-.66.82s1.08.22,2.32-.87c0,0-1.44,1.07-2.93,1.85s-.17-.72-.17-.72c0,0,.33-.28-1.44.71s-.34-.65-.16-.85c0,0,0-.01,0-.01l-1.37.58c-1.84.39.52-1.17.52-1.17"/>
          </g>
          <ellipse class="cls-3" cx="78.85" cy="90.01" rx="2.02" ry=".93" transform="translate(-31.64 44.06) rotate(-26.2)"/>
          <ellipse class="cls-3" cx="79.08" cy="89.94" rx="1.66" ry=".72" transform="translate(-31.58 44.16) rotate(-26.2)"/>
          <path class="cls-3" d="m75.1,86.07c1.55,3.1,1.61,4.1,1.6,4.32,0,.01.02.02.02,0,1.48-2.26,3.38-1.64,3.71-1.51.01,0,.02-.01.01-.02-.32-.34-2.62-2.92-3.43-4.33"/>
          <path class="cls-3" d="m72.9,81.77s-2.48-4.28-3.12-5.04c0,0,.09-1.43,1.41-1.86s1.8-.1,1.8-.1c0,0,1.69,5.46,2.04,5.88"/>
          <line class="cls-3" x1="76.99" y1="90.78" x2="76.82" y2="90.26"/>
          <line class="cls-3" x1="78.49" y1="88.8" x2="76.22" y2="85.12"/>
          <path class="cls-3" d="m74.2,81.05s-1.64-4.16-2.23-6.38"/>
        </g>
        <circle class="cls-3" cx="89.38" cy="88.79" r="48.7"/>
        <text class="cls-1" transform="translate(39.73 109.5) rotate(65.76)"><tspan x="0" y="0">T</tspan></text>
        <text class="cls-1" transform="translate(41.04 112.4) rotate(63.34)"><tspan x="0" y="0">r</tspan></text>
        <text class="cls-1" transform="translate(41.85 114.01) rotate(61.23)"><tspan x="0" y="0">a</tspan></text>
        <text class="cls-1" transform="translate(42.9 115.91) rotate(58.6)"><tspan x="0" y="0">d</tspan></text>
        <text class="cls-1" transform="translate(44.33 118.25) rotate(55.72)"><tspan x="0" y="0">u</tspan></text>
        <text class="cls-1" transform="translate(45.8 120.39) rotate(53.16)"><tspan x="0" y="0">c</tspan></text>
        <text class="cls-1" transform="translate(47.08 122.09) rotate(51.1)"><tspan x="0" y="0">t</tspan></text>
        <text class="cls-1" transform="translate(48.12 123.37) rotate(49.47)"><tspan x="0" y="0">i</tspan></text>
        <text class="cls-1" transform="translate(49.04 124.46) rotate(47.28)"><tspan x="0" y="0">o</tspan></text>
        <text class="cls-1" transform="translate(50.87 126.44) rotate(44.38)"><tspan x="0" y="0">n</tspan></text>
        <text class="cls-1" transform="translate(52.78 128.28) rotate(42.15)"><tspan x="0" y="0"> </tspan></text>
        <text class="cls-1" transform="translate(53.86 129.29) rotate(39.43)"><tspan x="0" y="0">&amp;</tspan></text>
        <text class="cls-1" transform="translate(56.62 131.51) rotate(36.7)"><tspan x="0" y="0"> </tspan></text>
        <text class="cls-1" transform="translate(57.74 132.35) rotate(35.19)"><tspan x="0" y="0">i</tspan></text>
        <text class="cls-1" transform="translate(58.92 133.19) rotate(32.97)"><tspan x="0" y="0">n</tspan></text>
        <text class="cls-1" transform="translate(61.14 134.62) rotate(30.6)"><tspan x="0" y="0">t</tspan></text>
        <text class="cls-1" transform="translate(62.59 135.48) rotate(28.56)"><tspan x="0" y="0">e</tspan></text>
        <text class="cls-1" transform="translate(64.42 136.47) rotate(26.44)"><tspan x="0" y="0">r</tspan></text>
        <text class="cls-1" transform="translate(66.17 137.34) rotate(23.84)"><tspan x="0" y="0">p</tspan></text>
        <text class="cls-1" transform="translate(68.66 138.42) rotate(21.37)"><tspan x="0" y="0">r</tspan></text>
        <text class="cls-1" transform="translate(70.32 139.07) rotate(19.29)"><tspan x="0" y="0">é</tspan></text>
        <text class="cls-1" transform="translate(72.29 139.76) rotate(17.26)"><tspan x="0" y="0">t</tspan></text>
        <text class="cls-1" transform="translate(73.9 140.26) rotate(15.22)"><tspan x="0" y="0">a</tspan></text>
        <text class="cls-1" transform="translate(75.93 140.8) rotate(13.66)"><tspan x="0" y="0">t</tspan></text>
        <text class="cls-1" transform="translate(77.55 141.18) rotate(11.59)"><tspan x="0" y="0">i</tspan></text>
        <text class="cls-1" transform="translate(78.95 141.48) rotate(9.42)"><tspan x="0" y="0">o</tspan></text>
        <text class="cls-1" transform="translate(81.61 141.91) rotate(6.52)"><tspan x="0" y="0">n</tspan></text>
        <text class="cls-1" transform="translate(84.24 142.2) rotate(4.31)"><tspan x="0" y="0"> </tspan></text>
        <text class="cls-1" transform="translate(85.74 142.34) rotate(1.32)"><tspan x="0" y="0">U</tspan></text>
        <text class="cls-1" transform="translate(89.83 142.41) rotate(-2.68)"><tspan x="0" y="0">L</tspan></text>
        <text class="cls-1" transform="translate(92.96 142.24) rotate(-5.17)"><tspan x="0" y="0">i</tspan></text>
        <text class="cls-1" transform="translate(94.37 142.11) rotate(-7.08)"><tspan x="0" y="0">è</tspan></text>
        <text class="cls-1" transform="translate(96.45 141.85) rotate(-9.5)"><tspan x="0" y="0">g</tspan></text>
        <text class="cls-1" transform="translate(98.73 141.47) rotate(-11.87)"><tspan x="0" y="0">e</tspan></text>
      </g>
    </g>
  </g>
</svg>