<svg width="106" height="106" viewBox="0 0 106 106" fill="none" xmlns="http://www.w3.org/2000/svg">
<path d="M53 104C81.1665 104 104 81.1665 104 53C104 24.8335 81.1665 2 53 2C24.8335 2 2 24.8335 2 53C2 81.1665 24.8335 104 53 104Z" fill="#3858E9" stroke="white" stroke-width="3"/>
<path d="M43.5479 31.3636L39.9752 25.5662L8.93604 79.4538L16.0684 79.0564L43.5479 31.3636Z" fill="white"/>
<path d="M96.8481 46.6304H90.3249C90.3249 46.6304 79.7754 21.0085 56.7196 36.0939C53.6654 38.0941 51.2807 41.3038 49.9545 44.7037C48.153 49.3131 47.2372 55.94 50.6025 62.973C56.2746 74.8184 59.7177 79.1211 59.7177 79.1211C59.7177 79.1211 44.5631 74.6629 41.7897 54.9507C39.8803 41.3773 49.665 32.8755 55.9463 28.8968C59.2425 26.8102 63.0095 25.592 66.9062 25.3976C75.395 24.9742 90.5798 27.1602 96.8481 46.6347V46.6304Z" fill="white"/>
<path d="M90.4934 59.9057H96.8481C96.8481 59.9057 93.2668 77.4708 74.3107 80.97H67.7745L54.6331 57.2619L55.1601 47.4209L71.1398 74.2308C71.1398 74.2308 84.7435 75.9459 90.4891 59.9014L90.4934 59.9057Z" fill="white"/>
</svg>
