<svg width="1252" height="121" viewBox="0 0 1252 121" fill="none" xmlns="http://www.w3.org/2000/svg">
<path d="M44.5479 39.3636L40.9752 33.5662L9.93604 87.4538L17.0684 87.0564L44.5479 39.3636Z" fill="white"/>
<path d="M97.848 54.6304H91.3248C91.3248 54.6304 80.7753 29.0085 57.7195 44.0939C54.6653 46.0941 52.2806 49.3038 50.9544 52.7037C49.1529 57.3131 48.2371 63.94 51.6024 70.973C57.2745 82.8184 60.7176 87.1211 60.7176 87.1211C60.7176 87.1211 45.563 82.6629 42.7896 62.9507C40.8802 49.3773 50.6649 40.8755 56.9462 36.8968C60.2424 34.8102 64.0094 33.592 67.9061 33.3976C76.3949 32.9742 91.5797 35.1602 97.848 54.6347V54.6304Z" fill="white"/>
<path d="M91.4934 67.9057H97.8481C97.8481 67.9057 94.2668 85.4708 75.3107 88.97H68.7745L55.6331 65.2619L56.1601 55.4209L72.1398 82.2308C72.1398 82.2308 85.7435 83.9459 91.4891 67.9014L91.4934 67.9057Z" fill="white"/>
<circle cx="54" cy="61" r="51" stroke="white" stroke-width="6"/>
<path d="M168.857 97H152.379L177.486 24.2727H197.301L222.372 97H205.895L187.678 40.892H187.109L168.857 97ZM167.827 68.4134H206.747V80.4162H167.827V68.4134ZM245.969 65.4659V97H230.842V42.4545H245.259V52.0781H245.898C247.106 48.9058 249.13 46.3963 251.971 44.5497C254.812 42.6795 258.256 41.7443 262.305 41.7443C266.093 41.7443 269.395 42.5729 272.212 44.2301C275.03 45.8873 277.219 48.2547 278.782 51.3324C280.344 54.3864 281.126 58.0322 281.126 62.2699V97H265.998V64.9688C266.022 61.6307 265.169 59.0265 263.441 57.1562C261.713 55.2623 259.334 54.3153 256.303 54.3153C254.267 54.3153 252.468 54.7533 250.906 55.6293C249.367 56.5052 248.159 57.7836 247.283 59.4645C246.431 61.1217 245.993 63.1222 245.969 65.4659ZM322.061 42.4545V53.8182H289.213V42.4545H322.061ZM296.671 29.3864H311.799V80.2386C311.799 81.6354 312.012 82.7244 312.438 83.5057C312.864 84.2633 313.456 84.7959 314.213 85.1037C314.995 85.4115 315.894 85.5653 316.912 85.5653C317.623 85.5653 318.333 85.5062 319.043 85.3878C319.753 85.2457 320.298 85.1392 320.676 85.0682L323.056 96.3253C322.298 96.562 321.233 96.8343 319.86 97.142C318.487 97.4735 316.818 97.6747 314.853 97.7457C311.207 97.8878 308.011 97.4025 305.265 96.2898C302.542 95.1771 300.423 93.4489 298.908 91.1051C297.393 88.7614 296.647 85.8021 296.671 82.2273V29.3864ZM348.216 65.4659V97H333.088V24.2727H347.789V52.0781H348.429C349.66 48.8584 351.648 46.3371 354.395 44.5142C357.141 42.6676 360.585 41.7443 364.728 41.7443C368.516 41.7443 371.819 42.5729 374.636 44.2301C377.477 45.8636 379.679 48.2192 381.241 51.2969C382.827 54.3509 383.609 58.0085 383.585 62.2699V97H368.457V64.9688C368.481 61.607 367.628 58.991 365.9 57.1207C364.196 55.2505 361.805 54.3153 358.727 54.3153C356.667 54.3153 354.844 54.7533 353.258 55.6293C351.696 56.5052 350.465 57.7836 349.565 59.4645C348.689 61.1217 348.239 63.1222 348.216 65.4659ZM420.135 98.0653C414.619 98.0653 409.848 96.8935 405.824 94.5497C401.823 92.1823 398.733 88.8916 396.555 84.6776C394.377 80.4399 393.288 75.5275 393.288 69.9403C393.288 64.3059 394.377 59.3816 396.555 55.1676C398.733 50.9299 401.823 47.6392 405.824 45.2955C409.848 42.928 414.619 41.7443 420.135 41.7443C425.651 41.7443 430.41 42.928 434.411 45.2955C438.435 47.6392 441.536 50.9299 443.714 55.1676C445.893 59.3816 446.982 64.3059 446.982 69.9403C446.982 75.5275 445.893 80.4399 443.714 84.6776C441.536 88.8916 438.435 92.1823 434.411 94.5497C430.41 96.8935 425.651 98.0653 420.135 98.0653ZM420.206 86.3466C422.715 86.3466 424.811 85.6364 426.491 84.2159C428.172 82.7718 429.439 80.8068 430.291 78.321C431.167 75.8352 431.605 73.0062 431.605 69.8338C431.605 66.6615 431.167 63.8324 430.291 61.3466C429.439 58.8608 428.172 56.8958 426.491 55.4517C424.811 54.0076 422.715 53.2855 420.206 53.2855C417.673 53.2855 415.542 54.0076 413.814 55.4517C412.109 56.8958 410.819 58.8608 409.943 61.3466C409.091 63.8324 408.665 66.6615 408.665 69.8338C408.665 73.0062 409.091 75.8352 409.943 78.321C410.819 80.8068 412.109 82.7718 413.814 84.2159C415.542 85.6364 417.673 86.3466 420.206 86.3466ZM471.946 65.4659V97H456.818V42.4545H471.236V52.0781H471.875C473.082 48.9058 475.107 46.3963 477.947 44.5497C480.788 42.6795 484.233 41.7443 488.281 41.7443C492.069 41.7443 495.372 42.5729 498.189 44.2301C501.006 45.8873 503.196 48.2547 504.759 51.3324C506.321 54.3864 507.102 58.0322 507.102 62.2699V97H491.974V64.9688C491.998 61.6307 491.146 59.0265 489.418 57.1562C487.689 55.2623 485.31 54.3153 482.28 54.3153C480.244 54.3153 478.445 54.7533 476.882 55.6293C475.343 56.5052 474.136 57.7836 473.26 59.4645C472.408 61.1217 471.97 63.1222 471.946 65.4659ZM526.412 117.455C524.494 117.455 522.695 117.301 521.014 116.993C519.357 116.709 517.984 116.342 516.895 115.892L520.304 104.599C522.079 105.144 523.677 105.44 525.098 105.487C526.542 105.535 527.785 105.203 528.826 104.493C529.892 103.783 530.756 102.575 531.419 100.871L532.306 98.5625L512.74 42.4545H528.649L539.941 82.5114H540.51L551.909 42.4545H567.924L546.724 102.895C545.706 105.83 544.321 108.387 542.569 110.565C540.841 112.767 538.651 114.46 536 115.643C533.348 116.851 530.152 117.455 526.412 117.455ZM640.119 49.7344H624.565C624.281 47.7221 623.701 45.9347 622.825 44.3722C621.949 42.786 620.824 41.4366 619.451 40.3239C618.078 39.2112 616.492 38.3589 614.693 37.767C612.917 37.1752 610.988 36.8793 608.904 36.8793C605.14 36.8793 601.861 37.8144 599.068 39.6847C596.274 41.5312 594.108 44.2301 592.569 47.7812C591.03 51.3087 590.261 55.5937 590.261 60.6364C590.261 65.821 591.03 70.1771 592.569 73.7045C594.132 77.232 596.31 79.8954 599.103 81.6946C601.897 83.4938 605.128 84.3935 608.798 84.3935C610.858 84.3935 612.763 84.1212 614.515 83.5767C616.291 83.0322 617.865 82.2391 619.238 81.1974C620.611 80.1321 621.748 78.8419 622.647 77.3267C623.571 75.8116 624.21 74.0833 624.565 72.142L640.119 72.2131C639.717 75.5511 638.71 78.7708 637.1 81.8722C635.514 84.9498 633.372 87.7079 630.673 90.1463C627.998 92.5611 624.802 94.4787 621.085 95.8991C617.392 97.2959 613.213 97.9943 608.549 97.9943C602.063 97.9943 596.262 96.5265 591.149 93.5909C586.059 90.6553 582.034 86.4058 579.075 80.8423C576.139 75.2789 574.672 68.5436 574.672 60.6364C574.672 52.7055 576.163 45.9583 579.146 40.3949C582.129 34.8314 586.177 30.5937 591.291 27.6818C596.404 24.7462 602.157 23.2784 608.549 23.2784C612.763 23.2784 616.67 23.8703 620.268 25.054C623.89 26.2377 627.098 27.9659 629.892 30.2386C632.685 32.4877 634.958 35.2457 636.71 38.5128C638.485 41.7798 639.622 45.5204 640.119 49.7344ZM675.506 98.0653C669.99 98.0653 665.22 96.8935 661.195 94.5497C657.194 92.1823 654.105 88.8916 651.926 84.6776C649.748 80.4399 648.659 75.5275 648.659 69.9403C648.659 64.3059 649.748 59.3816 651.926 55.1676C654.105 50.9299 657.194 47.6392 661.195 45.2955C665.22 42.928 669.99 41.7443 675.506 41.7443C681.022 41.7443 685.781 42.928 689.782 45.2955C693.806 47.6392 696.908 50.9299 699.086 55.1676C701.264 59.3816 702.353 64.3059 702.353 69.9403C702.353 75.5275 701.264 80.4399 699.086 84.6776C696.908 88.8916 693.806 92.1823 689.782 94.5497C685.781 96.8935 681.022 98.0653 675.506 98.0653ZM675.577 86.3466C678.087 86.3466 680.182 85.6364 681.863 84.2159C683.543 82.7718 684.81 80.8068 685.662 78.321C686.538 75.8352 686.976 73.0062 686.976 69.8338C686.976 66.6615 686.538 63.8324 685.662 61.3466C684.81 58.8608 683.543 56.8958 681.863 55.4517C680.182 54.0076 678.087 53.2855 675.577 53.2855C673.044 53.2855 670.913 54.0076 669.185 55.4517C667.48 56.8958 666.19 58.8608 665.314 61.3466C664.462 63.8324 664.036 66.6615 664.036 69.8338C664.036 73.0062 664.462 75.8352 665.314 78.321C666.19 80.8068 667.48 82.7718 669.185 84.2159C670.913 85.6364 673.044 86.3466 675.577 86.3466ZM712.189 117.455V42.4545H727.104V51.6165H727.779C728.442 50.1487 729.4 48.6572 730.655 47.142C731.934 45.6032 733.591 44.3248 735.627 43.3068C737.686 42.2652 740.243 41.7443 743.297 41.7443C747.275 41.7443 750.944 42.786 754.306 44.8693C757.667 46.929 760.355 50.0421 762.367 54.2088C764.379 58.3518 765.385 63.5483 765.385 69.7983C765.385 75.8826 764.403 81.0199 762.438 85.2102C760.497 89.3769 757.845 92.5374 754.483 94.6918C751.145 96.8224 747.405 97.8878 743.262 97.8878C740.326 97.8878 737.828 97.4025 735.769 96.4318C733.733 95.4612 732.064 94.242 730.762 92.7741C729.46 91.2827 728.465 89.7794 727.779 88.2642H727.317V117.455H712.189ZM726.998 69.7273C726.998 72.9706 727.447 75.7997 728.347 78.2145C729.247 80.6293 730.549 82.5114 732.253 83.8608C733.958 85.1866 736.029 85.8494 738.468 85.8494C740.93 85.8494 743.013 85.1747 744.718 83.8253C746.422 82.4522 747.712 80.5582 748.588 78.1435C749.488 75.705 749.938 72.8996 749.938 69.7273C749.938 66.5786 749.5 63.8087 748.624 61.4176C747.748 59.0265 746.458 57.1562 744.753 55.8068C743.049 54.4574 740.953 53.7827 738.468 53.7827C736.006 53.7827 733.922 54.4337 732.218 55.7358C730.537 57.0379 729.247 58.8845 728.347 61.2756C727.447 63.6667 726.998 66.4839 726.998 69.7273ZM775.471 117.455V42.4545H790.385V51.6165H791.06C791.723 50.1487 792.682 48.6572 793.936 47.142C795.215 45.6032 796.872 44.3248 798.908 43.3068C800.968 42.2652 803.525 41.7443 806.578 41.7443C810.556 41.7443 814.225 42.786 817.587 44.8693C820.949 46.929 823.636 50.0421 825.648 54.2088C827.66 58.3518 828.667 63.5483 828.667 69.7983C828.667 75.8826 827.684 81.0199 825.719 85.2102C823.778 89.3769 821.126 92.5374 817.765 94.6918C814.426 96.8224 810.686 97.8878 806.543 97.8878C803.607 97.8878 801.11 97.4025 799.05 96.4318C797.014 95.4612 795.345 94.242 794.043 92.7741C792.741 91.2827 791.747 89.7794 791.06 88.2642H790.598V117.455H775.471ZM790.279 69.7273C790.279 72.9706 790.729 75.7997 791.628 78.2145C792.528 80.6293 793.83 82.5114 795.534 83.8608C797.239 85.1866 799.31 85.8494 801.749 85.8494C804.211 85.8494 806.294 85.1747 807.999 83.8253C809.703 82.4522 810.994 80.5582 811.87 78.1435C812.769 75.705 813.219 72.8996 813.219 69.7273C813.219 66.5786 812.781 63.8087 811.905 61.4176C811.029 59.0265 809.739 57.1562 808.034 55.8068C806.33 54.4574 804.235 53.7827 801.749 53.7827C799.287 53.7827 797.203 54.4337 795.499 55.7358C793.818 57.0379 792.528 58.8845 791.628 61.2756C790.729 63.6667 790.279 66.4839 790.279 69.7273ZM863.61 98.0653C857.999 98.0653 853.169 96.929 849.121 94.6562C845.096 92.3598 841.995 89.1165 839.817 84.9261C837.639 80.7121 836.55 75.7287 836.55 69.9759C836.55 64.3651 837.639 59.4408 839.817 55.2031C841.995 50.9654 845.061 47.6629 849.015 45.2955C852.992 42.928 857.656 41.7443 863.006 41.7443C866.605 41.7443 869.954 42.3243 873.056 43.4844C876.181 44.6207 878.903 46.3371 881.223 48.6335C883.567 50.9299 885.39 53.8182 886.692 57.2983C887.994 60.7547 888.645 64.803 888.645 69.4432V73.598H842.587V64.223H874.405C874.405 62.045 873.932 60.1155 872.985 58.4347C872.038 56.7538 870.724 55.4399 869.043 54.4929C867.386 53.5223 865.456 53.0369 863.255 53.0369C860.958 53.0369 858.922 53.5696 857.147 54.6349C855.395 55.6766 854.022 57.0852 853.027 58.8608C852.033 60.6127 851.524 62.5658 851.5 64.7202V73.6335C851.5 76.3324 851.998 78.6643 852.992 80.6293C854.01 82.5942 855.442 84.1094 857.289 85.1747C859.135 86.2401 861.325 86.7727 863.858 86.7727C865.539 86.7727 867.078 86.536 868.475 86.0625C869.872 85.589 871.067 84.8788 872.061 83.9318C873.056 82.9848 873.813 81.8248 874.334 80.4517L888.326 81.375C887.615 84.7367 886.159 87.6723 883.958 90.1818C881.78 92.6676 878.962 94.6089 875.506 96.0057C872.073 97.3788 868.108 98.0653 863.61 98.0653ZM913.645 65.4659V97H898.517V42.4545H912.935V52.0781H913.574C914.782 48.9058 916.806 46.3963 919.647 44.5497C922.488 42.6795 925.932 41.7443 929.98 41.7443C933.768 41.7443 937.071 42.5729 939.888 44.2301C942.705 45.8873 944.895 48.2547 946.458 51.3324C948.02 54.3864 948.801 58.0322 948.801 62.2699V97H933.674V64.9688C933.697 61.6307 932.845 59.0265 931.117 57.1562C929.389 55.2623 927.009 54.3153 923.979 54.3153C921.943 54.3153 920.144 54.7533 918.581 55.6293C917.042 56.5052 915.835 57.7836 914.959 59.4645C914.107 61.1217 913.669 63.1222 913.645 65.4659ZM1006.11 58.0085L992.259 58.8608C992.022 57.6771 991.513 56.6117 990.732 55.6648C989.95 54.6941 988.92 53.9247 987.642 53.3565C986.387 52.7647 984.884 52.4688 983.132 52.4688C980.788 52.4688 978.812 52.9659 977.202 53.9602C975.592 54.9309 974.787 56.233 974.787 57.8665C974.787 59.1686 975.308 60.2694 976.349 61.169C977.391 62.0687 979.179 62.7907 981.712 63.3352L991.584 65.3239C996.887 66.4129 1000.84 68.1648 1003.44 70.5795C1006.05 72.9943 1007.35 76.1667 1007.35 80.0966C1007.35 83.6714 1006.3 86.8082 1004.19 89.5071C1002.11 92.206 999.242 94.313 995.597 95.8281C991.974 97.3196 987.796 98.0653 983.061 98.0653C975.84 98.0653 970.088 96.562 965.803 93.5554C961.541 90.5251 959.044 86.4058 958.31 81.1974L973.189 80.4162C973.639 82.6179 974.728 84.2988 976.456 85.4588C978.184 86.5952 980.398 87.1634 983.097 87.1634C985.748 87.1634 987.879 86.6544 989.489 85.6364C991.122 84.5947 991.951 83.2571 991.974 81.6236C991.951 80.2505 991.371 79.1259 990.234 78.25C989.098 77.3504 987.346 76.6638 984.979 76.1903L975.533 74.3082C970.206 73.2429 966.241 71.3963 963.636 68.7685C961.056 66.1406 959.766 62.7907 959.766 58.7188C959.766 55.215 960.713 52.1965 962.607 49.6634C964.524 47.1302 967.211 45.1771 970.668 43.804C974.148 42.4309 978.22 41.7443 982.884 41.7443C989.773 41.7443 995.194 43.2003 999.148 46.1122C1003.13 49.0241 1005.45 52.9896 1006.11 58.0085ZM1025.72 97.9233C1023.38 97.9233 1021.36 97.0947 1019.68 95.4375C1018.02 93.7566 1017.2 91.7443 1017.2 89.4006C1017.2 87.0805 1018.02 85.0919 1019.68 83.4347C1021.36 81.7775 1023.38 80.9489 1025.72 80.9489C1027.99 80.9489 1029.98 81.7775 1031.69 83.4347C1033.39 85.0919 1034.24 87.0805 1034.24 89.4006C1034.24 90.9631 1033.84 92.3954 1033.03 93.6974C1032.25 94.9759 1031.22 96.0057 1029.94 96.7869C1028.67 97.5445 1027.26 97.9233 1025.72 97.9233ZM1071.31 98.0653C1065.72 98.0653 1060.91 96.8816 1056.89 94.5142C1052.89 92.1231 1049.81 88.8087 1047.66 84.571C1045.53 80.3333 1044.46 75.4564 1044.46 69.9403C1044.46 64.3532 1045.54 59.4527 1047.69 55.2386C1049.87 51.0009 1052.96 47.6984 1056.96 45.331C1060.96 42.9399 1065.72 41.7443 1071.24 41.7443C1075.99 41.7443 1080.16 42.6084 1083.74 44.3366C1087.31 46.0649 1090.14 48.4915 1092.22 51.6165C1094.31 54.7415 1095.45 58.411 1095.67 62.625H1081.39C1080.99 59.9025 1079.92 57.7126 1078.2 56.0554C1076.49 54.3745 1074.25 53.5341 1071.48 53.5341C1069.14 53.5341 1067.09 54.1733 1065.34 55.4517C1063.61 56.7064 1062.26 58.5412 1061.29 60.956C1060.32 63.3707 1059.84 66.2945 1059.84 69.7273C1059.84 73.2074 1060.31 76.1667 1061.26 78.6051C1062.23 81.0436 1063.59 82.902 1065.34 84.1804C1067.09 85.4588 1069.14 86.098 1071.48 86.098C1073.21 86.098 1074.76 85.7429 1076.14 85.0327C1077.53 84.3224 1078.68 83.2926 1079.58 81.9432C1080.5 80.5701 1081.11 78.9247 1081.39 77.0071H1095.67C1095.43 81.1738 1094.29 84.8433 1092.26 88.0156C1090.25 91.1643 1087.46 93.6264 1083.91 95.402C1080.36 97.1776 1076.16 98.0653 1071.31 98.0653ZM1130 98.0653C1124.48 98.0653 1119.71 96.8935 1115.69 94.5497C1111.69 92.1823 1108.6 88.8916 1106.42 84.6776C1104.24 80.4399 1103.15 75.5275 1103.15 69.9403C1103.15 64.3059 1104.24 59.3816 1106.42 55.1676C1108.6 50.9299 1111.69 47.6392 1115.69 45.2955C1119.71 42.928 1124.48 41.7443 1130 41.7443C1135.51 41.7443 1140.27 42.928 1144.27 45.2955C1148.3 47.6392 1151.4 50.9299 1153.58 55.1676C1155.76 59.3816 1156.84 64.3059 1156.84 69.9403C1156.84 75.5275 1155.76 80.4399 1153.58 84.6776C1151.4 88.8916 1148.3 92.1823 1144.27 94.5497C1140.27 96.8935 1135.51 98.0653 1130 98.0653ZM1130.07 86.3466C1132.58 86.3466 1134.67 85.6364 1136.35 84.2159C1138.04 82.7718 1139.3 80.8068 1140.15 78.321C1141.03 75.8352 1141.47 73.0062 1141.47 69.8338C1141.47 66.6615 1141.03 63.8324 1140.15 61.3466C1139.3 58.8608 1138.04 56.8958 1136.35 55.4517C1134.67 54.0076 1132.58 53.2855 1130.07 53.2855C1127.54 53.2855 1125.41 54.0076 1123.68 55.4517C1121.97 56.8958 1120.68 58.8608 1119.81 61.3466C1118.95 63.8324 1118.53 66.6615 1118.53 69.8338C1118.53 73.0062 1118.95 75.8352 1119.81 78.321C1120.68 80.8068 1121.97 82.7718 1123.68 84.2159C1125.41 85.6364 1127.54 86.3466 1130.07 86.3466ZM1166.68 97V42.4545H1181.1V52.0781H1181.74C1182.87 48.8821 1184.77 46.3608 1187.42 44.5142C1190.07 42.6676 1193.24 41.7443 1196.94 41.7443C1200.68 41.7443 1203.86 42.6795 1206.49 44.5497C1209.12 46.3963 1210.87 48.9058 1211.75 52.0781H1212.31C1213.43 48.9531 1215.44 46.4555 1218.35 44.5852C1221.29 42.6913 1224.75 41.7443 1228.76 41.7443C1233.85 41.7443 1237.98 43.366 1241.15 46.6094C1244.34 49.8291 1245.94 54.3982 1245.94 60.3168V97H1230.85V63.2997C1230.85 60.2694 1230.05 57.9967 1228.44 56.4815C1226.83 54.9664 1224.81 54.2088 1222.4 54.2088C1219.65 54.2088 1217.51 55.0848 1215.97 56.8366C1214.43 58.5649 1213.66 60.8494 1213.66 63.6903V97H1199V62.9801C1199 60.3049 1198.23 58.1742 1196.69 56.5881C1195.17 55.0019 1193.17 54.2088 1190.69 54.2088C1189.01 54.2088 1187.49 54.6349 1186.14 55.4872C1184.82 56.3158 1183.76 57.4877 1182.98 59.0028C1182.2 60.4943 1181.81 62.2462 1181.81 64.2585V97H1166.68Z" fill="white"/>
</svg>
