<svg width="1175" height="700" viewBox="0 0 1175 700" fill="none" xmlns="http://www.w3.org/2000/svg">
<path d="M816.233 284.091H835.154L879.642 392.756H881.176L925.665 284.091H944.585V415H929.756V315.54H928.477L887.568 415H873.25L832.341 315.54H831.063V415H816.233V284.091ZM974.324 415V316.818H989.41V415H974.324ZM981.995 300.455C979.055 300.455 976.519 299.453 974.388 297.45C972.3 295.447 971.256 293.04 971.256 290.227C971.256 287.415 972.3 285.007 974.388 283.004C976.519 281.001 979.055 280 981.995 280C984.935 280 987.449 281.001 989.537 283.004C991.668 285.007 992.733 287.415 992.733 290.227C992.733 293.04 991.668 295.447 989.537 297.45C987.449 299.453 984.935 300.455 981.995 300.455ZM1017.04 415V316.818H1031.61V331.648H1032.64C1034.43 326.79 1037.66 322.848 1042.35 319.822C1047.04 316.797 1052.32 315.284 1058.2 315.284C1059.31 315.284 1060.7 315.305 1062.36 315.348C1064.02 315.391 1065.28 315.455 1066.13 315.54V330.881C1065.62 330.753 1064.45 330.561 1062.61 330.305C1060.82 330.007 1058.93 329.858 1056.93 329.858C1052.15 329.858 1047.89 330.859 1044.14 332.862C1040.43 334.822 1037.49 337.55 1035.32 341.044C1033.19 344.496 1032.12 348.437 1032.12 352.869V415H1017.04ZM1120.91 417.045C1112.05 417.045 1104.27 414.936 1097.58 410.717C1090.93 406.499 1085.73 400.597 1081.98 393.011C1078.28 385.426 1076.42 376.562 1076.42 366.42C1076.42 356.193 1078.28 347.266 1081.98 339.638C1085.73 332.01 1090.93 326.087 1097.58 321.868C1104.27 317.649 1112.05 315.54 1120.91 315.54C1129.77 315.54 1137.53 317.649 1144.18 321.868C1150.87 326.087 1156.07 332.01 1159.77 339.638C1163.52 347.266 1165.4 356.193 1165.4 366.42C1165.4 376.562 1163.52 385.426 1159.77 393.011C1156.07 400.597 1150.87 406.499 1144.18 410.717C1137.53 414.936 1129.77 417.045 1120.91 417.045ZM1120.91 403.494C1127.64 403.494 1133.18 401.768 1137.53 398.317C1141.88 394.865 1145.09 390.327 1147.18 384.702C1149.27 379.077 1150.31 372.983 1150.31 366.42C1150.31 359.858 1149.27 353.743 1147.18 348.075C1145.09 342.408 1141.88 337.827 1137.53 334.332C1133.18 330.838 1127.64 329.091 1120.91 329.091C1114.18 329.091 1108.64 330.838 1104.29 334.332C1099.94 337.827 1096.73 342.408 1094.64 348.075C1092.55 353.743 1091.51 359.858 1091.51 366.42C1091.51 372.983 1092.55 379.077 1094.64 384.702C1096.73 390.327 1099.94 394.865 1104.29 398.317C1108.64 401.768 1114.18 403.494 1120.91 403.494Z" fill="#6B7077"/>
<path d="M507.238 0H405.435L495.833 140.224L304.614 0H202.671L293.162 183.741L101.943 0H0L88.949 237.166L0 700H101.943L293.116 203.746L202.671 700H304.567L495.833 160.23L405.389 700H507.238L700 107.131L507.238 0Z" fill="#6B7077"/>
</svg>
