<svg width="1718" height="700" viewBox="0 0 1718 700" fill="none" xmlns="http://www.w3.org/2000/svg">
<g clip-path="url(#clip0_76_9)">
<path d="M549.554 700H150.446C67.3481 700 0 632.652 0 549.554V150.446C0 67.3481 67.3481 0 150.446 0H549.567C632.652 0 700 67.3481 700 150.446V549.567C700 632.652 632.652 700 549.554 700Z" fill="#6B7077"/>
<path d="M163.692 525H124.923V148.077H254.692C289.867 148.077 315.983 159.021 333.038 180.923C350.081 202.812 358.615 231.538 358.615 267.063C358.615 279.637 358.252 290.487 357.538 299.64C356.812 308.808 354.577 320.29 350.808 334.115C347.038 347.927 341.923 359.235 335.462 368.038C329 376.842 319.133 384.556 305.846 391.192C292.56 397.842 276.769 401.154 258.462 401.154H163.692V525ZM163.692 363.462H253.615C266.538 363.462 277.483 360.944 286.462 355.923C295.427 350.888 301.983 345.517 306.115 339.769C310.235 334.021 313.465 325.769 315.808 315C318.137 304.217 319.402 296.154 319.577 290.756C319.752 285.385 319.846 277.658 319.846 267.602C319.846 213.042 297.042 185.756 251.462 185.756H163.692V363.462Z" fill="#F6F7F7"/>
<path d="M396.846 456.615L434.538 455C435.965 468.287 442.615 478.612 454.462 485.962C466.308 493.325 479.944 497 495.385 497C510.825 497 524.192 493.5 535.5 486.5C546.808 479.5 552.462 469.458 552.462 456.36C552.462 443.262 547.615 432.842 537.923 425.129C528.231 417.415 516.385 411.317 502.385 406.821C488.385 402.339 474.304 397.587 460.115 392.552C445.927 387.531 433.462 379.629 422.692 368.86C409.406 356.287 402.769 340.954 402.769 322.821C402.769 304.688 410.039 287.808 424.577 272.192C439.115 256.577 462.713 248.783 495.385 248.783C506.881 248.783 517.637 250.129 527.692 252.821C537.735 255.513 544.923 258.125 549.231 260.629L555.692 264.385L543.308 298.321C531.812 289.356 516.735 284.86 498.077 284.86C479.406 284.86 465.5 288.36 456.346 295.36C447.192 302.36 442.615 311.244 442.615 322C442.615 333.846 448.35 343.188 459.846 350C471.329 356.825 484.252 362.573 498.615 367.231C512.965 371.902 527.235 377.098 541.423 382.846C555.598 388.594 567.619 397.573 577.5 409.769C587.381 421.965 592.308 438.119 592.308 458.231C592.308 478.342 584.231 495.842 568.077 510.731C551.923 525.619 528.312 533.077 497.269 533.077C466.213 533.077 441.888 525.714 424.308 511C406.714 496.287 397.56 478.154 396.846 456.615Z" fill="#F6F7F7"/>
</g>
<path d="M1001.52 306H984.901L1032.97 175.091H1049.33L1097.4 306H1080.78L1041.66 195.801H1040.64L1001.52 306ZM1007.66 254.864H1074.65V268.926H1007.66V254.864ZM1152.82 308.045C1144.64 308.045 1137.42 305.979 1131.15 301.845C1124.89 297.669 1119.99 291.788 1116.45 284.203C1112.91 276.575 1111.14 267.562 1111.14 257.165C1111.14 246.852 1112.91 237.903 1116.45 230.318C1119.99 222.733 1124.91 216.874 1131.22 212.74C1137.52 208.607 1144.81 206.54 1153.08 206.54C1159.47 206.54 1164.52 207.605 1168.22 209.736C1171.97 211.824 1174.83 214.21 1176.79 216.895C1178.79 219.537 1180.35 221.71 1181.46 223.415H1182.73V175.091H1197.82V306H1183.25V290.915H1181.46C1180.35 292.705 1178.77 294.963 1176.73 297.69C1174.68 300.375 1171.76 302.783 1167.97 304.913C1164.18 307.001 1159.13 308.045 1152.82 308.045ZM1154.87 294.494C1160.92 294.494 1166.03 292.918 1170.21 289.764C1174.38 286.568 1177.56 282.158 1179.73 276.533C1181.9 270.865 1182.99 264.324 1182.99 256.909C1182.99 249.58 1181.93 243.166 1179.79 237.669C1177.66 232.129 1174.51 227.825 1170.33 224.757C1166.16 221.646 1161 220.091 1154.87 220.091C1148.47 220.091 1143.15 221.732 1138.89 225.013C1134.67 228.251 1131.49 232.662 1129.36 238.244C1127.27 243.784 1126.23 250.006 1126.23 256.909C1126.23 263.898 1127.29 270.247 1129.43 275.957C1131.6 281.625 1134.79 286.142 1139.01 289.509C1143.27 292.832 1148.56 294.494 1154.87 294.494ZM1267.43 308.045C1258.57 308.045 1250.79 305.936 1244.1 301.717C1237.45 297.499 1232.25 291.597 1228.5 284.011C1224.79 276.426 1222.94 267.562 1222.94 257.42C1222.94 247.193 1224.79 238.266 1228.5 230.638C1232.25 223.01 1237.45 217.087 1244.1 212.868C1250.79 208.649 1258.57 206.54 1267.43 206.54C1276.29 206.54 1284.05 208.649 1290.7 212.868C1297.39 217.087 1302.59 223.01 1306.29 230.638C1310.04 238.266 1311.92 247.193 1311.92 257.42C1311.92 267.562 1310.04 276.426 1306.29 284.011C1302.59 291.597 1297.39 297.499 1290.7 301.717C1284.05 305.936 1276.29 308.045 1267.43 308.045ZM1267.43 294.494C1274.16 294.494 1279.7 292.768 1284.05 289.317C1288.4 285.865 1291.61 281.327 1293.7 275.702C1295.79 270.077 1296.83 263.983 1296.83 257.42C1296.83 250.858 1295.79 244.743 1293.7 239.075C1291.61 233.408 1288.4 228.827 1284.05 225.332C1279.7 221.838 1274.16 220.091 1267.43 220.091C1260.7 220.091 1255.16 221.838 1250.81 225.332C1246.46 228.827 1243.25 233.408 1241.16 239.075C1239.07 244.743 1238.03 250.858 1238.03 257.42C1238.03 263.983 1239.07 270.077 1241.16 275.702C1243.25 281.327 1246.46 285.865 1250.81 289.317C1255.16 292.768 1260.7 294.494 1267.43 294.494ZM1336.99 306V175.091H1352.08V223.415H1353.35C1354.46 221.71 1356 219.537 1357.96 216.895C1359.96 214.21 1362.81 211.824 1366.52 209.736C1370.27 207.605 1375.34 206.54 1381.74 206.54C1390 206.54 1397.29 208.607 1403.6 212.74C1409.9 216.874 1414.82 222.733 1418.36 230.318C1421.9 237.903 1423.67 246.852 1423.67 257.165C1423.67 267.562 1421.9 276.575 1418.36 284.203C1414.82 291.788 1409.92 297.669 1403.66 301.845C1397.4 305.979 1390.17 308.045 1381.99 308.045C1375.68 308.045 1370.63 307.001 1366.84 304.913C1363.05 302.783 1360.13 300.375 1358.08 297.69C1356.04 294.963 1354.46 292.705 1353.35 290.915H1351.56V306H1336.99ZM1351.82 256.909C1351.82 264.324 1352.91 270.865 1355.08 276.533C1357.25 282.158 1360.43 286.568 1364.6 289.764C1368.78 292.918 1373.89 294.494 1379.95 294.494C1386.25 294.494 1391.52 292.832 1395.73 289.509C1400 286.142 1403.19 281.625 1405.32 275.957C1407.5 270.247 1408.58 263.898 1408.58 256.909C1408.58 250.006 1407.52 243.784 1405.39 238.244C1403.3 232.662 1400.12 228.251 1395.86 225.013C1391.64 221.732 1386.34 220.091 1379.95 220.091C1373.81 220.091 1368.65 221.646 1364.48 224.757C1360.3 227.825 1357.15 232.129 1355.02 237.669C1352.89 243.166 1351.82 249.58 1351.82 256.909ZM1487.91 308.045C1478.45 308.045 1470.29 305.957 1463.43 301.781C1456.61 297.562 1451.34 291.682 1447.64 284.139C1443.97 276.554 1442.14 267.733 1442.14 257.676C1442.14 247.619 1443.97 238.756 1447.64 231.085C1451.34 223.372 1456.5 217.364 1463.11 213.06C1469.75 208.713 1477.51 206.54 1486.37 206.54C1491.49 206.54 1496.54 207.392 1501.52 209.097C1506.51 210.801 1511.05 213.571 1515.14 217.406C1519.23 221.199 1522.49 226.227 1524.92 232.491C1527.35 238.756 1528.56 246.469 1528.56 255.631V262.023H1452.88V248.983H1513.22C1513.22 243.443 1512.11 238.5 1509.9 234.153C1507.72 229.807 1504.61 226.376 1500.56 223.862C1496.56 221.348 1491.83 220.091 1486.37 220.091C1480.36 220.091 1475.17 221.582 1470.78 224.565C1466.43 227.506 1463.08 231.341 1460.74 236.071C1458.4 240.801 1457.23 245.872 1457.23 251.284V259.977C1457.23 267.392 1458.5 273.678 1461.06 278.834C1463.66 283.947 1467.26 287.847 1471.86 290.531C1476.47 293.173 1481.81 294.494 1487.91 294.494C1491.87 294.494 1495.45 293.94 1498.65 292.832C1501.88 291.682 1504.68 289.977 1507.02 287.719C1509.36 285.418 1511.17 282.562 1512.45 279.153L1527.03 283.244C1525.49 288.188 1522.91 292.534 1519.29 296.284C1515.67 299.991 1511.2 302.889 1505.87 304.977C1500.54 307.023 1494.55 308.045 1487.91 308.045ZM816.239 524V393.091H860.472C870.742 393.091 879.137 394.945 885.657 398.652C892.219 402.317 897.077 407.281 900.23 413.545C903.384 419.81 904.961 426.798 904.961 434.511C904.961 442.224 903.384 449.234 900.23 455.541C897.12 461.848 892.304 466.876 885.784 470.626C879.265 474.334 870.912 476.188 860.728 476.188H829.023V462.125H860.216C867.248 462.125 872.894 460.911 877.155 458.482C881.417 456.053 884.506 452.771 886.424 448.638C888.384 444.462 889.364 439.753 889.364 434.511C889.364 429.27 888.384 424.582 886.424 420.449C884.506 416.315 881.395 413.077 877.091 410.733C872.787 408.347 867.077 407.153 859.961 407.153H832.091V524H816.239ZM943.537 464.938V524H928.451V393.091H943.537V441.159H944.815C947.116 436.088 950.568 432.061 955.17 429.078C959.815 426.053 965.994 424.54 973.707 424.54C980.397 424.54 986.257 425.882 991.285 428.567C996.314 431.209 1000.21 435.278 1002.98 440.776C1005.8 446.23 1007.2 453.176 1007.2 461.614V524H992.116V462.636C992.116 454.838 990.092 448.808 986.044 444.547C982.038 440.243 976.477 438.091 969.36 438.091C964.417 438.091 959.985 439.135 956.065 441.223C952.187 443.311 949.119 446.358 946.86 450.364C944.645 454.369 943.537 459.227 943.537 464.938ZM1074.69 526.045C1065.82 526.045 1058.04 523.936 1051.35 519.717C1044.71 515.499 1039.51 509.597 1035.76 502.011C1032.05 494.426 1030.2 485.562 1030.2 475.42C1030.2 465.193 1032.05 456.266 1035.76 448.638C1039.51 441.01 1044.71 435.087 1051.35 430.868C1058.04 426.649 1065.82 424.54 1074.69 424.54C1083.55 424.54 1091.3 426.649 1097.95 430.868C1104.64 435.087 1109.84 441.01 1113.55 448.638C1117.3 456.266 1119.17 465.193 1119.17 475.42C1119.17 485.562 1117.3 494.426 1113.55 502.011C1109.84 509.597 1104.64 515.499 1097.95 519.717C1091.3 523.936 1083.55 526.045 1074.69 526.045ZM1074.69 512.494C1081.42 512.494 1086.96 510.768 1091.3 507.317C1095.65 503.865 1098.87 499.327 1100.96 493.702C1103.04 488.077 1104.09 481.983 1104.09 475.42C1104.09 468.858 1103.04 462.743 1100.96 457.075C1098.87 451.408 1095.65 446.827 1091.3 443.332C1086.96 439.838 1081.42 438.091 1074.69 438.091C1067.95 438.091 1062.41 439.838 1058.07 443.332C1053.72 446.827 1050.5 451.408 1048.41 457.075C1046.33 462.743 1045.28 468.858 1045.28 475.42C1045.28 481.983 1046.33 488.077 1048.41 493.702C1050.5 499.327 1053.72 503.865 1058.07 507.317C1062.41 510.768 1067.95 512.494 1074.69 512.494ZM1184.9 425.818V438.602H1134.02V425.818H1184.9ZM1148.85 402.295H1163.93V495.875C1163.93 500.136 1164.55 503.332 1165.79 505.463C1167.07 507.551 1168.69 508.957 1170.65 509.682C1172.65 510.364 1174.76 510.705 1176.97 510.705C1178.64 510.705 1180 510.619 1181.06 510.449C1182.13 510.236 1182.98 510.065 1183.62 509.938L1186.69 523.489C1185.67 523.872 1184.24 524.256 1182.41 524.639C1180.57 525.065 1178.25 525.278 1175.44 525.278C1171.18 525.278 1167 524.362 1162.91 522.53C1158.86 520.697 1155.5 517.906 1152.81 514.156C1150.17 510.406 1148.85 505.676 1148.85 499.966V402.295ZM1246.42 526.045C1237.56 526.045 1229.78 523.936 1223.09 519.717C1216.44 515.499 1211.25 509.597 1207.5 502.011C1203.79 494.426 1201.94 485.562 1201.94 475.42C1201.94 465.193 1203.79 456.266 1207.5 448.638C1211.25 441.01 1216.44 435.087 1223.09 430.868C1229.78 426.649 1237.56 424.54 1246.42 424.54C1255.29 424.54 1263.04 426.649 1269.69 430.868C1276.38 435.087 1281.58 441.01 1285.29 448.638C1289.04 456.266 1290.91 465.193 1290.91 475.42C1290.91 485.562 1289.04 494.426 1285.29 502.011C1281.58 509.597 1276.38 515.499 1269.69 519.717C1263.04 523.936 1255.29 526.045 1246.42 526.045ZM1246.42 512.494C1253.16 512.494 1258.7 510.768 1263.04 507.317C1267.39 503.865 1270.61 499.327 1272.69 493.702C1274.78 488.077 1275.83 481.983 1275.83 475.42C1275.83 468.858 1274.78 462.743 1272.69 457.075C1270.61 451.408 1267.39 446.827 1263.04 443.332C1258.7 439.838 1253.16 438.091 1246.42 438.091C1239.69 438.091 1234.15 439.838 1229.8 443.332C1225.46 446.827 1222.24 451.408 1220.15 457.075C1218.06 462.743 1217.02 468.858 1217.02 475.42C1217.02 481.983 1218.06 488.077 1220.15 493.702C1222.24 499.327 1225.46 503.865 1229.8 507.317C1234.15 510.768 1239.69 512.494 1246.42 512.494ZM1383.49 447.807L1369.93 451.642C1369.08 449.384 1367.82 447.189 1366.16 445.058C1364.54 442.885 1362.33 441.095 1359.51 439.689C1356.7 438.283 1353.1 437.58 1348.71 437.58C1342.7 437.58 1337.7 438.964 1333.69 441.734C1329.73 444.462 1327.75 447.935 1327.75 452.153C1327.75 455.903 1329.11 458.865 1331.84 461.038C1334.56 463.212 1338.83 465.023 1344.62 466.472L1359.2 470.051C1367.97 472.182 1374.51 475.442 1378.82 479.831C1383.12 484.178 1385.27 489.781 1385.27 496.642C1385.27 502.267 1383.66 507.295 1380.42 511.727C1377.22 516.159 1372.75 519.653 1366.99 522.21C1361.24 524.767 1354.55 526.045 1346.92 526.045C1336.91 526.045 1328.62 523.872 1322.06 519.526C1315.5 515.179 1311.34 508.83 1309.59 500.477L1323.91 496.898C1325.27 502.182 1327.85 506.145 1331.65 508.787C1335.48 511.429 1340.49 512.75 1346.67 512.75C1353.7 512.75 1359.28 511.259 1363.41 508.276C1367.59 505.25 1369.68 501.628 1369.68 497.409C1369.68 494 1368.49 491.145 1366.1 488.844C1363.71 486.5 1360.05 484.753 1355.1 483.602L1338.74 479.767C1329.75 477.636 1323.14 474.334 1318.93 469.859C1314.75 465.342 1312.66 459.696 1312.66 452.92C1312.66 447.381 1314.22 442.48 1317.33 438.219C1320.48 433.957 1324.76 430.612 1330.18 428.183C1335.63 425.754 1341.81 424.54 1348.71 424.54C1358.43 424.54 1366.06 426.67 1371.6 430.932C1377.18 435.193 1381.14 440.818 1383.49 447.807ZM1423.07 464.938V524H1407.98V393.091H1423.07V441.159H1424.35C1426.65 436.088 1430.1 432.061 1434.7 429.078C1439.35 426.053 1445.53 424.54 1453.24 424.54C1459.93 424.54 1465.79 425.882 1470.82 428.567C1475.84 431.209 1479.74 435.278 1482.51 440.776C1485.33 446.23 1486.73 453.176 1486.73 461.614V524H1471.65V462.636C1471.65 454.838 1469.62 448.808 1465.57 444.547C1461.57 440.243 1456.01 438.091 1448.89 438.091C1443.95 438.091 1439.52 439.135 1435.6 441.223C1431.72 443.311 1428.65 446.358 1426.39 450.364C1424.18 454.369 1423.07 459.227 1423.07 464.938ZM1554.22 526.045C1545.35 526.045 1537.58 523.936 1530.89 519.717C1524.24 515.499 1519.04 509.597 1515.29 502.011C1511.58 494.426 1509.73 485.562 1509.73 475.42C1509.73 465.193 1511.58 456.266 1515.29 448.638C1519.04 441.01 1524.24 435.087 1530.89 430.868C1537.58 426.649 1545.35 424.54 1554.22 424.54C1563.08 424.54 1570.84 426.649 1577.48 430.868C1584.17 435.087 1589.37 441.01 1593.08 448.638C1596.83 456.266 1598.71 465.193 1598.71 475.42C1598.71 485.562 1596.83 494.426 1593.08 502.011C1589.37 509.597 1584.17 515.499 1577.48 519.717C1570.84 523.936 1563.08 526.045 1554.22 526.045ZM1554.22 512.494C1560.95 512.494 1566.49 510.768 1570.84 507.317C1575.18 503.865 1578.4 499.327 1580.49 493.702C1582.58 488.077 1583.62 481.983 1583.62 475.42C1583.62 468.858 1582.58 462.743 1580.49 457.075C1578.4 451.408 1575.18 446.827 1570.84 443.332C1566.49 439.838 1560.95 438.091 1554.22 438.091C1547.48 438.091 1541.94 439.838 1537.6 443.332C1533.25 446.827 1530.03 451.408 1527.95 457.075C1525.86 462.743 1524.81 468.858 1524.81 475.42C1524.81 481.983 1525.86 488.077 1527.95 493.702C1530.03 499.327 1533.25 503.865 1537.6 507.317C1541.94 510.768 1547.48 512.494 1554.22 512.494ZM1621.73 560.818V425.818H1636.31V441.415H1638.1C1639.2 439.71 1640.74 437.537 1642.7 434.895C1644.7 432.21 1647.56 429.824 1651.26 427.736C1655.01 425.605 1660.08 424.54 1666.48 424.54C1674.74 424.54 1682.03 426.607 1688.34 430.74C1694.64 434.874 1699.57 440.733 1703.1 448.318C1706.64 455.903 1708.41 464.852 1708.41 475.165C1708.41 485.562 1706.64 494.575 1703.1 502.203C1699.57 509.788 1694.67 515.669 1688.4 519.845C1682.14 523.979 1674.91 526.045 1666.73 526.045C1660.43 526.045 1655.38 525.001 1651.58 522.913C1647.79 520.783 1644.87 518.375 1642.83 515.69C1640.78 512.963 1639.2 510.705 1638.1 508.915H1636.82V560.818H1621.73ZM1636.56 474.909C1636.56 482.324 1637.65 488.865 1639.82 494.533C1642 500.158 1645.17 504.568 1649.35 507.764C1653.52 510.918 1658.64 512.494 1664.69 512.494C1670.99 512.494 1676.26 510.832 1680.48 507.509C1684.74 504.142 1687.93 499.625 1690.06 493.957C1692.24 488.247 1693.32 481.898 1693.32 474.909C1693.32 468.006 1692.26 461.784 1690.13 456.244C1688.04 450.662 1684.86 446.251 1680.6 443.013C1676.38 439.732 1671.08 438.091 1664.69 438.091C1658.55 438.091 1653.39 439.646 1649.22 442.757C1645.04 445.825 1641.89 450.129 1639.76 455.669C1637.63 461.166 1636.56 467.58 1636.56 474.909Z" fill="#6B7077"/>
<defs>
<clipPath id="clip0_76_9">
<rect width="700" height="700" fill="white"/>
</clipPath>
</defs>
</svg>
