<svg width="1741" height="800" viewBox="0 0 1741 800" fill="none" xmlns="http://www.w3.org/2000/svg">
<path d="M916.235 465V334.091H960.468C970.738 334.091 979.133 335.945 985.653 339.652C992.215 343.317 997.073 348.281 1000.23 354.545C1003.38 360.81 1004.96 367.798 1004.96 375.511C1004.96 383.224 1003.38 390.234 1000.23 396.541C997.116 402.848 992.3 407.876 985.781 411.626C979.261 415.334 970.908 417.188 960.724 417.188H929.019V403.125H960.212C967.244 403.125 972.89 401.911 977.151 399.482C981.413 397.053 984.502 393.771 986.42 389.638C988.38 385.462 989.36 380.753 989.36 375.511C989.36 370.27 988.38 365.582 986.42 361.449C984.502 357.315 981.391 354.077 977.087 351.733C972.783 349.347 967.073 348.153 959.957 348.153H932.087V465H916.235ZM1043.53 405.938V465H1028.45V334.091H1043.53V382.159H1044.81C1047.11 377.088 1050.56 373.061 1055.17 370.078C1059.81 367.053 1065.99 365.54 1073.7 365.54C1080.39 365.54 1086.25 366.882 1091.28 369.567C1096.31 372.209 1100.21 376.278 1102.98 381.776C1105.79 387.23 1107.2 394.176 1107.2 402.614V465H1092.11V403.636C1092.11 395.838 1090.09 389.808 1086.04 385.547C1082.03 381.243 1076.47 379.091 1069.36 379.091C1064.41 379.091 1059.98 380.135 1056.06 382.223C1052.18 384.311 1049.12 387.358 1046.86 391.364C1044.64 395.369 1043.53 400.227 1043.53 405.938ZM1134.8 501.818V366.818H1149.37V382.415H1151.16C1152.27 380.71 1153.8 378.537 1155.76 375.895C1157.76 373.21 1160.62 370.824 1164.33 368.736C1168.08 366.605 1173.15 365.54 1179.54 365.54C1187.81 365.54 1195.09 367.607 1201.4 371.74C1207.71 375.874 1212.63 381.733 1216.17 389.318C1219.7 396.903 1221.47 405.852 1221.47 416.165C1221.47 426.562 1219.7 435.575 1216.17 443.203C1212.63 450.788 1207.73 456.669 1201.46 460.845C1195.2 464.979 1187.98 467.045 1179.8 467.045C1173.49 467.045 1168.44 466.001 1164.65 463.913C1160.85 461.783 1157.93 459.375 1155.89 456.69C1153.84 453.963 1152.27 451.705 1151.16 449.915H1149.88V501.818H1134.8ZM1149.62 415.909C1149.62 423.324 1150.71 429.865 1152.88 435.533C1155.06 441.158 1158.23 445.568 1162.41 448.764C1166.58 451.918 1171.7 453.494 1177.75 453.494C1184.06 453.494 1189.32 451.832 1193.54 448.509C1197.8 445.142 1201 440.625 1203.13 434.957C1205.3 429.247 1206.39 422.898 1206.39 415.909C1206.39 409.006 1205.32 402.784 1203.19 397.244C1201.1 391.662 1197.93 387.251 1193.67 384.013C1189.45 380.732 1184.14 379.091 1177.75 379.091C1171.61 379.091 1166.46 380.646 1162.28 383.757C1158.1 386.825 1154.95 391.129 1152.82 396.669C1150.69 402.166 1149.62 408.58 1149.62 415.909ZM1318.12 366.818C1317.35 360.341 1314.24 355.312 1308.79 351.733C1303.33 348.153 1296.64 346.364 1288.72 346.364C1282.92 346.364 1277.85 347.301 1273.5 349.176C1269.2 351.051 1265.83 353.629 1263.4 356.911C1261.02 360.192 1259.82 363.92 1259.82 368.097C1259.82 371.591 1260.65 374.595 1262.32 377.109C1264.02 379.581 1266.19 381.648 1268.84 383.31C1271.48 384.929 1274.25 386.271 1277.15 387.337C1280.04 388.359 1282.71 389.19 1285.14 389.83L1298.43 393.409C1301.84 394.304 1305.63 395.54 1309.81 397.116C1314.03 398.693 1318.06 400.845 1321.89 403.572C1325.77 406.257 1328.96 409.709 1331.48 413.928C1333.99 418.146 1335.25 423.324 1335.25 429.46C1335.25 436.534 1333.4 442.926 1329.69 448.636C1326.02 454.347 1320.65 458.885 1313.58 462.251C1306.55 465.618 1298.01 467.301 1287.95 467.301C1278.57 467.301 1270.46 465.788 1263.59 462.763C1256.78 459.737 1251.41 455.518 1247.49 450.107C1243.61 444.695 1241.41 438.409 1240.9 431.25H1257.27C1257.69 436.193 1259.35 440.284 1262.25 443.523C1265.19 446.719 1268.9 449.105 1273.37 450.682C1277.89 452.216 1282.75 452.983 1287.95 452.983C1294 452.983 1299.43 452.003 1304.25 450.043C1309.06 448.04 1312.88 445.27 1315.69 441.733C1318.5 438.153 1319.91 433.977 1319.91 429.205C1319.91 424.858 1318.69 421.321 1316.27 418.594C1313.84 415.866 1310.64 413.651 1306.68 411.946C1302.71 410.241 1298.43 408.75 1293.83 407.472L1277.72 402.869C1267.49 399.929 1259.4 395.732 1253.43 390.277C1247.47 384.822 1244.48 377.685 1244.48 368.864C1244.48 361.534 1246.46 355.142 1250.43 349.688C1254.43 344.19 1259.8 339.929 1266.54 336.903C1273.31 333.835 1280.87 332.301 1289.23 332.301C1297.66 332.301 1305.16 333.814 1311.73 336.839C1318.29 339.822 1323.49 343.913 1327.32 349.112C1331.2 354.311 1333.25 360.213 1333.46 366.818H1318.12ZM1401.97 366.818V379.602H1351.09V366.818H1401.97ZM1365.92 343.295H1381V436.875C1381 441.136 1381.62 444.332 1382.85 446.463C1384.13 448.551 1385.75 449.957 1387.71 450.682C1389.72 451.364 1391.82 451.705 1394.04 451.705C1395.7 451.705 1397.07 451.619 1398.13 451.449C1399.2 451.236 1400.05 451.065 1400.69 450.938L1403.76 464.489C1402.73 464.872 1401.31 465.256 1399.47 465.639C1397.64 466.065 1395.32 466.278 1392.51 466.278C1388.25 466.278 1384.07 465.362 1379.98 463.53C1375.93 461.697 1372.56 458.906 1369.88 455.156C1367.24 451.406 1365.92 446.676 1365.92 440.966V343.295ZM1463.49 467.045C1454.63 467.045 1446.85 464.936 1440.16 460.717C1433.51 456.499 1428.31 450.597 1424.56 443.011C1420.86 435.426 1419 426.562 1419 416.42C1419 406.193 1420.86 397.266 1424.56 389.638C1428.31 382.01 1433.51 376.087 1440.16 371.868C1446.85 367.649 1454.63 365.54 1463.49 365.54C1472.35 365.54 1480.11 367.649 1486.76 371.868C1493.45 376.087 1498.65 382.01 1502.35 389.638C1506.1 397.266 1507.98 406.193 1507.98 416.42C1507.98 426.562 1506.1 435.426 1502.35 443.011C1498.65 450.597 1493.45 456.499 1486.76 460.717C1480.11 464.936 1472.35 467.045 1463.49 467.045ZM1463.49 453.494C1470.22 453.494 1475.76 451.768 1480.11 448.317C1484.46 444.865 1487.67 440.327 1489.76 434.702C1491.85 429.077 1492.89 422.983 1492.89 416.42C1492.89 409.858 1491.85 403.743 1489.76 398.075C1487.67 392.408 1484.46 387.827 1480.11 384.332C1475.76 380.838 1470.22 379.091 1463.49 379.091C1456.76 379.091 1451.22 380.838 1446.87 384.332C1442.52 387.827 1439.31 392.408 1437.22 398.075C1435.13 403.743 1434.09 409.858 1434.09 416.42C1434.09 422.983 1435.13 429.077 1437.22 434.702C1439.31 440.327 1442.52 444.865 1446.87 448.317C1451.22 451.768 1456.76 453.494 1463.49 453.494ZM1531.01 465V366.818H1545.58V381.648H1546.6C1548.39 376.79 1551.63 372.848 1556.32 369.822C1561.01 366.797 1566.29 365.284 1572.17 365.284C1573.28 365.284 1574.66 365.305 1576.33 365.348C1577.99 365.391 1579.24 365.455 1580.1 365.54V380.881C1579.59 380.753 1578.41 380.561 1576.58 380.305C1574.79 380.007 1572.9 379.858 1570.89 379.858C1566.12 379.858 1561.86 380.859 1558.11 382.862C1554.4 384.822 1551.46 387.55 1549.29 391.044C1547.16 394.496 1546.09 398.437 1546.09 402.869V465H1531.01ZM1597.98 465V366.818H1612.55V382.159H1613.83C1615.88 376.918 1619.18 372.848 1623.74 369.95C1628.3 367.01 1633.77 365.54 1640.17 365.54C1646.64 365.54 1652.03 367.01 1656.34 369.95C1660.68 372.848 1664.07 376.918 1666.5 382.159H1667.52C1670.04 377.088 1673.81 373.061 1678.84 370.078C1683.87 367.053 1689.9 365.54 1696.93 365.54C1705.71 365.54 1712.89 368.288 1718.47 373.786C1724.05 379.24 1726.84 387.741 1726.84 399.29V465H1711.76V399.29C1711.76 392.045 1709.78 386.868 1705.81 383.757C1701.85 380.646 1697.18 379.091 1691.81 379.091C1684.91 379.091 1679.56 381.179 1675.77 385.355C1671.98 389.489 1670.08 394.73 1670.08 401.08V465H1654.74V397.756C1654.74 392.173 1652.93 387.678 1649.31 384.268C1645.68 380.817 1641.02 379.091 1635.31 379.091C1631.39 379.091 1627.72 380.135 1624.31 382.223C1620.95 384.311 1618.22 387.209 1616.13 390.916C1614.09 394.581 1613.06 398.821 1613.06 403.636V465H1597.98Z" fill="#6B7077"/>
<path d="M0 153.75L136.25 0L415 60L452.5 173.75L425 371.25L314.18 314.536L320 472.5V610L76.25 612.5L0 153.75Z" fill="#6B7077"/>
<path d="M252.5 468.75L267.5 280L493.75 47.5L696.25 85L800 343.75L691.25 451.25L515 422.5L403.75 537.5L252.5 468.75Z" fill="#6B7077"/>
<path d="M493.75 47.5L168.75 336.25L231.25 706.25L501.25 800L800 621.25L493.75 47.5Z" fill="#6B7077"/>
<path d="M650 150H150V650H650V150Z" fill="#3F3F3F"/>
<path d="M197.5 556.25H385V587.5H197.5V556.25ZM195 215H280C330 215 360 243.75 360 286.25C360 333.75 322.5 358.75 276.25 358.75H241.25V421.25H195V215ZM277.5 321.25C299.313 321.25 313.75 306.25 313.75 288.75C313.75 268.75 300 257.5 276.25 257.5H241.25V321.25H277.5ZM371.25 392.5L398.75 360C417.5 375 437.5 385 461.25 385C480 385 491.25 377.5 491.25 365C491.25 353.75 483.75 347.5 448.75 338.75C406.25 327.5 380 316.25 380 275V273.75C380 236.25 410 211.25 452.5 211.25C480.535 211.13 507.809 220.368 530 237.5L506.25 272.5C487.5 260 470 252.5 452.5 252.5C435 252.5 426.25 260 426.25 271.25C426.25 285 435 290 471.25 298.75C513.75 310 537.5 325 537.5 361.25C537.5 402.5 506.25 426.25 461.25 426.25C428.077 426.698 395.949 414.65 371.25 392.5Z" fill="#F6F7F7"/>
</svg>
