<?xml version="1.0" encoding="UTF-8"?>
<svg id="Calque_2" data-name="Calque 2" xmlns="http://www.w3.org/2000/svg" viewBox="0 0 178.17 178.17">
  <defs>
    <style>
      .cls-1 {
        fill: none;
        stroke: #fff;
        stroke-miterlimit: 10;
        stroke-width: 5px;
      }

      .cls-2 {
        fill: #3858e9;
      }
    </style>
  </defs>
  <g id="Calque_1-2" data-name="Calque 1">
    <g>
      <circle class="cls-2" cx="89.08" cy="89.08" r="89.08"/>
      <path class="cls-1" d="m119.44,102.55c-1.97-2.2-4.12-3.65-5.72-4.55-2.81-1.96-6.16-4.67-9.35-8.31-2.77-3.15-4.73-6.19-6.11-8.76-1.34-2.8-3.52-6.44-7.09-10.11-2.53-2.6-5.14-4.56-7.39-6.02-.67-.22-2.06-.6-3.82-.44l-.89-1.49c-.79-2.6-1.53-6.12-1.52-10.34.01-4.56.9-8.43,1.8-11.24-.04-.44-.34-.81-.79-.94-.59-.17-1.34.1-1.7.67-.78,3.54-1.42,7.66-1.61,12.25-.2,4.69.1,8.88.62,12.47-.91.58-1.62,1.24-2.13,1.82-.65.74-.9,1.66-.75,2.53.07.43.11.92.07,1.47-.12,1.72-.89,3.06-1.44,3.83-.14.2-.2.42-.15.64.58,2.82,1.13,5.7,1.62,8.66,1.21,7.18,2.02,14.08,2.54,20.67-.23,1.81-.61,3.82-1.21,6-.42,1.54-.91,2.97-1.43,4.31-1.67,4.31-1.29,8.94,1.41,12.57.15.2.3.4.47.6,4.05,4.94,10.12,6.13,11.72,6.4,1.7.37,3.65.71,5.85.92,1.73.17,3.35.23,4.82.24,1.67-.43,3.77-1.12,6.02-2.26,1.36-.69,2.51-1.41,3.46-2.08,1.47-.09,5.55-.51,9.06-3.23,1.31-1.01,2.19-2.07,2.78-2.94,1.49-1.76,3.88-5.08,4.81-9.59.55-2.68.41-4.97.15-6.61-.54-1.76-1.65-4.46-4.07-7.16Z"/>
    </g>
  </g>
</svg>