<?xml version="1.0" encoding="UTF-8"?>
<svg id="Calque_2" data-name="Calque 2" xmlns="http://www.w3.org/2000/svg" viewBox="0 0 178.17 178.17">
  <defs>
    <style>
      .cls-1 {
        fill: #fff;
      }

      .cls-2 {
        fill: none;
        stroke: #fff;
        stroke-miterlimit: 10;
        stroke-width: 7px;
      }

      .cls-3 {
        fill: #3858e9;
      }
    </style>
  </defs>
  <g id="Calque_1-2" data-name="Calque 1">
    <g>
      <circle class="cls-3" cx="89.08" cy="89.08" r="89.08"/>
      <g>
        <path class="cls-1" d="m89.39,55.65c-3.47,0-6.28,2.66-6.28,5.95s2.81,5.35,6.28,5.35,6.28-2.06,6.28-5.35-2.81-5.95-6.28-5.95Zm-.08,8.6c-1.14,0-2.06-.92-2.06-2.06s.92-2.06,2.06-2.06,2.06.92,2.06,2.06-.92,2.06-2.06,2.06Z"/>
        <path class="cls-2" d="m132.49,108.83c0-24-19.24-42.76-43.1-42.76s-43.21,18.89-43.21,42.89"/>
        <path class="cls-2" d="m40.84,108.85c-.05,0-.1.02-.12.06-.42.81-2.01,4.21-.23,8.07,1.64,3.55,5.04,5.14,5.94,5.52.02,0,.03.01.05.01h84.83s.09-.03.11-.07c.65-.24,5.01-1.92,6.56-6.14,1.34-3.64-.28-6.68-.67-7.34-.01-.01-.06-.12-.15-.12-4.38.02-93.27.38-96.31.02Z"/>
      </g>
    </g>
  </g>
</svg>