<svg width="1258" height="700" viewBox="0 0 1258 700" fill="none" xmlns="http://www.w3.org/2000/svg">
<path d="M887.752 316.818C886.985 310.341 883.874 305.312 878.419 301.733C872.965 298.153 866.275 296.364 858.348 296.364C852.553 296.364 847.482 297.301 843.135 299.176C838.831 301.051 835.465 303.629 833.036 306.911C830.65 310.192 829.456 313.92 829.456 318.097C829.456 321.591 830.287 324.595 831.949 327.109C833.654 329.581 835.827 331.648 838.469 333.31C841.111 334.929 843.881 336.271 846.779 337.337C849.676 338.359 852.34 339.19 854.769 339.83L868.064 343.409C871.473 344.304 875.266 345.54 879.442 347.116C883.661 348.693 887.688 350.845 891.523 353.572C895.401 356.257 898.597 359.709 901.111 363.928C903.625 368.146 904.882 373.324 904.882 379.46C904.882 386.534 903.029 392.926 899.321 398.636C895.657 404.347 890.287 408.885 883.213 412.251C876.182 415.618 867.638 417.301 857.581 417.301C848.206 417.301 840.088 415.788 833.228 412.763C826.409 409.737 821.04 405.518 817.12 400.107C813.242 394.695 811.047 388.409 810.536 381.25H826.9C827.326 386.193 828.988 390.284 831.885 393.523C834.826 396.719 838.533 399.105 843.007 400.682C847.525 402.216 852.382 402.983 857.581 402.983C863.632 402.983 869.066 402.003 873.881 400.043C878.696 398.04 882.51 395.27 885.323 391.733C888.135 388.153 889.542 383.977 889.542 379.205C889.542 374.858 888.327 371.321 885.898 368.594C883.469 365.866 880.273 363.651 876.31 361.946C872.347 360.241 868.064 358.75 863.462 357.472L847.354 352.869C837.127 349.929 829.03 345.732 823.064 340.277C817.098 334.822 814.115 327.685 814.115 318.864C814.115 311.534 816.097 305.142 820.06 299.688C824.066 294.19 829.435 289.929 836.168 286.903C842.944 283.835 850.507 282.301 858.86 282.301C867.297 282.301 874.797 283.814 881.36 286.839C887.922 289.822 893.121 293.913 896.956 299.112C900.834 304.311 902.88 310.213 903.093 316.818H887.752ZM943.986 284.091V415H928.901V284.091H943.986ZM1000.51 417.301C994.286 417.301 988.64 416.129 983.569 413.786C978.498 411.399 974.471 407.969 971.488 403.494C968.505 398.977 967.013 393.523 967.013 387.131C967.013 381.506 968.121 376.946 970.337 373.452C972.553 369.915 975.515 367.145 979.222 365.142C982.929 363.139 987.02 361.648 991.495 360.668C996.012 359.645 1000.55 358.835 1005.11 358.239C1011.08 357.472 1015.91 356.896 1019.62 356.513C1023.37 356.087 1026.1 355.384 1027.8 354.403C1029.55 353.423 1030.42 351.719 1030.42 349.29V348.778C1030.42 342.472 1028.7 337.571 1025.24 334.077C1021.84 330.582 1016.66 328.835 1009.71 328.835C1002.51 328.835 996.864 330.412 992.773 333.565C988.682 336.719 985.806 340.085 984.144 343.665L969.826 338.551C972.382 332.585 975.792 327.94 980.053 324.616C984.357 321.25 989.044 318.906 994.115 317.585C999.229 316.222 1004.26 315.54 1009.2 315.54C1012.35 315.54 1015.98 315.923 1020.07 316.69C1024.2 317.415 1028.19 318.928 1032.02 321.229C1035.9 323.53 1039.12 327.003 1041.67 331.648C1044.23 336.293 1045.51 342.514 1045.51 350.312V415H1030.42V401.705H1029.66C1028.63 403.835 1026.93 406.115 1024.54 408.544C1022.16 410.973 1018.98 413.04 1015.02 414.744C1011.05 416.449 1006.22 417.301 1000.51 417.301ZM1002.81 403.75C1008.77 403.75 1013.8 402.578 1017.89 400.234C1022.03 397.891 1025.14 394.865 1027.23 391.158C1029.36 387.45 1030.42 383.551 1030.42 379.46V365.653C1029.78 366.42 1028.38 367.124 1026.2 367.763C1024.07 368.359 1021.6 368.892 1018.79 369.361C1016.02 369.787 1013.31 370.17 1010.67 370.511C1008.07 370.81 1005.96 371.065 1004.34 371.278C1000.42 371.79 996.757 372.621 993.348 373.771C989.982 374.879 987.255 376.562 985.167 378.821C983.121 381.037 982.098 384.062 982.098 387.898C982.098 393.139 984.037 397.102 987.915 399.787C991.836 402.429 996.8 403.75 1002.81 403.75ZM1112.93 417.045C1103.72 417.045 1095.8 414.872 1089.15 410.526C1082.5 406.179 1077.39 400.192 1073.81 392.564C1070.23 384.936 1068.44 376.222 1068.44 366.42C1068.44 356.449 1070.27 347.649 1073.94 340.021C1077.64 332.351 1082.8 326.364 1089.4 322.06C1096.05 317.713 1103.81 315.54 1112.67 315.54C1119.58 315.54 1125.8 316.818 1131.34 319.375C1136.88 321.932 1141.41 325.511 1144.95 330.114C1148.49 334.716 1150.68 340.085 1151.54 346.222H1136.45C1135.3 341.747 1132.74 337.784 1128.78 334.332C1124.86 330.838 1119.58 329.091 1112.93 329.091C1107.05 329.091 1101.89 330.625 1097.46 333.693C1093.07 336.719 1089.64 341.001 1087.17 346.541C1084.74 352.038 1083.52 358.494 1083.52 365.909C1083.52 373.494 1084.72 380.099 1087.1 385.724C1089.53 391.349 1092.94 395.717 1097.33 398.828C1101.76 401.939 1106.96 403.494 1112.93 403.494C1116.85 403.494 1120.41 402.812 1123.6 401.449C1126.8 400.085 1129.5 398.125 1131.72 395.568C1133.94 393.011 1135.51 389.943 1136.45 386.364H1151.54C1150.68 392.159 1148.57 397.379 1145.21 402.024C1141.88 406.626 1137.47 410.291 1131.98 413.018C1126.52 415.703 1120.17 417.045 1112.93 417.045ZM1187.65 379.205L1187.39 360.54H1190.46L1233.42 316.818H1252.08L1206.32 363.097H1205.04L1187.65 379.205ZM1173.59 415V284.091H1188.67V415H1173.59ZM1235.97 415L1197.62 366.42L1208.36 355.938L1255.15 415H1235.97Z" fill="#6B7077"/>
<path fill-rule="evenodd" clip-rule="evenodd" d="M666.575 350C687.203 329.786 700 301.614 700 270.455C700 208.95 650.141 159.091 588.636 159.091C571.556 159.091 555.374 162.936 540.909 169.808V111.364C540.909 49.8591 491.05 0 429.545 0C398.386 0 370.214 12.7982 350 33.4253C329.786 12.7982 301.614 0 270.455 0C208.95 0 159.091 49.8591 159.091 111.364C159.091 128.444 162.936 144.625 169.808 159.091H111.364C49.8591 159.091 0 208.95 0 270.455C0 301.614 12.7982 329.786 33.4253 350C12.7982 370.214 0 398.386 0 429.545C0 491.05 49.8591 540.909 111.364 540.909C128.444 540.909 144.625 537.065 159.091 530.193V588.636C159.091 650.141 208.95 700 270.455 700C301.614 700 329.786 687.203 350 666.575C370.214 687.203 398.386 700 429.545 700C491.05 700 540.909 650.141 540.909 588.636C540.909 571.556 537.065 555.374 530.193 540.909H588.636C650.141 540.909 700 491.05 700 429.545C700 398.386 687.203 370.214 666.575 350ZM270.455 63.6364C296.813 63.6364 318.182 85.0045 318.182 111.364V159.091H270.455C244.095 159.091 222.727 137.723 222.727 111.364C222.727 85.0045 244.095 63.6364 270.455 63.6364ZM381.818 111.364C381.818 85.0045 403.187 63.6364 429.545 63.6364C455.904 63.6364 477.273 85.0045 477.273 111.364V318.182H381.818V111.364ZM318.182 318.182V222.727H111.364C85.0045 222.727 63.6364 244.095 63.6364 270.455C63.6364 296.813 85.0045 318.182 111.364 318.182H318.182ZM540.909 318.182H588.636C614.995 318.182 636.364 296.813 636.364 270.455C636.364 244.095 614.995 222.727 588.636 222.727C562.278 222.727 540.909 244.095 540.909 270.455V318.182ZM588.636 381.818H381.818V477.273H588.636C614.995 477.273 636.364 455.904 636.364 429.545C636.364 403.187 614.995 381.818 588.636 381.818ZM429.545 540.909H381.818V588.636C381.818 614.995 403.187 636.364 429.545 636.364C455.904 636.364 477.273 614.995 477.273 588.636C477.273 562.278 455.904 540.909 429.545 540.909ZM318.182 381.818H222.727V588.636C222.727 614.995 244.095 636.364 270.455 636.364C296.813 636.364 318.182 614.995 318.182 588.636V381.818ZM111.364 381.818H159.091V429.545C159.091 455.904 137.723 477.273 111.364 477.273C85.0045 477.273 63.6364 455.904 63.6364 429.545C63.6364 403.187 85.0045 381.818 111.364 381.818Z" fill="#6B7077"/>
</svg>
