<svg width="361" height="121" viewBox="0 0 361 121" fill="none" xmlns="http://www.w3.org/2000/svg">
<path d="M10.8302 85.9032L40.9897 33.5428L43.9659 38.3722L16.7703 85.5723L10.8302 85.9032Z" fill="black" stroke="black"/>
<path d="M43.2848 61.8811C41.4192 48.619 50.9678 40.2756 57.2139 36.3192C60.4389 34.2777 64.1226 33.087 67.9311 32.897C72.1249 32.6878 77.9453 33.1257 83.4795 35.9982C88.8707 38.7965 94.0332 43.9268 97.1549 53.1304H91.6519C91.5667 52.9416 91.441 52.6718 91.2743 52.3364C90.9349 51.6534 90.4251 50.6972 89.7407 49.5984C88.3739 47.4039 86.3009 44.6243 83.485 42.3183C80.6659 40.0098 77.0897 38.1664 72.7302 37.8772C68.3687 37.5879 63.2803 38.858 57.4458 42.6755L57.4457 42.6756C54.2917 44.7412 51.8467 48.0405 50.4887 51.522C48.6502 56.2263 47.7124 63.0016 51.1515 70.1888L51.1515 70.189C53.9944 76.1259 56.2814 80.1783 57.8611 82.7507C58.456 83.7196 58.9507 84.4786 59.3369 85.0493C59.0912 84.9398 58.8206 84.8133 58.5286 84.6686C57.0952 83.9578 55.1512 82.8068 53.1209 81.0499C49.0673 77.542 44.653 71.6053 43.2848 61.8811Z" fill="black" stroke="black"/>
<path d="M79.8388 80.5497C84.0299 78.9454 88.8996 75.3364 91.8377 67.4057H97.2105C97.1996 67.4465 97.1879 67.4892 97.1755 67.5338C97.044 68.0087 96.8343 68.6949 96.5238 69.5308C95.9025 71.2036 94.8794 73.4712 93.2739 75.8456C90.0725 80.5805 84.5572 85.7414 75.265 87.47H69.0692L56.1403 64.1452L56.5718 56.0878L71.7105 81.4868L71.8354 81.6964L72.0775 81.7269L72.14 81.2308C72.0775 81.7269 72.0778 81.7269 72.0782 81.727L72.0793 81.7271L72.0823 81.7275L72.0921 81.7286L72.1263 81.7324C72.1556 81.7355 72.1975 81.7397 72.2516 81.7443C72.3596 81.7536 72.516 81.7646 72.7155 81.7727C73.1143 81.7889 73.686 81.7933 74.3882 81.747C75.7918 81.6546 77.7228 81.3597 79.8388 80.5497Z" fill="black" stroke="black"/>
<path d="M54 111C82.1665 111 105 88.1665 105 60C105 31.8335 82.1665 9 54 9C25.8335 9 3 31.8335 3 60C3 88.1665 25.8335 111 54 111Z" stroke="black" stroke-width="6"/>
<path d="M161.733 97V24.2727H177.11V84.3224H208.289V97H161.733ZM263.864 47.7812C263.367 46.053 262.668 44.526 261.769 43.2003C260.869 41.8509 259.768 40.7145 258.466 39.7912C257.188 38.8442 255.72 38.1222 254.063 37.625C252.429 37.1278 250.618 36.8793 248.629 36.8793C244.913 36.8793 241.646 37.8026 238.828 39.6491C236.035 41.4957 233.857 44.1828 232.294 47.7102C230.732 51.214 229.95 55.4991 229.95 60.5653C229.95 65.6316 230.72 69.9403 232.259 73.4915C233.798 77.0426 235.976 79.7533 238.793 81.6236C241.61 83.4702 244.936 84.3935 248.771 84.3935C252.252 84.3935 255.223 83.7779 257.685 82.5469C260.171 81.2921 262.065 79.5284 263.367 77.2557C264.692 74.983 265.355 72.2959 265.355 69.1946L268.48 69.6562H249.73V58.0795H280.164V67.2415C280.164 73.6335 278.814 79.1259 276.115 83.7188C273.416 88.2879 269.7 91.8153 264.965 94.3011C260.23 96.7633 254.808 97.9943 248.7 97.9943C241.882 97.9943 235.893 96.491 230.732 93.4844C225.571 90.4541 221.546 86.1572 218.658 80.5938C215.793 75.0066 214.361 68.3778 214.361 60.7074C214.361 54.8125 215.213 49.5568 216.918 44.9403C218.646 40.3002 221.061 36.3703 224.162 33.1506C227.263 29.9309 230.874 27.4806 234.993 25.7997C239.112 24.1188 243.575 23.2784 248.381 23.2784C252.5 23.2784 256.335 23.8821 259.887 25.0895C263.438 26.2732 266.586 27.9541 269.333 30.1321C272.102 32.3101 274.363 34.9025 276.115 37.9091C277.867 40.892 278.992 44.1828 279.489 47.7812H263.864ZM355.883 49.7344H340.329C340.045 47.7221 339.465 45.9347 338.589 44.3722C337.713 42.786 336.588 41.4366 335.215 40.3239C333.842 39.2112 332.256 38.3589 330.456 37.767C328.681 37.1752 326.751 36.8793 324.668 36.8793C320.904 36.8793 317.625 37.8144 314.831 39.6847C312.038 41.5312 309.872 44.2301 308.333 47.7812C306.794 51.3087 306.025 55.5937 306.025 60.6364C306.025 65.821 306.794 70.1771 308.333 73.7045C309.895 77.232 312.073 79.8954 314.867 81.6946C317.661 83.4938 320.892 84.3935 324.562 84.3935C326.621 84.3935 328.527 84.1212 330.279 83.5767C332.055 83.0322 333.629 82.2391 335.002 81.1974C336.375 80.1321 337.511 78.8419 338.411 77.3267C339.334 75.8116 339.974 74.0833 340.329 72.142L355.883 72.2131C355.48 75.5511 354.474 78.7708 352.864 81.8722C351.278 84.9498 349.135 87.7079 346.437 90.1463C343.761 92.5611 340.565 94.4787 336.849 95.8991C333.155 97.2959 328.977 97.9943 324.313 97.9943C317.826 97.9943 312.026 96.5265 306.912 93.5909C301.823 90.6553 297.798 86.4058 294.839 80.8423C291.903 75.2789 290.435 68.5436 290.435 60.6364C290.435 52.7055 291.927 45.9583 294.91 40.3949C297.893 34.8314 301.941 30.5937 307.055 27.6818C312.168 24.7462 317.921 23.2784 324.313 23.2784C328.527 23.2784 332.433 23.8703 336.032 25.054C339.654 26.2377 342.862 27.9659 345.655 30.2386C348.449 32.4877 350.722 35.2457 352.474 38.5128C354.249 41.7798 355.385 45.5204 355.883 49.7344Z" fill="#D99943"/>
</svg>
