<svg width="1895" height="700" viewBox="0 0 1895 700" fill="none" xmlns="http://www.w3.org/2000/svg">
<path d="M887.736 316.818C886.969 310.341 883.858 305.312 878.404 301.733C872.949 298.153 866.259 296.364 858.333 296.364C852.537 296.364 847.466 297.301 843.12 299.176C838.816 301.051 835.449 303.629 833.02 306.911C830.634 310.192 829.441 313.92 829.441 318.097C829.441 321.591 830.272 324.595 831.934 327.109C833.638 329.581 835.811 331.648 838.453 333.31C841.096 334.929 843.865 336.271 846.763 337.337C849.661 338.359 852.324 339.19 854.753 339.83L868.049 343.409C871.458 344.304 875.25 345.54 879.426 347.116C883.645 348.693 887.672 350.845 891.507 353.572C895.385 356.257 898.581 359.709 901.096 363.928C903.61 368.146 904.867 373.324 904.867 379.46C904.867 386.534 903.013 392.926 899.306 398.636C895.641 404.347 890.272 408.885 883.198 412.251C876.167 415.618 867.623 417.301 857.566 417.301C848.191 417.301 840.073 415.788 833.212 412.763C826.394 409.737 821.025 405.518 817.104 400.107C813.226 394.695 811.032 388.409 810.52 381.25H826.884C827.31 386.193 828.972 390.284 831.87 393.523C834.81 396.719 838.517 399.105 842.992 400.682C847.509 402.216 852.367 402.983 857.566 402.983C863.617 402.983 869.05 402.003 873.865 400.043C878.681 398.04 882.495 395.27 885.307 391.733C888.12 388.153 889.526 383.977 889.526 379.205C889.526 374.858 888.311 371.321 885.882 368.594C883.453 365.866 880.257 363.651 876.294 361.946C872.331 360.241 868.049 358.75 863.446 357.472L847.338 352.869C837.111 349.929 829.015 345.732 823.049 340.277C817.083 334.822 814.1 327.685 814.1 318.864C814.1 311.534 816.081 305.142 820.044 299.688C824.05 294.19 829.419 289.929 836.152 286.903C842.928 283.835 850.492 282.301 858.844 282.301C867.282 282.301 874.782 283.814 881.344 286.839C887.907 289.822 893.105 293.913 896.941 299.112C900.819 304.311 902.864 310.213 903.077 316.818H887.736ZM990.76 374.858V316.818H1005.85V415H990.76V398.381H989.737C987.436 403.366 983.857 407.607 978.999 411.101C974.141 414.553 968.004 416.278 960.589 416.278C954.453 416.278 948.999 414.936 944.226 412.251C939.453 409.524 935.703 405.433 932.976 399.979C930.249 394.482 928.885 387.557 928.885 379.205V316.818H943.97V378.182C943.97 385.341 945.973 391.051 949.979 395.312C954.027 399.574 959.183 401.705 965.447 401.705C969.197 401.705 973.011 400.746 976.889 398.828C980.81 396.911 984.091 393.97 986.733 390.007C989.418 386.044 990.76 380.994 990.76 374.858ZM1035.52 415V284.091H1050.61V332.415H1051.88C1052.99 330.71 1054.53 328.537 1056.49 325.895C1058.49 323.21 1061.34 320.824 1065.05 318.736C1068.8 316.605 1073.87 315.54 1080.26 315.54C1088.53 315.54 1095.82 317.607 1102.13 321.74C1108.43 325.874 1113.35 331.733 1116.89 339.318C1120.43 346.903 1122.2 355.852 1122.2 366.165C1122.2 376.562 1120.43 385.575 1116.89 393.203C1113.35 400.788 1108.45 406.669 1102.19 410.845C1095.93 414.979 1088.7 417.045 1080.52 417.045C1074.21 417.045 1069.16 416.001 1065.37 413.913C1061.58 411.783 1058.66 409.375 1056.61 406.69C1054.57 403.963 1052.99 401.705 1051.88 399.915H1050.09V415H1035.52ZM1050.35 365.909C1050.35 373.324 1051.44 379.865 1053.61 385.533C1055.78 391.158 1058.96 395.568 1063.13 398.764C1067.31 401.918 1072.42 403.494 1078.47 403.494C1084.78 403.494 1090.04 401.832 1094.26 398.509C1098.52 395.142 1101.72 390.625 1103.85 384.957C1106.02 379.247 1107.11 372.898 1107.11 365.909C1107.11 359.006 1106.05 352.784 1103.92 347.244C1101.83 341.662 1098.65 337.251 1094.39 334.013C1090.17 330.732 1084.87 329.091 1078.47 329.091C1072.34 329.091 1067.18 330.646 1063.01 333.757C1058.83 336.825 1055.68 341.129 1053.55 346.669C1051.42 352.166 1050.35 358.58 1050.35 365.909ZM1160.36 284.091V415H1145.27V284.091H1160.36ZM1187.99 415V316.818H1203.07V415H1187.99ZM1195.66 300.455C1192.72 300.455 1190.18 299.453 1188.05 297.45C1185.96 295.447 1184.92 293.04 1184.92 290.227C1184.92 287.415 1185.96 285.007 1188.05 283.004C1190.18 281.001 1192.72 280 1195.66 280C1198.6 280 1201.11 281.001 1203.2 283.004C1205.33 285.007 1206.4 287.415 1206.4 290.227C1206.4 293.04 1205.33 295.447 1203.2 297.45C1201.11 299.453 1198.6 300.455 1195.66 300.455ZM1230.7 415V316.818H1245.28V332.159H1246.55C1248.6 326.918 1251.9 322.848 1256.46 319.95C1261.02 317.01 1266.5 315.54 1272.89 315.54C1279.37 315.54 1284.76 317.01 1289.06 319.95C1293.41 322.848 1296.8 326.918 1299.22 332.159H1300.25C1302.76 327.088 1306.53 323.061 1311.56 320.078C1316.59 317.053 1322.62 315.54 1329.65 315.54C1338.43 315.54 1345.61 318.288 1351.19 323.786C1356.77 329.24 1359.56 337.741 1359.56 349.29V415H1344.48V349.29C1344.48 342.045 1342.5 336.868 1338.54 333.757C1334.57 330.646 1329.91 329.091 1324.54 329.091C1317.63 329.091 1312.29 331.179 1308.49 335.355C1304.7 339.489 1302.8 344.73 1302.8 351.08V415H1287.46V347.756C1287.46 342.173 1285.65 337.678 1282.03 334.268C1278.41 330.817 1273.74 329.091 1268.03 329.091C1264.11 329.091 1260.45 330.135 1257.04 332.223C1253.67 334.311 1250.94 337.209 1248.85 340.916C1246.81 344.581 1245.79 348.821 1245.79 353.636V415H1230.7ZM1428.31 417.045C1418.85 417.045 1410.69 414.957 1403.83 410.781C1397.01 406.562 1391.75 400.682 1388.04 393.139C1384.38 385.554 1382.54 376.733 1382.54 366.676C1382.54 356.619 1384.38 347.756 1388.04 340.085C1391.75 332.372 1396.91 326.364 1403.51 322.06C1410.16 317.713 1417.91 315.54 1426.78 315.54C1431.89 315.54 1436.94 316.392 1441.93 318.097C1446.91 319.801 1451.45 322.571 1455.54 326.406C1459.63 330.199 1462.89 335.227 1465.32 341.491C1467.75 347.756 1468.96 355.469 1468.96 364.631V371.023H1393.28V357.983H1453.62C1453.62 352.443 1452.52 347.5 1450.3 343.153C1448.13 338.807 1445.02 335.376 1440.97 332.862C1436.96 330.348 1432.23 329.091 1426.78 329.091C1420.77 329.091 1415.57 330.582 1411.18 333.565C1406.83 336.506 1403.49 340.341 1401.15 345.071C1398.8 349.801 1397.63 354.872 1397.63 360.284V368.977C1397.63 376.392 1398.91 382.678 1401.46 387.834C1404.06 392.947 1407.67 396.847 1412.27 399.531C1416.87 402.173 1422.22 403.494 1428.31 403.494C1432.27 403.494 1435.85 402.94 1439.05 401.832C1442.29 400.682 1445.08 398.977 1447.42 396.719C1449.77 394.418 1451.58 391.562 1452.86 388.153L1467.43 392.244C1465.9 397.188 1463.32 401.534 1459.7 405.284C1456.07 408.991 1451.6 411.889 1446.27 413.977C1440.95 416.023 1434.96 417.045 1428.31 417.045ZM1537.42 298.153V284.091H1635.61V298.153H1594.44V415H1578.59V298.153H1537.42ZM1684.95 417.045C1675.49 417.045 1667.33 414.957 1660.47 410.781C1653.65 406.562 1648.39 400.682 1644.68 393.139C1641.02 385.554 1639.19 376.733 1639.19 366.676C1639.19 356.619 1641.02 347.756 1644.68 340.085C1648.39 332.372 1653.55 326.364 1660.15 322.06C1666.8 317.713 1674.55 315.54 1683.42 315.54C1688.53 315.54 1693.58 316.392 1698.57 318.097C1703.55 319.801 1708.09 322.571 1712.18 326.406C1716.27 330.199 1719.53 335.227 1721.96 341.491C1724.39 347.756 1725.61 355.469 1725.61 364.631V371.023H1649.92V357.983H1710.26C1710.26 352.443 1709.16 347.5 1706.94 343.153C1704.77 338.807 1701.66 335.376 1697.61 332.862C1693.6 330.348 1688.87 329.091 1683.42 329.091C1677.41 329.091 1672.21 330.582 1667.82 333.565C1663.47 336.506 1660.13 340.341 1657.79 345.071C1655.44 349.801 1654.27 354.872 1654.27 360.284V368.977C1654.27 376.392 1655.55 382.678 1658.11 387.834C1660.7 392.947 1664.31 396.847 1668.91 399.531C1673.51 402.173 1678.86 403.494 1684.95 403.494C1688.92 403.494 1692.49 402.94 1695.69 401.832C1698.93 400.682 1701.72 398.977 1704.06 396.719C1706.41 394.418 1708.22 391.562 1709.5 388.153L1724.07 392.244C1722.54 397.188 1719.96 401.534 1716.34 405.284C1712.71 408.991 1708.24 411.889 1702.91 413.977C1697.59 416.023 1691.6 417.045 1684.95 417.045ZM1757.17 316.818L1780.69 356.96L1804.21 316.818H1821.6L1789.89 365.909L1821.6 415H1804.21L1780.69 376.903L1757.17 415H1739.78L1770.97 365.909L1739.78 316.818H1757.17ZM1885.82 316.818V329.602H1834.94V316.818H1885.82ZM1849.77 293.295H1864.86V386.875C1864.86 391.136 1865.47 394.332 1866.71 396.463C1867.99 398.551 1869.61 399.957 1871.57 400.682C1873.57 401.364 1875.68 401.705 1877.9 401.705C1879.56 401.705 1880.92 401.619 1881.99 401.449C1883.05 401.236 1883.9 401.065 1884.54 400.938L1887.61 414.489C1886.59 414.872 1885.16 415.256 1883.33 415.639C1881.5 416.065 1879.17 416.278 1876.36 416.278C1872.1 416.278 1867.92 415.362 1863.83 413.53C1859.79 411.697 1856.42 408.906 1853.73 405.156C1851.09 401.406 1849.77 396.676 1849.77 390.966V293.295Z" fill="#6B7077"/>
<path d="M350 700C543.3 700 700 543.3 700 350C700 156.7 543.3 0 350 0C156.7 0 0 156.7 0 350C0 543.3 156.7 700 350 700Z" fill="#6B7077"/>
<path fill-rule="evenodd" clip-rule="evenodd" d="M549.945 351.447C549.945 345.587 545.445 342.208 539.923 343.888L160.022 459.835C154.489 461.525 150 467.653 150 473.503V592.008C150 597.868 154.489 601.258 160.022 599.568L539.923 483.63C545.445 481.94 549.945 475.813 549.945 469.953V351.447Z" fill="#F6F7F7"/>
<path fill-rule="evenodd" clip-rule="evenodd" d="M150 347.73C150 353.59 154.489 359.718 160.022 361.408L539.978 477.368C545.51 479.058 550 475.668 550 469.818V351.303C550 345.453 545.51 339.325 539.978 337.635L160.022 221.675C154.489 219.985 150 223.365 150 229.225V347.73Z" fill="#F6F7F7"/>
<path fill-rule="evenodd" clip-rule="evenodd" d="M549.945 107.995C549.945 102.135 545.445 98.7447 539.923 100.434L160.022 216.372C154.489 218.062 150 224.19 150 230.05V348.555C150 354.415 154.489 357.795 160.022 356.115L539.923 240.167C545.445 238.477 549.945 232.35 549.945 226.5V107.995Z" fill="#F6F7F7"/>
</svg>
