<svg width="1905" height="700" viewBox="0 0 1905 700" fill="none" xmlns="http://www.w3.org/2000/svg">
<path d="M821.505 175.091L860.368 285.29H861.903L900.766 175.091H917.385L869.317 306H852.954L804.885 175.091H821.505ZM935.731 306V207.818H950.816V306H935.731ZM943.401 191.455C940.461 191.455 937.925 190.453 935.795 188.45C933.706 186.447 932.662 184.04 932.662 181.227C932.662 178.415 933.706 176.007 935.795 174.004C937.925 172.001 940.461 171 943.401 171C946.341 171 948.856 172.001 950.944 174.004C953.074 176.007 954.14 178.415 954.14 181.227C954.14 184.04 953.074 186.447 950.944 188.45C948.856 190.453 946.341 191.455 943.401 191.455ZM1047.99 229.807L1034.44 233.642C1033.59 231.384 1032.33 229.189 1030.67 227.058C1029.05 224.885 1026.83 223.095 1024.02 221.689C1021.21 220.283 1017.61 219.58 1013.22 219.58C1007.21 219.58 1002.2 220.964 998.197 223.734C994.234 226.462 992.252 229.935 992.252 234.153C992.252 237.903 993.616 240.865 996.343 243.038C999.07 245.212 1003.33 247.023 1009.13 248.472L1023.7 252.051C1032.48 254.182 1039.02 257.442 1043.32 261.831C1047.63 266.178 1049.78 271.781 1049.78 278.642C1049.78 284.267 1048.16 289.295 1044.92 293.727C1041.73 298.159 1037.25 301.653 1031.5 304.21C1025.75 306.767 1019.06 308.045 1011.43 308.045C1001.41 308.045 993.126 305.872 986.563 301.526C980.001 297.179 975.846 290.83 974.099 282.477L988.417 278.898C989.781 284.182 992.359 288.145 996.151 290.787C999.987 293.429 1004.99 294.75 1011.17 294.75C1018.2 294.75 1023.79 293.259 1027.92 290.276C1032.1 287.25 1034.18 283.628 1034.18 279.409C1034.18 276 1032.99 273.145 1030.6 270.844C1028.22 268.5 1024.55 266.753 1019.61 265.602L1003.25 261.767C994.255 259.636 987.65 256.334 983.431 251.859C979.255 247.342 977.167 241.696 977.167 234.92C977.167 229.381 978.722 224.48 981.833 220.219C984.987 215.957 989.269 212.612 994.681 210.183C1000.14 207.754 1006.31 206.54 1013.22 206.54C1022.93 206.54 1030.56 208.67 1036.1 212.932C1041.68 217.193 1045.65 222.818 1047.99 229.807ZM1134.36 265.858V207.818H1149.45V306H1134.36V289.381H1133.34C1131.04 294.366 1127.46 298.607 1122.6 302.101C1117.74 305.553 1111.61 307.278 1104.19 307.278C1098.06 307.278 1092.6 305.936 1087.83 303.251C1083.06 300.524 1079.31 296.433 1076.58 290.979C1073.85 285.482 1072.49 278.557 1072.49 270.205V207.818H1087.57V269.182C1087.57 276.341 1089.58 282.051 1093.58 286.312C1097.63 290.574 1102.79 292.705 1109.05 292.705C1112.8 292.705 1116.61 291.746 1120.49 289.828C1124.41 287.911 1127.69 284.97 1130.34 281.007C1133.02 277.044 1134.36 271.994 1134.36 265.858ZM1205.97 308.301C1199.75 308.301 1194.1 307.129 1189.03 304.786C1183.96 302.399 1179.93 298.969 1176.95 294.494C1173.97 289.977 1172.48 284.523 1172.48 278.131C1172.48 272.506 1173.58 267.946 1175.8 264.452C1178.02 260.915 1180.98 258.145 1184.68 256.142C1188.39 254.139 1192.48 252.648 1196.96 251.668C1201.47 250.645 1206.01 249.835 1210.57 249.239C1216.54 248.472 1221.38 247.896 1225.08 247.513C1228.83 247.087 1231.56 246.384 1233.26 245.403C1235.01 244.423 1235.89 242.719 1235.89 240.29V239.778C1235.89 233.472 1234.16 228.571 1230.71 225.077C1227.3 221.582 1222.12 219.835 1215.17 219.835C1207.97 219.835 1202.33 221.412 1198.24 224.565C1194.15 227.719 1191.27 231.085 1189.61 234.665L1175.29 229.551C1177.85 223.585 1181.25 218.94 1185.52 215.616C1189.82 212.25 1194.51 209.906 1199.58 208.585C1204.69 207.222 1209.72 206.54 1214.66 206.54C1217.82 206.54 1221.44 206.923 1225.53 207.69C1229.66 208.415 1233.65 209.928 1237.48 212.229C1241.36 214.53 1244.58 218.003 1247.14 222.648C1249.69 227.293 1250.97 233.514 1250.97 241.312V306H1235.89V292.705H1235.12C1234.1 294.835 1232.39 297.115 1230 299.544C1227.62 301.973 1224.44 304.04 1220.48 305.744C1216.52 307.449 1211.68 308.301 1205.97 308.301ZM1208.27 294.75C1214.24 294.75 1219.27 293.578 1223.36 291.234C1227.49 288.891 1230.6 285.865 1232.69 282.158C1234.82 278.45 1235.89 274.551 1235.89 270.46V256.653C1235.25 257.42 1233.84 258.124 1231.67 258.763C1229.54 259.359 1227.06 259.892 1224.25 260.361C1221.48 260.787 1218.78 261.17 1216.13 261.511C1213.53 261.81 1211.42 262.065 1209.81 262.278C1205.89 262.79 1202.22 263.621 1198.81 264.771C1195.44 265.879 1192.72 267.562 1190.63 269.821C1188.58 272.037 1187.56 275.062 1187.56 278.898C1187.56 284.139 1189.5 288.102 1193.38 290.787C1197.3 293.429 1202.26 294.75 1208.27 294.75ZM1293.59 175.091V306H1278.5V175.091H1293.59ZM1445.48 207.818C1444.71 201.341 1441.6 196.312 1436.15 192.733C1430.69 189.153 1424 187.364 1416.08 187.364C1410.28 187.364 1405.21 188.301 1400.86 190.176C1396.56 192.051 1393.19 194.629 1390.76 197.911C1388.38 201.192 1387.18 204.92 1387.18 209.097C1387.18 212.591 1388.02 215.595 1389.68 218.109C1391.38 220.581 1393.56 222.648 1396.2 224.31C1398.84 225.929 1401.61 227.271 1404.51 228.337C1407.41 229.359 1410.07 230.19 1412.5 230.83L1425.79 234.409C1429.2 235.304 1432.99 236.54 1437.17 238.116C1441.39 239.693 1445.42 241.845 1449.25 244.572C1453.13 247.257 1456.33 250.709 1458.84 254.928C1461.35 259.146 1462.61 264.324 1462.61 270.46C1462.61 277.534 1460.76 283.926 1457.05 289.636C1453.39 295.347 1448.02 299.885 1440.94 303.251C1433.91 306.618 1425.37 308.301 1415.31 308.301C1405.93 308.301 1397.82 306.788 1390.96 303.763C1384.14 300.737 1378.77 296.518 1374.85 291.107C1370.97 285.695 1368.78 279.409 1368.26 272.25H1384.63C1385.05 277.193 1386.72 281.284 1389.61 284.523C1392.55 287.719 1396.26 290.105 1400.74 291.682C1405.25 293.216 1410.11 293.983 1415.31 293.983C1421.36 293.983 1426.79 293.003 1431.61 291.043C1436.42 289.04 1440.24 286.27 1443.05 282.733C1445.86 279.153 1447.27 274.977 1447.27 270.205C1447.27 265.858 1446.06 262.321 1443.63 259.594C1441.2 256.866 1438 254.651 1434.04 252.946C1430.08 251.241 1425.79 249.75 1421.19 248.472L1405.08 243.869C1394.86 240.929 1386.76 236.732 1380.79 231.277C1374.83 225.822 1371.84 218.685 1371.84 209.864C1371.84 202.534 1373.83 196.142 1377.79 190.688C1381.79 185.19 1387.16 180.929 1393.9 177.903C1400.67 174.835 1408.24 173.301 1416.59 173.301C1425.03 173.301 1432.53 174.814 1439.09 177.839C1445.65 180.822 1450.85 184.913 1454.68 190.112C1458.56 195.311 1460.61 201.213 1460.82 207.818H1445.48ZM1529.33 207.818V220.602H1478.45V207.818H1529.33ZM1493.28 184.295H1508.36V277.875C1508.36 282.136 1508.98 285.332 1510.22 287.463C1511.49 289.551 1513.11 290.957 1515.07 291.682C1517.08 292.364 1519.19 292.705 1521.4 292.705C1523.06 292.705 1524.43 292.619 1525.49 292.449C1526.56 292.236 1527.41 292.065 1528.05 291.938L1531.12 305.489C1530.09 305.872 1528.67 306.256 1526.84 306.639C1525 307.065 1522.68 307.278 1519.87 307.278C1515.61 307.278 1511.43 306.362 1507.34 304.53C1503.29 302.697 1499.92 299.906 1497.24 296.156C1494.6 292.406 1493.28 287.676 1493.28 281.966V184.295ZM1613.89 265.858V207.818H1628.98V306H1613.89V289.381H1612.87C1610.57 294.366 1606.99 298.607 1602.13 302.101C1597.28 305.553 1591.14 307.278 1583.72 307.278C1577.59 307.278 1572.13 305.936 1567.36 303.251C1562.59 300.524 1558.84 296.433 1556.11 290.979C1553.38 285.482 1552.02 278.557 1552.02 270.205V207.818H1567.1V269.182C1567.1 276.341 1569.11 282.051 1573.11 286.312C1577.16 290.574 1582.32 292.705 1588.58 292.705C1592.33 292.705 1596.15 291.746 1600.02 289.828C1603.94 287.911 1607.23 284.97 1609.87 281.007C1612.55 277.044 1613.89 271.994 1613.89 265.858ZM1693.68 308.045C1685.5 308.045 1678.28 305.979 1672.01 301.845C1665.75 297.669 1660.85 291.788 1657.31 284.203C1653.78 276.575 1652.01 267.562 1652.01 257.165C1652.01 246.852 1653.78 237.903 1657.31 230.318C1660.85 222.733 1665.77 216.874 1672.08 212.74C1678.39 208.607 1685.67 206.54 1693.94 206.54C1700.33 206.54 1705.38 207.605 1709.09 209.736C1712.84 211.824 1715.69 214.21 1717.65 216.895C1719.66 219.537 1721.21 221.71 1722.32 223.415H1723.6V175.091H1738.68V306H1724.11V290.915H1722.32C1721.21 292.705 1719.64 294.963 1717.59 297.69C1715.54 300.375 1712.63 302.783 1708.83 304.913C1705.04 307.001 1699.99 308.045 1693.68 308.045ZM1695.73 294.494C1701.78 294.494 1706.89 292.918 1711.07 289.764C1715.25 286.568 1718.42 282.158 1720.59 276.533C1722.77 270.865 1723.85 264.324 1723.85 256.909C1723.85 249.58 1722.79 243.166 1720.66 237.669C1718.53 232.129 1715.37 227.825 1711.2 224.757C1707.02 221.646 1701.87 220.091 1695.73 220.091C1689.34 220.091 1684.01 221.732 1679.75 225.013C1675.53 228.251 1672.36 232.662 1670.22 238.244C1668.14 243.784 1667.09 250.006 1667.09 256.909C1667.09 263.898 1668.16 270.247 1670.29 275.957C1672.46 281.625 1675.66 286.142 1679.88 289.509C1684.14 292.832 1689.42 294.494 1695.73 294.494ZM1768.41 306V207.818H1783.49V306H1768.41ZM1776.08 191.455C1773.14 191.455 1770.6 190.453 1768.47 188.45C1766.38 186.447 1765.34 184.04 1765.34 181.227C1765.34 178.415 1766.38 176.007 1768.47 174.004C1770.6 172.001 1773.14 171 1776.08 171C1779.02 171 1781.53 172.001 1783.62 174.004C1785.75 176.007 1786.82 178.415 1786.82 181.227C1786.82 184.04 1785.75 186.447 1783.62 188.45C1781.53 190.453 1779.02 191.455 1776.08 191.455ZM1851.01 308.045C1842.14 308.045 1834.37 305.936 1827.68 301.717C1821.03 297.499 1815.83 291.597 1812.08 284.011C1808.37 276.426 1806.52 267.562 1806.52 257.42C1806.52 247.193 1808.37 238.266 1812.08 230.638C1815.83 223.01 1821.03 217.087 1827.68 212.868C1834.37 208.649 1842.14 206.54 1851.01 206.54C1859.87 206.54 1867.63 208.649 1874.27 212.868C1880.97 217.087 1886.16 223.01 1889.87 230.638C1893.62 238.266 1895.5 247.193 1895.5 257.42C1895.5 267.562 1893.62 276.426 1889.87 284.011C1886.16 291.597 1880.97 297.499 1874.27 301.717C1867.63 305.936 1859.87 308.045 1851.01 308.045ZM1851.01 294.494C1857.74 294.494 1863.28 292.768 1867.63 289.317C1871.97 285.865 1875.19 281.327 1877.28 275.702C1879.37 270.077 1880.41 263.983 1880.41 257.42C1880.41 250.858 1879.37 244.743 1877.28 239.075C1875.19 233.408 1871.97 228.827 1867.63 225.332C1863.28 221.838 1857.74 220.091 1851.01 220.091C1844.27 220.091 1838.73 221.838 1834.39 225.332C1830.04 228.827 1826.82 233.408 1824.74 239.075C1822.65 244.743 1821.6 250.858 1821.6 257.42C1821.6 263.983 1822.65 270.077 1824.74 275.702C1826.82 281.327 1830.04 285.865 1834.39 289.317C1838.73 292.768 1844.27 294.494 1851.01 294.494ZM1246.23 434H1230.38C1229.44 429.44 1227.8 425.435 1225.46 421.983C1223.16 418.531 1220.34 415.634 1217.02 413.29C1213.74 410.903 1210.1 409.114 1206.09 407.92C1202.08 406.727 1197.91 406.131 1193.56 406.131C1185.64 406.131 1178.46 408.134 1172.02 412.139C1165.63 416.145 1160.54 422.047 1156.74 429.845C1152.99 437.643 1151.12 447.21 1151.12 458.545C1151.12 469.881 1152.99 479.447 1156.74 487.246C1160.54 495.044 1165.63 500.946 1172.02 504.952C1178.46 508.957 1185.64 510.96 1193.56 510.96C1197.91 510.96 1202.08 510.364 1206.09 509.17C1210.1 507.977 1213.74 506.209 1217.02 503.865C1220.34 501.479 1223.16 498.56 1225.46 495.108C1227.8 491.614 1229.44 487.608 1230.38 483.091H1246.23C1245.04 489.781 1242.87 495.768 1239.71 501.053C1236.56 506.337 1232.64 510.832 1227.95 514.54C1223.26 518.205 1218 520.996 1212.16 522.913C1206.37 524.831 1200.17 525.79 1193.56 525.79C1182.4 525.79 1172.47 523.062 1163.77 517.608C1155.08 512.153 1148.24 504.398 1143.26 494.341C1138.27 484.284 1135.78 472.352 1135.78 458.545C1135.78 444.739 1138.27 432.807 1143.26 422.75C1148.24 412.693 1155.08 404.938 1163.77 399.483C1172.47 394.028 1182.4 391.301 1193.56 391.301C1200.17 391.301 1206.37 392.26 1212.16 394.178C1218 396.095 1223.26 398.908 1227.95 402.615C1232.64 406.28 1236.56 410.754 1239.71 416.038C1242.87 421.28 1245.04 427.267 1246.23 434ZM1309.69 526.045C1300.83 526.045 1293.05 523.936 1286.36 519.717C1279.71 515.499 1274.51 509.597 1270.76 502.011C1267.05 494.426 1265.2 485.562 1265.2 475.42C1265.2 465.193 1267.05 456.266 1270.76 448.638C1274.51 441.01 1279.71 435.087 1286.36 430.868C1293.05 426.649 1300.83 424.54 1309.69 424.54C1318.55 424.54 1326.31 426.649 1332.96 430.868C1339.65 435.087 1344.85 441.01 1348.55 448.638C1352.3 456.266 1354.18 465.193 1354.18 475.42C1354.18 485.562 1352.3 494.426 1348.55 502.011C1344.85 509.597 1339.65 515.499 1332.96 519.717C1326.31 523.936 1318.55 526.045 1309.69 526.045ZM1309.69 512.494C1316.42 512.494 1321.96 510.768 1326.31 507.317C1330.66 503.865 1333.87 499.327 1335.96 493.702C1338.05 488.077 1339.09 481.983 1339.09 475.42C1339.09 468.858 1338.05 462.743 1335.96 457.075C1333.87 451.408 1330.66 446.827 1326.31 443.332C1321.96 439.838 1316.42 438.091 1309.69 438.091C1302.96 438.091 1297.42 439.838 1293.07 443.332C1288.72 446.827 1285.51 451.408 1283.42 457.075C1281.33 462.743 1280.29 468.858 1280.29 475.42C1280.29 481.983 1281.33 488.077 1283.42 493.702C1285.51 499.327 1288.72 503.865 1293.07 507.317C1297.42 510.768 1302.96 512.494 1309.69 512.494ZM1414.28 526.045C1406.1 526.045 1398.87 523.979 1392.61 519.845C1386.35 515.669 1381.45 509.788 1377.91 502.203C1374.37 494.575 1372.6 485.562 1372.6 475.165C1372.6 464.852 1374.37 455.903 1377.91 448.318C1381.45 440.733 1386.37 434.874 1392.67 430.74C1398.98 426.607 1406.27 424.54 1414.53 424.54C1420.93 424.54 1425.98 425.605 1429.68 427.736C1433.43 429.824 1436.29 432.21 1438.25 434.895C1440.25 437.537 1441.81 439.71 1442.92 441.415H1444.19V393.091H1459.28V524H1444.71V508.915H1442.92C1441.81 510.705 1440.23 512.963 1438.19 515.69C1436.14 518.375 1433.22 520.783 1429.43 522.913C1425.64 525.001 1420.59 526.045 1414.28 526.045ZM1416.32 512.494C1422.38 512.494 1427.49 510.918 1431.67 507.764C1435.84 504.568 1439.02 500.158 1441.19 494.533C1443.36 488.865 1444.45 482.324 1444.45 474.909C1444.45 467.58 1443.38 461.166 1441.25 455.669C1439.12 450.129 1435.97 445.825 1431.79 442.757C1427.62 439.646 1422.46 438.091 1416.32 438.091C1409.93 438.091 1404.61 439.732 1400.34 443.013C1396.13 446.251 1392.95 450.662 1390.82 456.244C1388.73 461.784 1387.69 468.006 1387.69 474.909C1387.69 481.898 1388.75 488.247 1390.88 493.957C1393.06 499.625 1396.25 504.142 1400.47 507.509C1404.73 510.832 1410.02 512.494 1416.32 512.494ZM1530.17 526.045C1520.71 526.045 1512.55 523.957 1505.69 519.781C1498.87 515.562 1493.6 509.682 1489.9 502.139C1486.23 494.554 1484.4 485.733 1484.4 475.676C1484.4 465.619 1486.23 456.756 1489.9 449.085C1493.6 441.372 1498.76 435.364 1505.37 431.06C1512.01 426.713 1519.77 424.54 1528.63 424.54C1533.75 424.54 1538.8 425.392 1543.78 427.097C1548.77 428.801 1553.31 431.571 1557.4 435.406C1561.49 439.199 1564.75 444.227 1567.18 450.491C1569.61 456.756 1570.82 464.469 1570.82 473.631V480.023H1495.14V466.983H1555.48C1555.48 461.443 1554.37 456.5 1552.16 452.153C1549.98 447.807 1546.87 444.376 1542.82 441.862C1538.82 439.348 1534.09 438.091 1528.63 438.091C1522.62 438.091 1517.43 439.582 1513.04 442.565C1508.69 445.506 1505.34 449.341 1503 454.071C1500.66 458.801 1499.49 463.872 1499.49 469.284V477.977C1499.49 485.392 1500.76 491.678 1503.32 496.834C1505.92 501.947 1509.52 505.847 1514.12 508.531C1518.73 511.173 1524.07 512.494 1530.17 512.494C1534.13 512.494 1537.71 511.94 1540.91 510.832C1544.14 509.682 1546.94 507.977 1549.28 505.719C1551.62 503.418 1553.43 500.562 1554.71 497.153L1569.29 501.244C1567.75 506.188 1565.17 510.534 1561.55 514.284C1557.93 517.991 1553.46 520.889 1548.13 522.977C1542.8 525.023 1536.81 526.045 1530.17 526.045Z" fill="#6B7077"/>
<path d="M525.044 27.9198C525.044 5.94575 500.441 5.9455 489.506 8.69225C504.813 -3.3935 522.766 -0.463251 529.144 3.199L676.98 75.6868C691.065 82.5938 700 96.965 700 112.714V589.577C700 605.537 690.827 620.063 676.455 626.858L537.346 692.635C527.776 696.753 507.001 706.917 489.506 692.632C511.376 696.755 523.221 681.19 525.044 670.66V27.9198Z" fill="#6B7077"/>
<path d="M491.284 8.2975C502.889 6.00425 525.049 7.06775 525.049 27.9213V192.063L76.8403 531.133C69.006 537.06 57.9804 536.075 51.3076 528.855L5.11334 478.87C-2.12341 471.04 -1.61707 458.782 6.24065 451.582L489.509 8.69375L491.284 8.2975Z" fill="#6B7077"/>
<path d="M525.049 509.27L76.8403 170.2C69.006 164.274 57.9804 165.257 51.3076 172.478L5.11334 222.463C-2.12341 230.293 -1.61707 242.55 6.24065 249.752L489.509 692.64C511.379 696.76 523.226 681.195 525.049 670.665V509.27Z" fill="#6B7077"/>
</svg>
