<svg width="1731" height="800" viewBox="0 0 1731 800" fill="none" xmlns="http://www.w3.org/2000/svg">
<path d="M50 303.332C50 214.658 50 170.321 67.2572 136.451C82.4373 106.659 106.659 82.4373 136.451 67.2572C170.321 50 214.658 50 303.332 50H496.667C585.342 50 629.68 50 663.548 67.2572C693.34 82.4373 717.562 106.659 732.743 136.451C750 170.321 750 214.658 750 303.332V496.667C750 585.342 750 629.68 732.743 663.548C717.562 693.34 693.34 717.562 663.548 732.743C629.68 750 585.342 750 496.667 750H303.332C214.658 750 170.321 750 136.451 732.743C106.659 717.562 82.4373 693.34 67.2572 663.548C50 629.68 50 585.342 50 496.667V303.332Z" fill="#6B7077"/>
<path d="M416.163 255.845L328.82 403.705L422.265 560.712C424.208 564.272 422.265 565.06 419.45 565.06H352.77C348.073 565.06 344.785 564.89 342.908 561.678C336.64 549.155 330.38 536.713 324.123 524.35C317.858 511.993 311.205 499.39 304.168 486.543C297.123 473.705 290.158 460.703 283.27 447.533C277.005 460.378 270.038 473.22 263.313 486.062C256.578 498.907 249.925 511.67 243.355 524.35C236.782 537.038 230.051 549.64 223.164 562.157C221.909 565.047 219.715 565.345 216.588 565.345H152.257C149.729 565.345 149.424 563.445 150.848 561.195L241.477 408.52L153.195 255.363C151.592 253.178 152.972 250.85 155.544 251.027H221.754C224.621 250.867 227.155 251.947 228.798 254.4C234.433 267.245 240.694 280.09 247.581 292.93C254.463 305.775 261.43 318.46 268.478 330.978C275.523 343.5 282.488 356.182 288.435 369.027C294.693 355.865 301.033 343.022 307.453 330.497C313.868 317.975 320.44 305.372 327.175 292.69C333.905 280.01 340.4 267.407 346.663 254.882C347.495 252.135 349.485 250.742 352.298 251.027H413.813C416.163 251.027 417.133 254.235 416.163 255.845Z" fill="#F6F7F7"/>
<path d="M550.927 571.313C509.515 571.96 466.137 554.907 444.332 517.13C433.687 498.992 428.365 476.277 428.367 448.98C428.19 426.875 433.697 405.113 444.332 385.888C471.775 336.833 527.06 318.452 579.572 323.277V228.397C579.572 226.154 580.512 225.025 582.39 225.025H641.557C643.175 224.788 644.605 226.256 644.375 227.915V512.555C644.375 524.297 645.54 536 646.255 547.713C646.37 549.713 645.212 551.693 643.435 552.53C614.202 565.035 582.57 571.168 550.927 571.313ZM579.572 511.59V380.107C536.682 368.192 495.042 400.86 495.047 446.09C494.03 492.852 534.34 525.16 579.572 511.59Z" fill="#F6F7F7"/>
<path d="M921.614 465H904.995L953.063 334.091H969.427L1017.49 465H1000.88L961.756 354.801H960.733L921.614 465ZM927.751 413.864H994.739V427.926H927.751V413.864ZM1072.91 467.045C1064.73 467.045 1057.51 464.979 1051.24 460.845C1044.98 456.669 1040.08 450.788 1036.54 443.203C1033.01 435.575 1031.24 426.562 1031.24 416.165C1031.24 405.852 1033.01 396.903 1036.54 389.318C1040.08 381.733 1045 375.874 1051.31 371.74C1057.62 367.607 1064.9 365.54 1073.17 365.54C1079.56 365.54 1084.61 366.605 1088.32 368.736C1092.07 370.824 1094.92 373.21 1096.88 375.895C1098.89 378.537 1100.44 380.71 1101.55 382.415H1102.83V334.091H1117.91V465H1103.34V449.915H1101.55C1100.44 451.705 1098.87 453.963 1096.82 456.69C1094.77 459.375 1091.86 461.783 1088.06 463.913C1084.27 466.001 1079.22 467.045 1072.91 467.045ZM1074.96 453.494C1081.01 453.494 1086.12 451.918 1090.3 448.764C1094.48 445.568 1097.65 441.158 1099.82 435.533C1102 429.865 1103.08 423.324 1103.08 415.909C1103.08 408.58 1102.02 402.166 1099.89 396.669C1097.76 391.129 1094.6 386.825 1090.43 383.757C1086.25 380.646 1081.1 379.091 1074.96 379.091C1068.57 379.091 1063.24 380.732 1058.98 384.013C1054.76 387.251 1051.59 391.662 1049.46 397.244C1047.37 402.784 1046.32 409.006 1046.32 415.909C1046.32 422.898 1047.39 429.247 1049.52 434.957C1051.69 440.625 1054.89 445.142 1059.11 448.509C1063.37 451.832 1068.65 453.494 1074.96 453.494ZM1187.52 467.045C1178.66 467.045 1170.88 464.936 1164.19 460.717C1157.54 456.499 1152.35 450.597 1148.6 443.011C1144.89 435.426 1143.03 426.562 1143.03 416.42C1143.03 406.193 1144.89 397.266 1148.6 389.638C1152.35 382.01 1157.54 376.087 1164.19 371.868C1170.88 367.649 1178.66 365.54 1187.52 365.54C1196.39 365.54 1204.14 367.649 1210.79 371.868C1217.48 376.087 1222.68 382.01 1226.39 389.638C1230.14 397.266 1232.01 406.193 1232.01 416.42C1232.01 426.562 1230.14 435.426 1226.39 443.011C1222.68 450.597 1217.48 456.499 1210.79 460.717C1204.14 464.936 1196.39 467.045 1187.52 467.045ZM1187.52 453.494C1194.26 453.494 1199.8 451.768 1204.14 448.317C1208.49 444.865 1211.71 440.327 1213.79 434.702C1215.88 429.077 1216.93 422.983 1216.93 416.42C1216.93 409.858 1215.88 403.743 1213.79 398.075C1211.71 392.408 1208.49 387.827 1204.14 384.332C1199.8 380.838 1194.26 379.091 1187.52 379.091C1180.79 379.091 1175.25 380.838 1170.9 384.332C1166.56 387.827 1163.34 392.408 1161.25 398.075C1159.16 403.743 1158.12 409.858 1158.12 416.42C1158.12 422.983 1159.16 429.077 1161.25 434.702C1163.34 440.327 1166.56 444.865 1170.9 448.317C1175.25 451.768 1180.79 453.494 1187.52 453.494ZM1257.08 465V334.091H1272.17V382.415H1273.45C1274.56 380.71 1276.09 378.537 1278.05 375.895C1280.05 373.21 1282.91 370.824 1286.62 368.736C1290.37 366.605 1295.44 365.54 1301.83 365.54C1310.1 365.54 1317.38 367.607 1323.69 371.74C1330 375.874 1334.92 381.733 1338.46 389.318C1341.99 396.903 1343.76 405.852 1343.76 416.165C1343.76 426.562 1341.99 435.575 1338.46 443.203C1334.92 450.788 1330.02 456.669 1323.75 460.845C1317.49 464.979 1310.27 467.045 1302.08 467.045C1295.78 467.045 1290.73 466.001 1286.94 463.913C1283.14 461.783 1280.22 459.375 1278.18 456.69C1276.13 453.963 1274.56 451.705 1273.45 449.915H1271.66V465H1257.08ZM1271.91 415.909C1271.91 423.324 1273 429.865 1275.17 435.533C1277.35 441.158 1280.52 445.568 1284.7 448.764C1288.87 451.918 1293.99 453.494 1300.04 453.494C1306.35 453.494 1311.61 451.832 1315.83 448.509C1320.09 445.142 1323.28 440.625 1325.42 434.957C1327.59 429.247 1328.68 422.898 1328.68 415.909C1328.68 409.006 1327.61 402.784 1325.48 397.244C1323.39 391.662 1320.22 387.251 1315.96 384.013C1311.74 380.732 1306.43 379.091 1300.04 379.091C1293.9 379.091 1288.75 380.646 1284.57 383.757C1280.39 386.825 1277.24 391.129 1275.11 396.669C1272.98 402.166 1271.91 408.58 1271.91 415.909ZM1408 467.045C1398.54 467.045 1390.38 464.957 1383.52 460.781C1376.7 456.562 1371.44 450.682 1367.73 443.139C1364.07 435.554 1362.23 426.733 1362.23 416.676C1362.23 406.619 1364.07 397.756 1367.73 390.085C1371.44 382.372 1376.59 376.364 1383.2 372.06C1389.85 367.713 1397.6 365.54 1406.47 365.54C1411.58 365.54 1416.63 366.392 1421.62 368.097C1426.6 369.801 1431.14 372.571 1435.23 376.406C1439.32 380.199 1442.58 385.227 1445.01 391.491C1447.44 397.756 1448.65 405.469 1448.65 414.631V421.023H1372.97V407.983H1433.31C1433.31 402.443 1432.21 397.5 1429.99 393.153C1427.82 388.807 1424.71 385.376 1420.66 382.862C1416.65 380.348 1411.92 379.091 1406.47 379.091C1400.46 379.091 1395.26 380.582 1390.87 383.565C1386.52 386.506 1383.18 390.341 1380.83 395.071C1378.49 399.801 1377.32 404.872 1377.32 410.284V418.977C1377.32 426.392 1378.6 432.678 1381.15 437.834C1383.75 442.947 1387.35 446.847 1391.96 449.531C1396.56 452.173 1401.91 453.494 1408 453.494C1411.96 453.494 1415.54 452.94 1418.74 451.832C1421.98 450.682 1424.77 448.977 1427.11 446.719C1429.46 444.418 1431.27 441.562 1432.55 438.153L1447.12 442.244C1445.59 447.188 1443.01 451.534 1439.39 455.284C1435.76 458.991 1431.29 461.889 1425.96 463.977C1420.64 466.023 1414.65 467.045 1408 467.045ZM1531.94 334.091L1565.69 388.551H1566.72L1600.47 334.091H1619.13L1577.97 399.545L1619.13 465H1600.47L1566.72 411.562H1565.69L1531.94 465H1513.28L1555.47 399.545L1513.28 334.091H1531.94ZM1669.69 467.045C1661.51 467.045 1654.29 464.979 1648.02 460.845C1641.76 456.669 1636.86 450.788 1633.32 443.203C1629.78 435.575 1628.02 426.562 1628.02 416.165C1628.02 405.852 1629.78 396.903 1633.32 389.318C1636.86 381.733 1641.78 375.874 1648.09 371.74C1654.39 367.607 1661.68 365.54 1669.95 365.54C1676.34 365.54 1681.39 366.605 1685.1 368.736C1688.85 370.824 1691.7 373.21 1693.66 375.895C1695.66 378.537 1697.22 380.71 1698.33 382.415H1699.61V334.091H1714.69V465H1700.12V449.915H1698.33C1697.22 451.705 1695.64 453.963 1693.6 456.69C1691.55 459.375 1688.63 461.783 1684.84 463.913C1681.05 466.001 1676 467.045 1669.69 467.045ZM1671.74 453.494C1677.79 453.494 1682.9 451.918 1687.08 448.764C1691.25 445.568 1694.43 441.158 1696.6 435.533C1698.78 429.865 1699.86 423.324 1699.86 415.909C1699.86 408.58 1698.8 402.166 1696.67 396.669C1694.53 391.129 1691.38 386.825 1687.21 383.757C1683.03 380.646 1677.87 379.091 1671.74 379.091C1665.34 379.091 1660.02 380.732 1655.76 384.013C1651.54 387.251 1648.36 391.662 1646.23 397.244C1644.14 402.784 1643.1 409.006 1643.1 415.909C1643.1 422.898 1644.17 429.247 1646.3 434.957C1648.47 440.625 1651.67 445.142 1655.88 448.509C1660.15 451.832 1665.43 453.494 1671.74 453.494Z" fill="#6B7077"/>
</svg>
