<svg width="49" height="49" viewBox="0 0 49 49" fill="none" xmlns="http://www.w3.org/2000/svg">
<path d="M27.4304 21.1148L26.9768 20.5175L26.9664 20.5254L26.9563 20.5337L27.4304 21.1148ZM27.4304 20.0695L26.9417 20.6384L26.9749 20.6669L27.0112 20.6914L27.4304 20.0695ZM23.8397 16.9848L24.3284 16.4159L24.3075 16.398L24.2854 16.3816L23.8397 16.9848ZM23.0869 17.4455L23.837 17.4437L23.8368 17.4324L23.0869 17.4455ZM23.1019 23.505L22.352 23.5068L22.352 23.525L22.3529 23.5432L23.1019 23.505ZM23.8823 24.0099L24.2891 24.64L24.3242 24.6174L24.3565 24.591L23.8823 24.0099ZM24.5 27.0417C22.8341 27.0417 21.0398 27.0412 19.5352 26.911C18.7828 26.8459 18.1302 26.7505 17.6175 26.6158C17.08 26.4746 16.8044 26.3171 16.6946 26.2033L15.6148 27.2445C16.0199 27.6645 16.6305 27.9075 17.2364 28.0666C17.867 28.2323 18.6149 28.337 19.4059 28.4054C20.9878 28.5423 22.8513 28.5417 24.5 28.5417V27.0417ZM14.375 20.5C14.375 22.1982 14.3735 23.5447 14.5099 24.5969C14.6488 25.6681 14.9423 26.5471 15.6148 27.2445L16.6946 26.2033C16.3374 25.8328 16.116 25.3186 15.9975 24.4041C15.8765 23.4707 15.875 22.2392 15.875 20.5H14.375ZM33.125 20.5C33.125 22.2392 33.1235 23.4707 33.0025 24.4041C32.884 25.3186 32.6626 25.8328 32.3054 26.2033L33.3852 27.2445C34.0577 26.5471 34.3512 25.6681 34.4901 24.5969C34.6265 23.5447 34.625 22.1982 34.625 20.5H33.125ZM24.5 28.5417C26.1487 28.5417 28.0122 28.5423 29.5941 28.4054C30.3851 28.337 31.133 28.2323 31.7636 28.0666C32.3695 27.9075 32.9801 27.6645 33.3852 27.2445L32.3054 26.2033C32.1956 26.3171 31.92 26.4746 31.3825 26.6158C30.8698 26.7505 30.2172 26.8459 29.4648 26.911C27.9602 27.0412 26.1659 27.0417 24.5 27.0417V28.5417ZM24.5 13.9584C26.1659 13.9584 27.9602 13.9589 29.4648 14.0891C30.2172 14.1541 30.8698 14.2496 31.3825 14.3843C31.92 14.5254 32.1956 14.6829 32.3054 14.7968L33.3852 13.7556C32.9801 13.3356 32.3695 13.0926 31.7636 12.9335C31.133 12.7678 30.3851 12.6631 29.5941 12.5946C28.0122 12.4578 26.1487 12.4584 24.5 12.4584V13.9584ZM34.625 20.5C34.625 18.8018 34.6265 17.4554 34.4901 16.4031C34.3512 15.332 34.0577 14.453 33.3852 13.7556L32.3054 14.7968C32.6626 15.1672 32.884 15.6815 33.0025 16.596C33.1235 17.5294 33.125 18.7609 33.125 20.5H34.625ZM24.5 12.4584C22.8513 12.4584 20.9878 12.4578 19.4059 12.5946C18.6149 12.6631 17.867 12.7678 17.2364 12.9335C16.6305 13.0926 16.0199 13.3356 15.6148 13.7556L16.6946 14.7968C16.8044 14.6829 17.08 14.5254 17.6175 14.3843C18.1302 14.2496 18.7828 14.1541 19.5352 14.0891C21.0398 13.9589 22.8341 13.9584 24.5 13.9584V12.4584ZM15.875 20.5C15.875 18.7609 15.8765 17.5294 15.9975 16.596C16.116 15.6815 16.3374 15.1672 16.6946 14.7968L15.6148 13.7556C14.9423 14.453 14.6488 15.332 14.5099 16.4031C14.3735 17.4554 14.375 18.8018 14.375 20.5H15.875ZM27.8841 21.7121C28.1971 21.4743 28.5248 21.0952 28.5242 20.5762C28.5236 20.043 28.1793 19.6699 27.8497 19.4477L27.0112 20.6914C27.0687 20.7302 27.0761 20.748 27.0657 20.7326C27.0516 20.7116 27.0243 20.6568 27.0242 20.5779C27.0241 20.501 27.05 20.4541 27.0552 20.4459C27.0579 20.4416 27.0413 20.4686 26.9768 20.5175L27.8841 21.7121ZM27.9192 19.5006L24.3284 16.4159L23.3509 17.5537L26.9417 20.6384L27.9192 19.5006ZM24.2854 16.3816C23.9601 16.1412 23.4501 15.9719 22.9612 16.2382C22.4738 16.5037 22.3295 17.0272 22.337 17.4586L23.8368 17.4324C23.8343 17.2902 23.8803 17.4457 23.6787 17.5555C23.4756 17.6661 23.3471 17.5533 23.3939 17.5879L24.2854 16.3816ZM22.3369 17.4474L22.352 23.5068L23.8519 23.5031L23.8369 17.4437L22.3369 17.4474ZM22.3529 23.5432C22.3715 23.9072 22.4741 24.4451 22.9403 24.7355C23.4563 25.057 23.9914 24.8323 24.2891 24.64L23.4755 23.3799C23.4184 23.4167 23.4139 23.4067 23.457 23.3997C23.5126 23.3907 23.622 23.3929 23.7335 23.4624C23.8366 23.5267 23.8688 23.6032 23.8704 23.6073C23.8712 23.6091 23.8562 23.5697 23.851 23.4668L22.3529 23.5432ZM24.3565 24.591L27.9046 21.6959L26.9563 20.5337L23.4082 23.4288L24.3565 24.591Z" fill="white"/>
<g filter="url(#filter0_dd_67_59)">
<circle cx="24.5" cy="20.5" r="20" stroke="white" shape-rendering="crispEdges"/>
</g>
<defs>
<filter id="filter0_dd_67_59" x="0" y="0" width="49" height="49" filterUnits="userSpaceOnUse" color-interpolation-filters="sRGB">
<feFlood flood-opacity="0" result="BackgroundImageFix"/>
<feColorMatrix in="SourceAlpha" type="matrix" values="0 0 0 0 0 0 0 0 0 0 0 0 0 0 0 0 0 0 127 0" result="hardAlpha"/>
<feOffset dy="4"/>
<feGaussianBlur stdDeviation="2"/>
<feComposite in2="hardAlpha" operator="out"/>
<feColorMatrix type="matrix" values="0 0 0 0 0 0 0 0 0 0 0 0 0 0 0 0 0 0 0.25 0"/>
<feBlend mode="normal" in2="BackgroundImageFix" result="effect1_dropShadow_67_59"/>
<feColorMatrix in="SourceAlpha" type="matrix" values="0 0 0 0 0 0 0 0 0 0 0 0 0 0 0 0 0 0 127 0" result="hardAlpha"/>
<feOffset dy="4"/>
<feGaussianBlur stdDeviation="2"/>
<feComposite in2="hardAlpha" operator="out"/>
<feColorMatrix type="matrix" values="0 0 0 0 0 0 0 0 0 0 0 0 0 0 0 0 0 0 0.25 0"/>
<feBlend mode="normal" in2="effect1_dropShadow_67_59" result="effect2_dropShadow_67_59"/>
<feBlend mode="normal" in="SourceGraphic" in2="effect2_dropShadow_67_59" result="shape"/>
</filter>
</defs>
</svg>
