<?xml version="1.0" encoding="utf-8"?>
<!-- Generator: Adobe Illustrator 27.3.1, SVG Export Plug-In . SVG Version: 6.00 Build 0)  -->
<svg version="1.1" id="Calque_1" xmlns="http://www.w3.org/2000/svg" xmlns:xlink="http://www.w3.org/1999/xlink" x="0px" y="0px"
	 viewBox="0 0 595.28 841.89" style="enable-background:new 0 0 595.28 841.89;" xml:space="preserve">
<style type="text/css">
	.st0{fill:#FEC81A;stroke:#FEC71A;stroke-miterlimit:10;}
</style>
<g>
	<g>
		<path class="st0" d="M176.97,315.65c-1,0.6-2.18,0.9-3.55,0.9c-1.85,0-3.35-0.6-4.49-1.81s-1.71-2.77-1.71-4.69
			c0-2.14,0.61-3.86,1.84-5.16s2.86-1.95,4.91-1.95c1.14,0,2.15,0.21,3.02,0.63v2.13c-0.96-0.68-2-1.02-3.1-1.02
			c-1.33,0-2.42,0.48-3.27,1.43s-1.28,2.2-1.28,3.75c0,1.52,0.4,2.73,1.2,3.61s1.87,1.32,3.22,1.32c1.13,0,2.2-0.38,3.2-1.13V315.65
			z"/>
		<path class="st0" d="M180.79,314.37h-0.05v7.86h-2.08v-18.98h2.08v2.29h0.05c1.02-1.73,2.52-2.59,4.49-2.59
			c1.68,0,2.98,0.58,3.92,1.75s1.41,2.72,1.41,4.68c0,2.18-0.53,3.92-1.59,5.22s-2.51,1.96-4.34,1.96
			C183.01,316.55,181.71,315.82,180.79,314.37z M180.74,309.12v1.82c0,1.07,0.35,1.99,1.05,2.74s1.58,1.12,2.66,1.12
			c1.26,0,2.25-0.48,2.96-1.45s1.07-2.31,1.07-4.02c0-1.45-0.33-2.58-1-3.4s-1.57-1.23-2.72-1.23c-1.21,0-2.18,0.42-2.92,1.26
			S180.74,307.85,180.74,309.12z"/>
		<path class="st0" d="M203.28,316.25h-2.08v-7.41c0-2.76-1.01-4.14-3.02-4.14c-1.04,0-1.9,0.39-2.58,1.17s-1.02,1.77-1.02,2.96
			v7.41h-2.08v-13h2.08v2.16h0.05c0.98-1.64,2.4-2.46,4.27-2.46c1.42,0,2.51,0.46,3.26,1.38s1.13,2.25,1.13,3.98V316.25z"/>
		<path class="st0" d="M204.96,315.78v-2.23c1.13,0.84,2.38,1.26,3.75,1.26c1.83,0,2.74-0.61,2.74-1.83c0-0.35-0.08-0.64-0.23-0.88
			s-0.37-0.46-0.63-0.64s-0.58-0.35-0.94-0.5s-0.75-0.3-1.16-0.46c-0.58-0.23-1.08-0.46-1.52-0.69s-0.8-0.5-1.09-0.79
			s-0.51-0.62-0.66-1s-0.22-0.81-0.22-1.31c0-0.61,0.14-1.15,0.42-1.62s0.65-0.86,1.12-1.18s1-0.56,1.59-0.72s1.21-0.24,1.85-0.24
			c1.13,0,2.13,0.19,3.02,0.58v2.11c-0.96-0.63-2.06-0.94-3.3-0.94c-0.39,0-0.74,0.04-1.05,0.13s-0.58,0.21-0.81,0.37
			s-0.4,0.35-0.52,0.58s-0.18,0.47-0.18,0.74c0,0.34,0.06,0.62,0.18,0.85s0.3,0.43,0.54,0.61s0.52,0.34,0.86,0.48
			s0.72,0.3,1.16,0.47c0.58,0.22,1.09,0.45,1.55,0.68s0.85,0.5,1.17,0.79s0.57,0.63,0.74,1.01s0.26,0.83,0.26,1.36
			c0,0.64-0.14,1.2-0.43,1.68s-0.66,0.87-1.14,1.18s-1.02,0.55-1.64,0.7s-1.27,0.23-1.94,0.23
			C207.1,316.55,205.94,316.29,204.96,315.78z"/>
	</g>
</g>
</svg>
